<svg width="40" height="41" viewBox="0 0 40 41" fill="none" xmlns="http://www.w3.org/2000/svg">
<path d="M27.6509 1.73129C26.4335 1.69344 25.2755 2.2544 24.5454 3.22779L17.0336 13.246C15.2244 15.6582 17.0083 19.2637 20.0266 19.2637H21.2835V38.0335C21.2848 38.3638 21.4166 38.6803 21.6502 38.9138C21.8838 39.1474 22.2002 39.2792 22.5305 39.2806H30.0448C32.1048 39.2808 33.7985 37.5896 33.7983 35.5296V19.2637H35.0551C38.0743 19.2637 39.8694 15.6614 38.0579 13.246L30.5436 3.22779C29.8567 2.31194 28.7929 1.7629 27.6509 1.73129ZM15.0285 21.7579C12.9694 21.7579 11.2653 23.4498 11.2653 25.5089V38.0335C11.2626 38.7287 11.8269 39.293 12.5221 39.2903H18.7795V21.7579H15.0285ZM5.01031 26.7682C2.95123 26.7682 1.24707 28.4601 1.24707 30.5192V35.5296C1.24707 37.5886 2.9512 39.2903 5.01031 39.2903H8.76377V26.7682H5.01031Z" fill="url(#paint0_linear_6007_13906)"/>
<defs>
<linearGradient id="paint0_linear_6007_13906" x1="20.0154" y1="1.72949" x2="20.0154" y2="39.2904" gradientUnits="userSpaceOnUse">
<stop stop-color="#6346E4"/>
<stop offset="1" stop-color="#6C3E9D"/>
</linearGradient>
</defs>
</svg>
