<svg width="40" height="41" viewBox="0 0 40 41" fill="none" xmlns="http://www.w3.org/2000/svg">
<path d="M9.01678 38.4326C9.46927 37.9802 9.82822 37.4431 10.0731 36.8519C10.318 36.2607 10.4441 35.6271 10.4441 34.9872C10.4442 34.3473 10.3182 33.7137 10.0733 33.1225C9.8285 32.5313 9.46961 31.9941 9.01717 31.5416C8.56472 31.0891 8.02758 30.7302 7.43641 30.4853C6.84525 30.2404 6.21163 30.1143 5.57174 30.1143C4.93185 30.1142 4.29822 30.2402 3.70702 30.4851C3.11583 30.7299 2.57865 31.0888 2.12615 31.5412C0.770682 32.8959 0.234745 34.9967 0.0667762 36.899C-0.0294428 37.9753 -0.0231646 39.0583 0.0855262 40.1334C0.114432 40.403 0.373807 40.4639 0.418339 40.4717H0.43162C0.540214 40.4717 2.09724 40.5069 2.57693 38.9873C2.66309 38.704 2.78965 38.4345 2.95271 38.1873C3.02031 38.0899 3.11884 38.0181 3.23235 37.9836C3.34585 37.9491 3.46767 37.9539 3.57807 37.9973C3.68847 38.0407 3.78098 38.1201 3.84061 38.2227C3.90024 38.3252 3.9235 38.4449 3.90662 38.5623C3.8287 39.1395 3.94848 39.726 4.24646 40.2264C4.27903 40.2821 4.32755 40.3268 4.38577 40.3546C4.44398 40.3825 4.50921 40.3922 4.57303 40.3826C6.20428 40.1326 7.87459 39.5748 9.01678 38.4326Z" fill="url(#paint0_linear_6007_13871)"/>
<path d="M39.9625 4.12919C39.8445 2.09091 38.3844 0.630753 36.3461 0.512785C29.4227 0.100285 21.707 3.03622 15.6898 9.05341L14.0852 10.6581C13.5065 11.2362 12.957 11.8295 12.4367 12.4378H7.37734C6.30312 12.4792 5.35313 13.0987 4.81563 14.0081L1.84141 19.9573C1.76198 20.1708 1.70643 20.3925 1.67578 20.6182C1.68046 21.001 1.83485 21.3667 2.10588 21.637C2.37691 21.9073 2.74302 22.0607 3.12578 22.0643H6.88203C6.39453 23.705 6.71953 25.3198 7.7625 26.3612L14.1133 32.712C15.1555 33.755 16.7695 34.08 18.4102 33.5925V37.3526C18.4148 37.7347 18.5687 38.0998 18.8389 38.37C19.1091 38.6402 19.4742 38.7941 19.8562 38.7987C20.082 38.7681 20.3037 38.7125 20.5172 38.6331L26.4664 35.6589C27.3758 35.1214 27.9953 34.1745 28.0367 33.0972V28.0386C28.6435 27.5177 29.2367 26.9683 29.8164 26.3901L31.4211 24.7854C37.4391 18.7682 40.375 11.0526 39.9625 4.12919ZM31.5328 16.1847C30.8166 16.9009 29.9041 17.3886 28.9107 17.5862C27.9173 17.7839 26.8876 17.6825 25.9519 17.2949C25.0161 16.9073 24.2163 16.2509 23.6536 15.4087C23.0908 14.5665 22.7905 13.5764 22.7905 12.5636C22.7905 11.5507 23.0908 10.5606 23.6536 9.71842C24.2163 8.87625 25.0161 8.21987 25.9519 7.83227C26.8876 7.44468 27.9173 7.34327 28.9107 7.54089C29.9041 7.7385 30.8166 8.22625 31.5328 8.94247C32.4932 9.90286 33.0327 11.2054 33.0327 12.5636C33.0327 13.9217 32.4932 15.2243 31.5328 16.1847Z" fill="url(#paint1_linear_6007_13871)"/>
<path d="M6.18204 8.46011C5.9029 8.18087 5.74609 7.8022 5.74609 7.40737C5.74609 7.01254 5.9029 6.63388 6.18204 6.35464L10.0383 2.49839C10.318 2.21867 10.6974 2.06152 11.093 2.06152C11.4886 2.06152 11.8679 2.21867 12.1477 2.49839C12.4274 2.77811 12.5845 3.15749 12.5845 3.55308C12.5845 3.94866 12.4274 4.32804 12.1477 4.60776L8.29141 8.46401C8.15282 8.60256 7.98824 8.71238 7.80712 8.78719C7.62599 8.862 7.43188 8.90033 7.23591 8.89996C7.03995 8.8996 6.84598 8.86056 6.66513 8.78508C6.48429 8.7096 6.32012 8.59917 6.18204 8.46011Z" fill="url(#paint2_linear_6007_13871)"/>
<path d="M0.591612 7.57717C0.31343 7.29806 0.157227 6.92006 0.157227 6.526C0.157227 6.13193 0.31343 5.75393 0.591612 5.47482L2.56896 3.49436C2.84994 3.2239 3.22582 3.07447 3.6158 3.07819C4.00579 3.08192 4.37875 3.23849 4.65452 3.51426C4.93029 3.79003 5.08686 4.16299 5.09059 4.55298C5.09431 4.94296 4.94488 5.31884 4.67442 5.59982L2.69708 7.57717C2.55913 7.71594 2.3951 7.82607 2.21443 7.90123C2.03377 7.97638 1.84002 8.01506 1.64435 8.01506C1.44867 8.01506 1.25493 7.97638 1.07426 7.90123C0.893589 7.82607 0.729562 7.71594 0.591612 7.57717Z" fill="url(#paint3_linear_6007_13871)"/>
<path d="M31.8891 34.1667C31.7503 34.0288 31.6402 33.8648 31.565 33.6841C31.4899 33.5034 31.4512 33.3097 31.4512 33.114C31.4512 32.9183 31.4899 32.7246 31.565 32.5439C31.6402 32.3632 31.7503 32.1992 31.8891 32.0613L35.7445 28.2089C36.0237 27.9292 36.4026 27.7719 36.7978 27.7715C37.1931 27.7711 37.5722 27.9278 37.852 28.207C38.1317 28.4862 38.289 28.8651 38.2894 29.2603C38.2898 29.6555 38.1331 30.0347 37.8539 30.3144L33.9984 34.1706C33.8598 34.3092 33.6953 34.419 33.5141 34.4938C33.333 34.5686 33.1389 34.607 32.9429 34.6066C32.747 34.6062 32.553 34.5672 32.3722 34.4917C32.1913 34.4162 32.0271 34.3058 31.8891 34.1667Z" fill="url(#paint4_linear_6007_13871)"/>
<path d="M32.7719 39.7566C32.4927 39.4773 32.3359 39.0987 32.3359 38.7038C32.3359 38.309 32.4927 37.9303 32.7719 37.6511L34.7492 35.6738C34.8875 35.5353 35.0516 35.4253 35.2324 35.3503C35.4131 35.2752 35.6068 35.2365 35.8025 35.2363C35.9982 35.2361 36.192 35.2745 36.3729 35.3492C36.5538 35.424 36.7181 35.5336 36.8566 35.6718C36.9952 35.8101 37.1051 35.9742 37.1801 36.155C37.2552 36.3357 37.2939 36.5294 37.2941 36.7251C37.2943 36.9208 37.2559 37.1146 37.1812 37.2955C37.1065 37.4764 36.9968 37.6407 36.8586 37.7792L34.8813 39.7566C34.743 39.8955 34.5786 40.0057 34.3976 40.0809C34.2166 40.1561 34.0226 40.1948 33.8266 40.1948C33.6306 40.1948 33.4365 40.1561 33.2555 40.0809C33.0745 40.0057 32.9102 39.8955 32.7719 39.7566Z" fill="url(#paint5_linear_6007_13871)"/>
<defs>
<linearGradient id="paint0_linear_6007_13871" x1="5.22159" y1="30.1143" x2="5.22159" y2="40.4718" gradientUnits="userSpaceOnUse">
<stop stop-color="#6346E4"/>
<stop offset="1" stop-color="#6C3E9D"/>
</linearGradient>
<linearGradient id="paint1_linear_6007_13871" x1="20.8382" y1="0.474609" x2="20.8382" y2="38.7987" gradientUnits="userSpaceOnUse">
<stop stop-color="#6346E4"/>
<stop offset="1" stop-color="#6C3E9D"/>
</linearGradient>
<linearGradient id="paint2_linear_6007_13871" x1="9.16531" y1="2.06152" x2="9.16531" y2="8.89997" gradientUnits="userSpaceOnUse">
<stop stop-color="#6346E4"/>
<stop offset="1" stop-color="#6C3E9D"/>
</linearGradient>
<linearGradient id="paint3_linear_6007_13871" x1="2.62394" y1="3.07812" x2="2.62394" y2="8.01506" gradientUnits="userSpaceOnUse">
<stop stop-color="#6346E4"/>
<stop offset="1" stop-color="#6C3E9D"/>
</linearGradient>
<linearGradient id="paint4_linear_6007_13871" x1="34.8703" y1="27.7715" x2="34.8703" y2="34.6066" gradientUnits="userSpaceOnUse">
<stop stop-color="#6346E4"/>
<stop offset="1" stop-color="#6C3E9D"/>
</linearGradient>
<linearGradient id="paint5_linear_6007_13871" x1="34.815" y1="35.2363" x2="34.815" y2="40.1948" gradientUnits="userSpaceOnUse">
<stop stop-color="#6346E4"/>
<stop offset="1" stop-color="#6C3E9D"/>
</linearGradient>
</defs>
</svg>
