<svg width="40" height="41" viewBox="0 0 40 41" fill="none" xmlns="http://www.w3.org/2000/svg">
<g clip-path="url(#clip0_6007_13879)">
<path d="M39.5586 8.56914L39.5523 8.50977C39.3498 6.56536 38.4844 4.74985 37.1015 3.36807C35.7186 1.9863 33.9024 1.12242 31.9578 0.921484C29.107 0.624609 24.4094 0.474609 20 0.474609C15.5906 0.474609 10.893 0.624609 8.04219 0.921484C6.09762 1.12242 4.28139 1.9863 2.89848 3.36807C1.51557 4.74985 0.650192 6.56536 0.447656 8.50977L0.441406 8.56914C0.194531 10.9332 0 11.3129 0 16.2988C0 21.2848 0.194531 22.0895 0.441406 24.4543L0.447656 24.5129C0.650192 26.4573 1.51557 28.2728 2.89848 29.6546C4.28139 31.0364 6.09762 31.9002 8.04219 32.1012C9.61484 32.2652 11.75 32.384 14.0883 32.4582L18.6258 39.6637C18.7823 39.912 18.9992 40.1167 19.2563 40.2585C19.5133 40.4004 19.8021 40.4748 20.0957 40.4748C20.3893 40.4748 20.6781 40.4004 20.9351 40.2585C21.1922 40.1167 21.4091 39.912 21.5656 39.6637L26.107 32.452C28.3688 32.3738 30.4289 32.2605 31.957 32.1012C33.9017 31.9004 35.7182 31.0366 37.1012 29.6548C38.4843 28.273 39.3498 26.4574 39.5523 24.5129L39.5586 24.4535C39.8055 22.0895 40 21.2848 40 16.2988C40 11.3129 39.8055 10.934 39.5586 8.56914ZM19.9953 28.3699C19.4711 28.369 18.9589 28.2127 18.5235 27.9208C18.088 27.6289 17.7489 27.2144 17.5489 26.7298C17.349 26.2452 17.2971 25.7122 17.4 25.1982C17.5028 24.6842 17.7557 24.2121 18.1267 23.8418C18.4977 23.4714 18.9702 23.2193 19.4844 23.1174C19.9987 23.0155 20.5316 23.0683 21.0158 23.2691C21.5 23.4699 21.9139 23.8098 22.205 24.2457C22.4962 24.6817 22.6516 25.1941 22.6516 25.7184C22.6503 26.422 22.3699 27.0965 21.8719 27.5936C21.3739 28.0907 20.699 28.3699 19.9953 28.3699ZM22.5672 19.2379C22.5228 19.6479 22.3376 20.0298 22.043 20.3184C21.7447 20.6094 21.3567 20.7909 20.9422 20.8332H20.9297C20.6704 20.8633 20.4095 20.8784 20.1484 20.8785C19.8354 20.88 19.5224 20.8649 19.2109 20.8332H19.1977C18.7822 20.7916 18.3933 20.61 18.0945 20.3184C17.7998 20.0302 17.6145 19.6485 17.5703 19.2387C17.5063 18.6402 17.4742 14.4848 17.4742 13.559C17.4742 12.6332 17.5063 8.46602 17.5703 7.86836C17.6147 7.45836 17.7999 7.07647 18.0945 6.78789C18.3925 6.4971 18.7803 6.31589 19.1945 6.27383H19.2078C19.5193 6.24278 19.8325 6.23339 20.1453 6.2457C20.4061 6.23333 20.6674 6.24274 20.9266 6.27383H20.9391C21.3535 6.31584 21.7416 6.49704 22.0398 6.78789C22.3342 7.07666 22.5194 7.45845 22.5641 7.86836C22.6273 8.46602 22.6602 12.634 22.6602 13.559C22.6602 14.484 22.6305 18.6395 22.5672 19.2379Z" fill="url(#paint0_linear_6007_13879)"/>
</g>
<defs>
<linearGradient id="paint0_linear_6007_13879" x1="20" y1="0.474609" x2="20" y2="40.4748" gradientUnits="userSpaceOnUse">
<stop stop-color="#6346E4"/>
<stop offset="1" stop-color="#6C3E9D"/>
</linearGradient>
<clipPath id="clip0_6007_13879">
<rect width="40" height="40" fill="white" transform="translate(0 0.474609)"/>
</clipPath>
</defs>
</svg>
