<svg width="40" height="41" viewBox="0 0 40 41" fill="none" xmlns="http://www.w3.org/2000/svg">
<path d="M10.0768 10.2438L13.1537 12.5515C13.3535 12.7013 13.5963 12.7823 13.846 12.7823H26.1537C26.4034 12.7823 26.6462 12.7013 26.846 12.5515L29.9229 10.2438C30.2135 10.0259 30.3845 9.68399 30.3845 9.32076V3.93615C30.3845 3.57292 30.2135 3.23099 29.9229 3.01307L26.846 0.705379C26.6462 0.555609 26.4034 0.474609 26.1537 0.474609H13.846C13.5963 0.474609 13.3535 0.555609 13.1537 0.705379L10.0768 3.01307C9.78623 3.23099 9.61523 3.57292 9.61523 3.93615V9.32076C9.61523 9.68399 9.78623 10.0259 10.0768 10.2438ZM15.3845 5.47461H24.6152C25.2525 5.47461 25.7691 5.99122 25.7691 6.62846C25.7691 7.26569 25.2525 7.7823 24.6152 7.7823H15.3845C14.7472 7.7823 14.2306 7.26569 14.2306 6.62846C14.2306 5.99122 14.7472 5.47461 15.3845 5.47461Z" fill="url(#paint0_linear_6007_13897)"/>
<path d="M23.0768 29.3207H16.5383C16.3489 29.3207 16.1625 29.2741 15.9953 29.1849L9.61523 25.7822V35.0899C9.61523 35.4133 9.751 35.7219 9.98939 35.9405L14.6048 40.1713C14.8175 40.3663 15.0958 40.4745 15.3845 40.4745H24.6152C24.9039 40.4745 25.1822 40.3663 25.3949 40.1713L30.0103 35.9405C30.2488 35.7219 30.3845 35.4133 30.3845 35.0899V25.803L23.5928 29.1988C23.4325 29.279 23.2559 29.3207 23.0768 29.3207ZM21.5383 34.7053H18.4614C17.8242 34.7053 17.3075 34.1887 17.3075 33.5515C17.3075 32.9142 17.8242 32.3976 18.4614 32.3976H21.5383C22.1755 32.3976 22.6922 32.9142 22.6922 33.5515C22.6922 34.1887 22.1755 34.7053 21.5383 34.7053Z" fill="url(#paint1_linear_6007_13897)"/>
<path d="M39.4186 10.3224C39.7782 10.117 40 9.73469 40 9.32061V6.24369C40 5.60646 39.4834 5.08984 38.8462 5.08984C38.2089 5.08984 37.6923 5.60646 37.6923 6.24369V8.651L36.1538 9.53015L34.6154 8.651V6.24369C34.6154 5.60646 34.0988 5.08984 33.4615 5.08984C32.8243 5.08984 32.3077 5.60646 32.3077 6.24369V9.32061C32.3077 9.73469 32.5295 10.117 32.8891 10.3224L35 11.5287V14.8823C33.4412 15.3736 32.3077 16.8325 32.3077 18.5514C32.3077 18.7585 32.3247 18.9618 32.3564 19.1602L30.3846 20.146V19.7052C30.3846 19.342 30.2136 19.0001 29.9231 18.7822L26.8462 16.4745C26.6465 16.3247 26.4035 16.2437 26.1538 16.2437H24.2308V15.0898H15.7692V16.2437H13.8462C13.5965 16.2437 13.3535 16.3247 13.1538 16.4745L10.0769 18.7822C9.78638 19.0001 9.61539 19.342 9.61539 19.7052V20.146L7.64362 19.1602C7.67531 18.9618 7.69231 18.7585 7.69231 18.5514C7.69231 16.8325 6.55877 15.3735 5 14.8823V11.5287L7.11092 10.3225C7.47046 10.117 7.69231 9.73469 7.69231 9.32061V6.24369C7.69231 5.60646 7.17569 5.08984 6.53846 5.08984C5.90123 5.08984 5.38462 5.60646 5.38462 6.24369V8.651L3.84615 9.53015L2.30769 8.651V6.24369C2.30769 5.60646 1.79108 5.08984 1.15385 5.08984C0.516615 5.08984 0 5.60646 0 6.24369V9.32061C0 9.73469 0.221846 10.117 0.581385 10.3224L2.69231 11.5287V14.8823C1.13354 15.3735 0 16.8325 0 18.5514C0 20.6722 1.72538 22.3975 3.84615 22.3975C4.92977 22.3975 5.90946 21.9464 6.60923 21.2229L9.61539 22.726V23.1668L16.8269 27.0129H22.8045L30.2532 23.2886C30.2963 23.267 30.3403 23.2494 30.3846 23.2336V22.726L33.3908 21.2229C34.0905 21.9464 35.0702 22.3975 36.1538 22.3975C38.2746 22.3975 40 20.6722 40 18.5514C40 16.8325 38.8665 15.3735 37.3077 14.8823V11.5287L39.4186 10.3224Z" fill="url(#paint2_linear_6007_13897)"/>
<defs>
<linearGradient id="paint0_linear_6007_13897" x1="19.9999" y1="0.474609" x2="19.9999" y2="12.7823" gradientUnits="userSpaceOnUse">
<stop stop-color="#6346E4"/>
<stop offset="1" stop-color="#6C3E9D"/>
</linearGradient>
<linearGradient id="paint1_linear_6007_13897" x1="19.9999" y1="25.7822" x2="19.9999" y2="40.4745" gradientUnits="userSpaceOnUse">
<stop stop-color="#6346E4"/>
<stop offset="1" stop-color="#6C3E9D"/>
</linearGradient>
<linearGradient id="paint2_linear_6007_13897" x1="20" y1="5.08984" x2="20" y2="27.0129" gradientUnits="userSpaceOnUse">
<stop stop-color="#6346E4"/>
<stop offset="1" stop-color="#6C3E9D"/>
</linearGradient>
</defs>
</svg>
