<svg width="40" height="41" viewBox="0 0 40 41" fill="none" xmlns="http://www.w3.org/2000/svg">
<g clip-path="url(#clip0_6007_13882)">
<path d="M36.319 16.792H3.68102C1.65133 16.792 0 18.4432 0 20.4755C0 22.5052 1.65133 24.1565 3.68102 24.1565H36.319C38.3487 24.1565 40 22.5052 40 20.473C40 18.4432 38.3487 16.792 36.319 16.792Z" fill="url(#paint0_linear_6007_13882)"/>
<path d="M36.319 30.5996H3.68102C1.65133 30.5996 0 32.2509 0 34.2832C0 36.3129 1.65133 37.9642 3.68102 37.9642H36.319C38.3487 37.9642 40 36.3129 40 34.2807C40 32.2509 38.3487 30.5996 36.319 30.5996Z" fill="url(#paint1_linear_6007_13882)"/>
<path d="M36.319 2.98535H3.68102C1.65133 2.98535 0 4.63668 0 6.66895C0 8.69863 1.65133 10.35 3.68102 10.35H36.319C38.3487 10.35 40 8.69863 40 6.66645C40 4.63668 38.3487 2.98535 36.319 2.98535Z" fill="url(#paint2_linear_6007_13882)"/>
<path d="M19.8651 12.3849C23.0254 11.0749 24.5253 7.45117 23.2154 4.29095C21.9055 1.13073 18.2817 -0.369236 15.1215 0.940683C11.9613 2.2506 10.4613 5.87437 11.7712 9.03459C13.0811 12.1948 16.7049 13.6948 19.8651 12.3849Z" fill="url(#paint3_linear_6007_13882)"/>
<path d="M29.913 26.1905C33.0732 24.8806 34.5732 21.2568 33.2633 18.0966C31.9533 14.9364 28.3296 13.4364 25.1694 14.7463C22.0091 16.0563 20.5092 19.68 21.8191 22.8403C23.129 26.0005 26.7528 27.5004 29.913 26.1905Z" fill="url(#paint4_linear_6007_13882)"/>
<path d="M14.8524 40.004C18.0127 38.6941 19.5126 35.0703 18.2027 31.9101C16.8928 28.7499 13.269 27.2499 10.1088 28.5598C6.94858 29.8697 5.44862 33.4935 6.75854 36.6537C8.06845 39.8139 11.6922 41.3139 14.8524 40.004Z" fill="url(#paint5_linear_6007_13882)"/>
</g>
<defs>
<linearGradient id="paint0_linear_6007_13882" x1="20" y1="16.792" x2="20" y2="24.1565" gradientUnits="userSpaceOnUse">
<stop stop-color="#6346E4"/>
<stop offset="1" stop-color="#6C3E9D"/>
</linearGradient>
<linearGradient id="paint1_linear_6007_13882" x1="20" y1="30.5996" x2="20" y2="37.9642" gradientUnits="userSpaceOnUse">
<stop stop-color="#6346E4"/>
<stop offset="1" stop-color="#6C3E9D"/>
</linearGradient>
<linearGradient id="paint2_linear_6007_13882" x1="20" y1="2.98535" x2="20" y2="10.35" gradientUnits="userSpaceOnUse">
<stop stop-color="#6346E4"/>
<stop offset="1" stop-color="#6C3E9D"/>
</linearGradient>
<linearGradient id="paint3_linear_6007_13882" x1="15.1215" y1="0.940683" x2="19.8651" y2="12.3849" gradientUnits="userSpaceOnUse">
<stop stop-color="#6346E4"/>
<stop offset="1" stop-color="#6C3E9D"/>
</linearGradient>
<linearGradient id="paint4_linear_6007_13882" x1="25.1694" y1="14.7463" x2="29.913" y2="26.1905" gradientUnits="userSpaceOnUse">
<stop stop-color="#6346E4"/>
<stop offset="1" stop-color="#6C3E9D"/>
</linearGradient>
<linearGradient id="paint5_linear_6007_13882" x1="10.1088" y1="28.5598" x2="14.8524" y2="40.004" gradientUnits="userSpaceOnUse">
<stop stop-color="#6346E4"/>
<stop offset="1" stop-color="#6C3E9D"/>
</linearGradient>
<clipPath id="clip0_6007_13882">
<rect width="40" height="40" fill="white" transform="translate(0 0.474609)"/>
</clipPath>
</defs>
</svg>
