<svg width="1365" height="652" viewBox="0 0 1365 652" fill="none" xmlns="http://www.w3.org/2000/svg">
<path d="M1246.2 580.008H1212V585.278H1246.2V580.008Z" fill="#9883F3"/>
<path d="M899.409 191.848H878.315V202.398H899.409V191.848Z" fill="#9883F3"/>
<path d="M240.084 181.297H218.99V191.848H240.084V181.297Z" fill="#FF00FF"/>
<path d="M538.65 613.648H517.556V624.199H538.65V613.648Z" fill="#FF00FF"/>
<path d="M1235.66 251.969H1201.46V257.239H1235.66V251.969Z" fill="#322197"/>
<path d="M1099.78 160.789H1065.58V166.059H1099.78V160.789Z" fill="#FFA936"/>
<path d="M414.973 320.5H380.769V325.77H414.973V320.5Z" fill="#322197"/>
<path d="M534.652 146.812H500.447V152.082H534.652V146.812Z" fill="#322197"/>
<path d="M1373.19 583.621H1352.1V594.172H1373.19V583.621Z" fill="#322197"/>
<path d="M713.869 573.07H692.775V583.621H713.869V573.07Z" fill="#9883F3"/>
<path d="M1008.44 538.586H974.232V543.856H1008.44V538.586Z" fill="#322197"/>
<path d="M1288.51 165.289H1289.75L1293.13 181.296H1292.05L1291.21 176.872H1287.06L1286.22 181.296H1285.15L1288.51 165.289ZM1291.08 176.081L1289.15 166.596L1287.23 176.081H1291.08Z" fill="#FC00B6"/>
<path d="M1296.06 179.242H1297.22V181.295H1296.06V179.242Z" fill="#FC00B6"/>
<path d="M1302.52 166.727C1302.31 167.035 1301.96 167.298 1301.49 167.54C1301.01 167.781 1300.59 167.946 1300.24 168.056V167.145C1300.62 167.035 1301.05 166.815 1301.52 166.475C1302 166.134 1302.39 165.739 1302.69 165.289H1303.6V181.296H1302.53V166.727H1302.52Z" fill="#FC00B6"/>
<path d="M1310.43 166.727C1310.22 167.035 1309.87 167.298 1309.4 167.54C1308.91 167.781 1308.5 167.946 1308.15 168.056V167.145C1308.53 167.035 1308.96 166.815 1309.43 166.475C1309.9 166.134 1310.3 165.739 1310.59 165.289H1311.51V181.296H1310.44V166.727H1310.43Z" fill="#FC00B6"/>
<path d="M1318.33 166.727C1318.13 167.035 1317.77 167.298 1317.3 167.54C1316.82 167.781 1316.4 167.946 1316.05 168.056V167.145C1316.44 167.035 1316.86 166.815 1317.34 166.475C1317.81 166.134 1318.2 165.739 1318.5 165.289H1319.41V181.296H1318.35V166.727H1318.33Z" fill="#FC00B6"/>
<path d="M1326.24 166.727C1326.03 167.035 1325.68 167.298 1325.21 167.54C1324.73 167.781 1324.31 167.946 1323.96 168.056V167.145C1324.34 167.035 1324.77 166.815 1325.24 166.475C1325.71 166.134 1326.11 165.739 1326.41 165.289H1327.32V181.296H1326.25V166.727H1326.24Z" fill="#FC00B6"/>
<path d="M1334.15 166.727C1333.94 167.035 1333.59 167.298 1333.12 167.54C1332.63 167.781 1332.21 167.946 1331.86 168.056V167.145C1332.25 167.035 1332.68 166.815 1333.15 166.475C1333.62 166.134 1334.02 165.739 1334.31 165.289H1335.22V181.296H1334.16V166.727H1334.15Z" fill="#FC00B6"/>
<path d="M1342.05 166.727C1341.84 167.035 1341.49 167.298 1341.02 167.54C1340.54 167.781 1340.12 167.946 1339.77 168.056V167.145C1340.15 167.035 1340.58 166.815 1341.05 166.475C1341.53 166.134 1341.92 165.739 1342.22 165.289H1343.13V181.296H1342.06V166.727H1342.05Z" fill="#FC00B6"/>
<path d="M1348.88 180.275C1348.33 179.451 1348.05 178.287 1348.05 176.783V169.79C1348.05 168.296 1348.33 167.144 1348.91 166.331C1349.48 165.519 1350.43 165.102 1351.76 165.102C1353.09 165.102 1354.07 165.508 1354.64 166.331C1355.21 167.144 1355.49 168.296 1355.49 169.79V176.783C1355.49 178.298 1355.22 179.462 1354.66 180.285C1354.11 181.098 1353.13 181.515 1351.75 181.515C1350.37 181.515 1349.42 181.098 1348.86 180.285L1348.88 180.275ZM1353.81 179.726C1354.22 179.078 1354.42 178.156 1354.42 176.97V169.636C1354.42 168.45 1354.22 167.539 1353.81 166.891C1353.41 166.243 1352.73 165.925 1351.77 165.925C1350.82 165.925 1350.15 166.254 1349.74 166.902C1349.33 167.55 1349.12 168.472 1349.12 169.636V176.97C1349.12 178.145 1349.33 179.056 1349.74 179.715C1350.15 180.373 1350.83 180.703 1351.77 180.703C1352.72 180.703 1353.42 180.373 1353.81 179.726Z" fill="#FC00B6"/>
<path d="M1361.16 166.727C1360.95 167.035 1360.6 167.298 1360.13 167.54C1359.64 167.781 1359.23 167.946 1358.88 168.056V167.145C1359.26 167.035 1359.69 166.815 1360.16 166.475C1360.63 166.134 1361.03 165.739 1361.32 165.289H1362.24V181.296H1361.17V166.727H1361.16Z" fill="#FC00B6"/>
<path d="M929.464 461.974C928.915 461.15 928.63 459.987 928.63 458.482V451.489C928.63 449.996 928.915 448.843 929.486 448.03C930.057 447.218 931.013 446.801 932.341 446.801C933.67 446.801 934.647 447.207 935.218 448.03C935.789 448.843 936.075 449.996 936.075 451.489V458.482C936.075 459.998 935.8 461.161 935.24 461.985C934.691 462.797 933.714 463.214 932.33 463.214C930.947 463.214 930.002 462.797 929.442 461.985L929.464 461.974ZM934.395 461.425C934.801 460.777 934.999 459.855 934.999 458.669V451.335C934.999 450.149 934.801 449.238 934.395 448.59C933.988 447.943 933.308 447.624 932.352 447.624C931.397 447.624 930.727 447.954 930.321 448.601C929.915 449.249 929.706 450.171 929.706 451.335V458.669C929.706 459.844 929.915 460.755 930.321 461.414C930.727 462.073 931.408 462.402 932.352 462.402C933.297 462.402 933.999 462.073 934.395 461.425Z" fill="#FC00B6"/>
<path d="M940.675 461.974C940.126 461.15 939.841 459.987 939.841 458.482V451.489C939.841 449.996 940.126 448.843 940.697 448.03C941.268 447.218 942.224 446.801 943.552 446.801C944.881 446.801 945.858 447.207 946.429 448.03C947 448.843 947.286 449.996 947.286 451.489V458.482C947.286 459.998 947.011 461.161 946.451 461.985C945.902 462.797 944.925 463.214 943.541 463.214C942.158 463.214 941.213 462.797 940.653 461.985L940.675 461.974ZM945.606 461.425C946.012 460.777 946.21 459.855 946.21 458.669V451.335C946.21 450.149 946.012 449.238 945.606 448.59C945.199 447.943 944.519 447.624 943.563 447.624C942.608 447.624 941.938 447.954 941.532 448.601C941.126 449.249 940.917 450.171 940.917 451.335V458.669C940.917 459.844 941.126 460.755 941.532 461.414C941.938 462.073 942.619 462.402 943.563 462.402C944.508 462.402 945.21 462.073 945.606 461.425Z" fill="#FC00B6"/>
<path d="M950.976 460.941H952.14V462.994H950.976V460.941Z" fill="#FC00B6"/>
<path d="M957.432 448.427C957.224 448.734 956.872 448.997 956.4 449.239C955.917 449.48 955.5 449.645 955.148 449.755V448.844C955.533 448.734 955.961 448.514 956.433 448.174C956.905 447.834 957.301 447.438 957.597 446.988H958.509V462.996H957.443V448.427H957.432Z" fill="#FC00B6"/>
<path d="M964.273 461.974C963.724 461.15 963.438 459.987 963.438 458.482V451.489C963.438 449.996 963.724 448.843 964.295 448.03C964.866 447.218 965.821 446.801 967.15 446.801C968.479 446.801 969.456 447.207 970.027 448.03C970.598 448.843 970.883 449.996 970.883 451.489V458.482C970.883 459.998 970.609 461.161 970.049 461.985C969.5 462.797 968.523 463.214 967.139 463.214C965.755 463.214 964.811 462.797 964.251 461.985L964.273 461.974ZM969.203 461.425C969.61 460.777 969.807 459.855 969.807 458.669V451.335C969.807 450.149 969.61 449.238 969.203 448.59C968.797 447.943 968.116 447.624 967.161 447.624C966.206 447.624 965.536 447.954 965.129 448.601C964.723 449.249 964.515 450.171 964.515 451.335V458.669C964.515 459.844 964.723 460.755 965.129 461.414C965.536 462.073 966.217 462.402 967.161 462.402C968.105 462.402 968.808 462.073 969.203 461.425Z" fill="#FC00B6"/>
<path d="M975.485 461.974C974.936 461.15 974.65 459.987 974.65 458.482V451.489C974.65 449.996 974.936 448.843 975.507 448.03C976.078 447.218 977.033 446.801 978.362 446.801C979.691 446.801 980.668 447.207 981.239 448.03C981.81 448.843 982.095 449.996 982.095 451.489V458.482C982.095 459.998 981.821 461.161 981.261 461.985C980.712 462.797 979.734 463.214 978.351 463.214C976.967 463.214 976.023 462.797 975.463 461.985L975.485 461.974ZM980.415 461.425C980.822 460.777 981.019 459.855 981.019 458.669V451.335C981.019 450.149 980.822 449.238 980.415 448.59C980.009 447.943 979.328 447.624 978.373 447.624C977.418 447.624 976.748 447.954 976.341 448.601C975.935 449.249 975.727 450.171 975.727 451.335V458.669C975.727 459.844 975.935 460.755 976.341 461.414C976.748 462.073 977.429 462.402 978.373 462.402C979.317 462.402 980.02 462.073 980.415 461.425Z" fill="#FC00B6"/>
<path d="M1061.9 276.165C1061.35 275.342 1061.07 274.178 1061.07 272.674V265.68C1061.07 264.187 1061.35 263.034 1061.92 262.222C1062.49 261.409 1063.45 260.992 1064.78 260.992C1066.11 260.992 1067.08 261.398 1067.66 262.222C1068.23 263.034 1068.51 264.187 1068.51 265.68V272.674C1068.51 274.189 1068.24 275.353 1067.68 276.176C1067.13 276.989 1066.15 277.406 1064.77 277.406C1063.38 277.406 1062.44 276.989 1061.88 276.176L1061.9 276.165ZM1066.83 275.616C1067.24 274.968 1067.44 274.046 1067.44 272.86V265.526C1067.44 264.341 1067.24 263.43 1066.83 262.782C1066.43 262.134 1065.75 261.816 1064.79 261.816C1063.83 261.816 1063.16 262.145 1062.76 262.793C1062.35 263.44 1062.14 264.363 1062.14 265.526V272.86C1062.14 274.035 1062.35 274.946 1062.76 275.605C1063.16 276.264 1063.85 276.593 1064.79 276.593C1065.73 276.593 1066.44 276.264 1066.83 275.616Z" fill="#FC00B6"/>
<path d="M1073.1 276.165C1072.55 275.342 1072.27 274.178 1072.27 272.674V265.68C1072.27 264.187 1072.55 263.034 1073.12 262.222C1073.7 261.409 1074.65 260.992 1075.98 260.992C1077.31 260.992 1078.29 261.398 1078.86 262.222C1079.43 263.034 1079.71 264.187 1079.71 265.68V272.674C1079.71 274.189 1079.44 275.353 1078.88 276.176C1078.33 276.989 1077.35 277.406 1075.97 277.406C1074.58 277.406 1073.64 276.989 1073.08 276.176L1073.1 276.165ZM1078.03 275.616C1078.44 274.968 1078.64 274.046 1078.64 272.86V265.526C1078.64 264.341 1078.44 263.43 1078.03 262.782C1077.63 262.134 1076.95 261.816 1075.99 261.816C1075.03 261.816 1074.36 262.145 1073.96 262.793C1073.55 263.44 1073.34 264.363 1073.34 265.526V272.86C1073.34 274.035 1073.55 274.946 1073.96 275.605C1074.36 276.264 1075.05 276.593 1075.99 276.593C1076.93 276.593 1077.64 276.264 1078.03 275.616Z" fill="#FC00B6"/>
<path d="M1083.4 275.123H1084.57V277.176H1083.4V275.123Z" fill="#FC00B6"/>
<path d="M1089.87 262.618C1089.66 262.925 1089.31 263.189 1088.84 263.43C1088.35 263.672 1087.94 263.837 1087.59 263.946V263.035C1087.97 262.925 1088.4 262.706 1088.87 262.365C1089.34 262.025 1089.74 261.63 1090.03 261.18H1090.95V277.187H1089.88V262.618H1089.87Z" fill="#FC00B6"/>
<path d="M780.335 280.962C780.126 281.269 779.775 281.533 779.303 281.774C778.819 282.016 778.402 282.18 778.051 282.29V281.379C778.435 281.269 778.863 281.05 779.336 280.709C779.808 280.369 780.203 279.974 780.499 279.523H781.411V295.531H780.346V280.962H780.335Z" fill="#FC00B6"/>
<path d="M786.265 293.467H787.429V295.52H786.265V293.467Z" fill="#FC00B6"/>
<path d="M793.446 279.523H794.687L798.069 295.531H796.982L796.147 291.106H791.997L791.151 295.531H790.086L793.446 279.523ZM796.015 290.316L794.083 280.83L792.161 290.316H796.015Z" fill="#FC00B6"/>
<path d="M803.679 279.523H804.92L808.302 295.531H807.215L806.381 291.106H802.23L801.384 295.531H800.319L803.679 279.523ZM806.249 290.316L804.316 280.83L802.395 290.316H806.249Z" fill="#FC00B6"/>
<path d="M414.952 227.848H419.026V228.715H414.952V227.848Z" fill="#FC00B6"/>
<path opacity="0.2" d="M-113.23 468.332C-62.6643 468.332 -62.6643 480.013 -12.0872 480.013C38.4899 480.013 38.479 480.705 89.0451 480.705C139.611 480.705 139.622 459.955 190.188 459.955C240.754 459.955 240.755 347.728 291.321 347.728C341.887 347.728 341.898 547.523 392.464 547.523C443.03 547.523 443.03 449.7 493.596 449.7C544.162 449.7 544.173 430.29 594.739 430.29C645.306 430.29 645.306 438.59 695.872 438.59C746.438 438.59 746.449 325.342 797.015 325.342C847.581 325.342 847.57 541.386 898.136 541.386C948.703 541.386 948.691 289.715 999.247 289.715C1049.8 289.715 1049.81 427.424 1100.38 427.424C1150.95 427.424 1150.95 389.217 1201.51 389.217C1252.08 389.217 1252.07 437.689 1302.62 437.689C1353.18 437.689 1353.19 480.2 1403.75 480.2C1454.32 480.2 1454.32 455.19 1504.88 455.179C1543.6 455.179 1562.25 495.011 1597.5 505.671C1656.78 523.6 1728.8 520.163 1789.82 513.653" stroke="#FD01BA" stroke-miterlimit="10"/>
<path d="M1728.95 251.2C1678.97 246.325 1625.08 261.235 1580.3 238.508C1555.34 225.839 1530.64 202.728 1502.87 219.625C1484.44 230.834 1474.29 253.978 1465.37 272.554C1450.11 304.294 1433.32 365.425 1389.07 365.425C1320.22 365.425 1320.22 298.948 1251.39 298.948C1182.55 298.948 1182.55 644.818 1113.71 644.818C1044.87 644.818 1044.87 651.603 976.044 651.603C907.206 651.603 907.206 201.213 838.379 201.213C769.541 201.213 769.541 244.58 700.692 244.58C631.843 244.58 631.854 389.206 563.016 389.206C509.397 389.206 493.892 491.87 476.872 527.969C464.486 554.231 444.633 587.376 413.47 592.789C365.078 601.188 343.094 553.671 308.538 534.337C289.19 523.511 265.362 533.063 244.696 541.122C123.283 588.441 -11.9117 578.242 -141.77 567.329" stroke="#9883F3" stroke-width="5" stroke-miterlimit="10"/>
</svg>
