<svg width="1918" height="957" viewBox="0 0 1918 957" fill="none" xmlns="http://www.w3.org/2000/svg">
<g clip-path="url(#clip0_6006_10232)">
<path d="M1482.15 630.765H1444.92V636.501H1482.15V630.765Z" fill="#9883F3"/>
<path d="M1104.66 208.273H1081.7V219.757H1104.66V208.273Z" fill="#9883F3"/>
<path d="M711.973 667.38H689.012V678.864H711.973V667.38Z" fill="#FF00FF"/>
<path d="M1470.68 273.711H1433.44V279.447H1470.68V273.711Z" fill="#322197"/>
<path d="M1322.77 174.466H1285.54V180.202H1322.77V174.466Z" fill="#FFA936"/>
<path d="M577.351 348.303H540.118V354.039H577.351V348.303Z" fill="#322197"/>
<path d="M1620.38 634.697H1597.42V646.181H1620.38V634.697Z" fill="#322197"/>
<path d="M902.7 623.213H879.739V634.697H902.7V623.213Z" fill="#9883F3"/>
<path d="M1093.07 774.727H1055.84V780.463H1093.07V774.727Z" fill="#322197"/>
<path d="M1223.34 585.678H1186.11V591.414H1223.34V585.678Z" fill="#322197"/>
<path d="M851.281 800.001C851.054 800.335 850.671 800.622 850.157 800.885C849.632 801.148 849.177 801.327 848.795 801.447V800.455C849.213 800.335 849.679 800.096 850.193 799.726C850.707 799.355 851.138 798.925 851.46 798.435H852.452V815.858H851.293V800.001H851.281Z" fill="#FC00B6"/>
<path d="M858.728 814.747C858.13 813.851 857.819 812.584 857.819 810.947V803.335C857.819 801.709 858.13 800.455 858.752 799.57C859.373 798.686 860.413 798.232 861.859 798.232C863.306 798.232 864.369 798.674 864.991 799.57C865.612 800.455 865.923 801.709 865.923 803.335V810.947C865.923 812.596 865.624 813.863 865.015 814.759C864.417 815.643 863.353 816.097 861.847 816.097C860.341 816.097 859.313 815.643 858.704 814.759L858.728 814.747ZM864.094 814.149C864.537 813.444 864.752 812.441 864.752 811.15V803.167C864.752 801.877 864.537 800.885 864.094 800.18C863.652 799.475 862.911 799.128 861.871 799.128C860.831 799.128 860.102 799.487 859.66 800.192C859.218 800.897 858.991 801.901 858.991 803.167V811.15C858.991 812.429 859.218 813.42 859.66 814.137C860.102 814.854 860.843 815.213 861.871 815.213C862.899 815.213 863.664 814.854 864.094 814.149Z" fill="#FC00B6"/>
<path d="M869.939 813.612H871.206V815.847H869.939V813.612Z" fill="#FC00B6"/>
<path d="M876.968 800.001C876.741 800.335 876.358 800.622 875.844 800.885C875.318 801.148 874.864 801.327 874.481 801.447V800.455C874.9 800.335 875.366 800.096 875.88 799.726C876.394 799.355 876.824 798.925 877.147 798.435H878.139V815.858H876.979V800.001H876.968Z" fill="#FC00B6"/>
<path d="M885.573 800.001C885.346 800.335 884.963 800.622 884.449 800.885C883.924 801.148 883.469 801.327 883.087 801.447V800.455C883.505 800.335 883.971 800.096 884.485 799.726C884.999 799.355 885.43 798.925 885.752 798.435H886.744V815.858H885.585V800.001H885.573Z" fill="#FC00B6"/>
<path d="M893.02 814.747C892.422 813.851 892.111 812.584 892.111 810.947V803.335C892.111 801.709 892.422 800.455 893.044 799.57C893.665 798.686 894.705 798.232 896.151 798.232C897.598 798.232 898.661 798.674 899.283 799.57C899.904 800.455 900.215 801.709 900.215 803.335V810.947C900.215 812.596 899.916 813.863 899.307 814.759C898.709 815.643 897.645 816.097 896.139 816.097C894.633 816.097 893.605 815.643 892.996 814.759L893.02 814.747ZM898.386 814.149C898.829 813.444 899.044 812.441 899.044 811.15V803.167C899.044 801.877 898.829 800.885 898.386 800.18C897.944 799.475 897.203 799.128 896.163 799.128C895.123 799.128 894.394 799.487 893.952 800.192C893.51 800.897 893.283 801.901 893.283 803.167V811.15C893.283 812.429 893.51 813.42 893.952 814.137C894.394 814.854 895.135 815.213 896.163 815.213C897.191 815.213 897.956 814.854 898.386 814.149Z" fill="#FC00B6"/>
<path d="M905.223 814.747C904.625 813.851 904.314 812.584 904.314 810.947V803.335C904.314 801.709 904.625 800.455 905.247 799.57C905.868 798.686 906.908 798.232 908.354 798.232C909.801 798.232 910.864 798.674 911.486 799.57C912.108 800.455 912.418 801.709 912.418 803.335V810.947C912.418 812.596 912.119 813.863 911.51 814.759C910.912 815.643 909.849 816.097 908.342 816.097C906.836 816.097 905.809 815.643 905.199 814.759L905.223 814.747ZM910.59 814.149C911.032 813.444 911.247 812.441 911.247 811.15V803.167C911.247 801.877 911.032 800.885 910.59 800.18C910.147 799.475 909.406 799.128 908.366 799.128C907.326 799.128 906.597 799.487 906.155 800.192C905.713 800.897 905.486 801.901 905.486 803.167V811.15C905.486 812.429 905.713 813.42 906.155 814.137C906.597 814.854 907.338 815.213 908.366 815.213C909.394 815.213 910.159 814.854 910.59 814.149Z" fill="#FC00B6"/>
<path d="M917.414 814.747C916.817 813.851 916.506 812.584 916.506 810.947V803.335C916.506 801.709 916.817 800.455 917.438 799.57C918.06 798.686 919.1 798.232 920.546 798.232C921.992 798.232 923.056 798.674 923.677 799.57C924.299 800.455 924.61 801.709 924.61 803.335V810.947C924.61 812.596 924.311 813.863 923.701 814.759C923.104 815.643 922.04 816.097 920.534 816.097C919.028 816.097 918 815.643 917.39 814.759L917.414 814.747ZM922.781 814.149C923.223 813.444 923.438 812.441 923.438 811.15V803.167C923.438 801.877 923.223 800.885 922.781 800.18C922.339 799.475 921.598 799.128 920.558 799.128C919.518 799.128 918.789 799.487 918.347 800.192C917.904 800.897 917.677 801.901 917.677 803.167V811.15C917.677 812.429 917.904 813.42 918.347 814.137C918.789 814.854 919.53 815.213 920.558 815.213C921.586 815.213 922.351 814.854 922.781 814.149Z" fill="#FC00B6"/>
<path d="M930.778 800.001C930.551 800.335 930.168 800.622 929.655 800.885C929.129 801.148 928.674 801.327 928.292 801.447V800.455C928.71 800.335 929.176 800.096 929.69 799.726C930.204 799.355 930.635 798.925 930.957 798.435H931.949V815.858H930.79V800.001H930.778Z" fill="#FC00B6"/>
<path d="M1528.2 179.366H1529.56L1533.24 196.789H1532.05L1531.14 191.973H1526.63L1525.71 196.789H1524.55L1528.2 179.366ZM1531 191.113L1528.9 180.788L1526.81 191.113H1531Z" fill="#FC00B6"/>
<path d="M1536.42 194.554H1537.68V196.789H1536.42V194.554Z" fill="#FC00B6"/>
<path d="M1543.46 180.931C1543.23 181.266 1542.85 181.553 1542.33 181.816C1541.81 182.078 1541.35 182.258 1540.97 182.377V181.385C1541.39 181.266 1541.85 181.027 1542.37 180.656C1542.88 180.286 1543.31 179.856 1543.64 179.366H1544.63V196.789H1543.47V180.931H1543.46Z" fill="#FC00B6"/>
<path d="M1552.06 180.931C1551.84 181.266 1551.45 181.553 1550.94 181.816C1550.41 182.078 1549.96 182.258 1549.58 182.377V181.385C1549.99 181.266 1550.46 181.027 1550.97 180.656C1551.49 180.286 1551.92 179.856 1552.24 179.366H1553.23V196.789H1552.07V180.931H1552.06Z" fill="#FC00B6"/>
<path d="M1560.67 180.931C1560.44 181.266 1560.06 181.553 1559.54 181.816C1559.02 182.078 1558.56 182.258 1558.18 182.377V181.385C1558.6 181.266 1559.07 181.027 1559.58 180.656C1560.09 180.286 1560.52 179.856 1560.85 179.366H1561.84V196.789H1560.68V180.931H1560.67Z" fill="#FC00B6"/>
<path d="M1569.27 180.931C1569.05 181.266 1568.66 181.553 1568.15 181.816C1567.62 182.078 1567.17 182.258 1566.79 182.377V181.385C1567.21 181.266 1567.67 181.027 1568.19 180.656C1568.7 180.286 1569.13 179.856 1569.45 179.366H1570.44V196.789H1569.29V180.931H1569.27Z" fill="#FC00B6"/>
<path d="M1577.88 180.931C1577.65 181.266 1577.27 181.553 1576.76 181.816C1576.23 182.078 1575.78 182.258 1575.39 182.377V181.385C1575.81 181.266 1576.28 181.027 1576.79 180.656C1577.31 180.286 1577.74 179.856 1578.06 179.366H1579.05V196.789H1577.89V180.931H1577.88Z" fill="#FC00B6"/>
<path d="M1586.49 180.931C1586.26 181.266 1585.88 181.553 1585.36 181.816C1584.84 182.078 1584.38 182.258 1584 182.377V181.385C1584.42 181.266 1584.88 181.027 1585.4 180.656C1585.91 180.286 1586.34 179.856 1586.66 179.366H1587.66V196.789H1586.5V180.931H1586.49Z" fill="#FC00B6"/>
<path d="M1593.92 195.678C1593.32 194.781 1593.01 193.515 1593.01 191.878V184.265C1593.01 182.64 1593.32 181.385 1593.94 180.501C1594.57 179.617 1595.61 179.163 1597.05 179.163C1598.5 179.163 1599.56 179.605 1600.18 180.501C1600.8 181.385 1601.12 182.64 1601.12 184.265V191.878C1601.12 193.527 1600.82 194.793 1600.21 195.69C1599.61 196.574 1598.55 197.028 1597.04 197.028C1595.53 197.028 1594.51 196.574 1593.9 195.69L1593.92 195.678ZM1599.29 195.08C1599.73 194.375 1599.94 193.371 1599.94 192.081V184.098C1599.94 182.807 1599.73 181.816 1599.29 181.111C1598.84 180.406 1598.1 180.059 1597.06 180.059C1596.02 180.059 1595.29 180.417 1594.85 181.123C1594.41 181.828 1594.18 182.831 1594.18 184.098V192.081C1594.18 193.359 1594.41 194.351 1594.85 195.068C1595.29 195.785 1596.04 196.144 1597.06 196.144C1598.09 196.144 1598.86 195.785 1599.29 195.08Z" fill="#FC00B6"/>
<path d="M1607.28 180.931C1607.06 181.266 1606.67 181.553 1606.16 181.816C1605.63 182.078 1605.18 182.258 1604.8 182.377V181.385C1605.22 181.266 1605.68 181.027 1606.2 180.656C1606.71 180.286 1607.14 179.856 1607.46 179.366H1608.45V196.789H1607.3V180.931H1607.28Z" fill="#FC00B6"/>
<path d="M1501.9 760.172H1503.25L1506.93 777.595H1505.75L1504.84 772.779H1500.32L1499.4 777.595H1498.24L1501.9 760.172ZM1504.69 771.919L1502.59 761.594L1500.5 771.919H1504.69Z" fill="#FC00B6"/>
<path d="M1513.04 760.172H1514.39L1518.07 777.595H1516.89L1515.98 772.779H1511.46L1510.54 777.595H1509.38L1513.04 760.172ZM1515.83 771.919L1513.73 761.594L1511.64 771.919H1515.83Z" fill="#FC00B6"/>
<path d="M1522.25 776.483C1521.65 775.587 1521.34 774.32 1521.34 772.683V765.071C1521.34 763.446 1521.65 762.191 1522.28 761.307C1522.9 760.423 1523.94 759.969 1525.38 759.969C1526.83 759.969 1527.89 760.411 1528.52 761.307C1529.14 762.191 1529.45 763.446 1529.45 765.071V772.683C1529.45 774.332 1529.15 775.599 1528.54 776.495C1527.94 777.38 1526.88 777.834 1525.37 777.834C1523.87 777.834 1522.84 777.38 1522.23 776.495L1522.25 776.483ZM1527.62 775.886C1528.06 775.181 1528.28 774.177 1528.28 772.886V764.904C1528.28 763.613 1528.06 762.621 1527.62 761.916C1527.18 761.211 1526.44 760.865 1525.4 760.865C1524.36 760.865 1523.63 761.223 1523.18 761.928C1522.74 762.633 1522.52 763.637 1522.52 764.904V772.886C1522.52 774.165 1522.74 775.157 1523.18 775.874C1523.63 776.591 1524.37 776.95 1525.4 776.95C1526.42 776.95 1527.19 776.591 1527.62 775.886Z" fill="#FC00B6"/>
<path d="M1533.45 775.36H1534.72V777.595H1533.45V775.36Z" fill="#FC00B6"/>
<path d="M1540.49 761.737C1540.26 762.072 1539.88 762.359 1539.37 762.621C1538.84 762.884 1538.39 763.064 1538.01 763.183V762.191C1538.42 762.072 1538.89 761.833 1539.4 761.462C1539.92 761.092 1540.35 760.662 1540.67 760.172H1541.66V777.595H1540.5V761.737H1540.49Z" fill="#FC00B6"/>
<path d="M1549.1 761.737C1548.87 762.072 1548.49 762.359 1547.97 762.621C1547.45 762.884 1546.99 763.064 1546.61 763.183V762.191C1547.03 762.072 1547.5 761.833 1548.01 761.462C1548.52 761.092 1548.95 760.662 1549.28 760.172H1550.27V777.595H1549.11V761.737H1549.1Z" fill="#FC00B6"/>
<path d="M1556.54 776.483C1555.95 775.587 1555.64 774.32 1555.64 772.683V765.071C1555.64 763.446 1555.95 762.191 1556.57 761.307C1557.19 760.423 1558.23 759.969 1559.68 759.969C1561.12 759.969 1562.19 760.411 1562.81 761.307C1563.43 762.191 1563.74 763.446 1563.74 765.071V772.683C1563.74 774.332 1563.44 775.599 1562.83 776.495C1562.23 777.38 1561.17 777.834 1559.66 777.834C1558.16 777.834 1557.13 777.38 1556.52 776.495L1556.54 776.483ZM1561.91 775.886C1562.35 775.181 1562.57 774.177 1562.57 772.886V764.904C1562.57 763.613 1562.35 762.621 1561.91 761.916C1561.47 761.211 1560.73 760.865 1559.69 760.865C1558.65 760.865 1557.92 761.223 1557.48 761.928C1557.03 762.633 1556.81 763.637 1556.81 764.904V772.886C1556.81 774.165 1557.03 775.157 1557.48 775.874C1557.92 776.591 1558.66 776.95 1559.69 776.95C1560.72 776.95 1561.48 776.591 1561.91 775.886Z" fill="#FC00B6"/>
<path d="M1569.9 761.737C1569.67 762.072 1569.29 762.359 1568.77 762.621C1568.25 762.884 1567.79 763.064 1567.41 763.183V762.191C1567.83 762.072 1568.29 761.833 1568.81 761.462C1569.32 761.092 1569.75 760.662 1570.07 760.172H1571.07V777.595H1569.91V761.737H1569.9Z" fill="#FC00B6"/>
<path d="M1578.5 761.737C1578.27 762.072 1577.89 762.359 1577.38 762.621C1576.85 762.884 1576.4 763.064 1576.01 763.183V762.191C1576.43 762.072 1576.9 761.833 1577.41 761.462C1577.93 761.092 1578.36 760.662 1578.68 760.172H1579.67V777.595H1578.51V761.737H1578.5Z" fill="#FC00B6"/>
<path d="M1587.11 761.737C1586.88 762.072 1586.5 762.359 1585.98 762.621C1585.46 762.884 1585 763.064 1584.62 763.183V762.191C1585.04 762.072 1585.5 761.833 1586.02 761.462C1586.53 761.092 1586.96 760.662 1587.29 760.172H1588.28V777.595H1587.12V761.737H1587.11Z" fill="#FC00B6"/>
<path d="M1595.71 761.737C1595.49 762.072 1595.1 762.359 1594.59 762.621C1594.06 762.884 1593.61 763.064 1593.23 763.183V762.191C1593.64 762.072 1594.11 761.833 1594.62 761.462C1595.14 761.092 1595.57 760.662 1595.89 760.172H1596.88V777.595H1595.72V761.737H1595.71Z" fill="#FC00B6"/>
<path d="M1137.38 502.291C1136.78 501.395 1136.47 500.128 1136.47 498.491V490.878C1136.47 489.253 1136.78 487.999 1137.4 487.114C1138.02 486.23 1139.06 485.776 1140.51 485.776C1141.96 485.776 1143.02 486.218 1143.64 487.114C1144.26 487.999 1144.57 489.253 1144.57 490.878V498.491C1144.57 500.14 1144.27 501.406 1143.67 502.303C1143.07 503.187 1142 503.641 1140.5 503.641C1138.99 503.641 1137.96 503.187 1137.35 502.303L1137.38 502.291ZM1142.74 501.693C1143.19 500.988 1143.4 499.984 1143.4 498.694V490.711C1143.4 489.421 1143.19 488.429 1142.74 487.724C1142.3 487.019 1141.56 486.672 1140.52 486.672C1139.48 486.672 1138.75 487.031 1138.31 487.736C1137.87 488.441 1137.64 489.445 1137.64 490.711V498.694C1137.64 499.972 1137.87 500.964 1138.31 501.681C1138.75 502.398 1139.49 502.757 1140.52 502.757C1141.55 502.757 1142.31 502.398 1142.74 501.693Z" fill="#FC00B6"/>
<path d="M1149.58 502.291C1148.98 501.395 1148.67 500.128 1148.67 498.491V490.878C1148.67 489.253 1148.98 487.999 1149.61 487.114C1150.23 486.23 1151.27 485.776 1152.71 485.776C1154.16 485.776 1155.22 486.218 1155.84 487.114C1156.47 487.999 1156.78 489.253 1156.78 490.878V498.491C1156.78 500.14 1156.48 501.406 1155.87 502.303C1155.27 503.187 1154.21 503.641 1152.7 503.641C1151.19 503.641 1150.17 503.187 1149.56 502.303L1149.58 502.291ZM1154.95 501.693C1155.39 500.988 1155.61 499.984 1155.61 498.694V490.711C1155.61 489.421 1155.39 488.429 1154.95 487.724C1154.51 487.019 1153.76 486.672 1152.72 486.672C1151.68 486.672 1150.96 487.031 1150.51 487.736C1150.07 488.441 1149.84 489.445 1149.84 490.711V498.694C1149.84 499.972 1150.07 500.964 1150.51 501.681C1150.96 502.398 1151.7 502.757 1152.72 502.757C1153.75 502.757 1154.52 502.398 1154.95 501.693Z" fill="#FC00B6"/>
<path d="M1160.79 501.167H1162.06V503.402H1160.79V501.167Z" fill="#FC00B6"/>
<path d="M1167.82 487.544C1167.59 487.879 1167.21 488.166 1166.7 488.429C1166.17 488.692 1165.72 488.871 1165.33 488.99V487.999C1165.75 487.879 1166.22 487.64 1166.73 487.27C1167.25 486.899 1167.68 486.469 1168 485.979H1168.99V503.402H1167.83V487.544H1167.82Z" fill="#FC00B6"/>
<path d="M1175.27 502.291C1174.67 501.395 1174.36 500.128 1174.36 498.491V490.878C1174.36 489.253 1174.67 487.999 1175.29 487.114C1175.91 486.23 1176.95 485.776 1178.4 485.776C1179.85 485.776 1180.91 486.218 1181.53 487.114C1182.15 487.999 1182.46 489.253 1182.46 490.878V498.491C1182.46 500.14 1182.16 501.406 1181.55 502.303C1180.96 503.187 1179.89 503.641 1178.39 503.641C1176.88 503.641 1175.85 503.187 1175.24 502.303L1175.27 502.291ZM1180.63 501.693C1181.08 500.988 1181.29 499.984 1181.29 498.694V490.711C1181.29 489.421 1181.08 488.429 1180.63 487.724C1180.19 487.019 1179.45 486.672 1178.41 486.672C1177.37 486.672 1176.64 487.031 1176.2 487.736C1175.76 488.441 1175.53 489.445 1175.53 490.711V498.694C1175.53 499.972 1175.76 500.964 1176.2 501.681C1176.64 502.398 1177.38 502.757 1178.41 502.757C1179.44 502.757 1180.2 502.398 1180.63 501.693Z" fill="#FC00B6"/>
<path d="M1187.47 502.291C1186.87 501.395 1186.56 500.128 1186.56 498.491V490.878C1186.56 489.253 1186.87 487.999 1187.5 487.114C1188.12 486.23 1189.16 485.776 1190.6 485.776C1192.05 485.776 1193.11 486.218 1193.74 487.114C1194.36 487.999 1194.67 489.253 1194.67 490.878V498.491C1194.67 500.14 1194.37 501.406 1193.76 502.303C1193.16 503.187 1192.1 503.641 1190.59 503.641C1189.09 503.641 1188.06 503.187 1187.45 502.303L1187.47 502.291ZM1192.84 501.693C1193.28 500.988 1193.5 499.984 1193.5 498.694V490.711C1193.5 489.421 1193.28 488.429 1192.84 487.724C1192.4 487.019 1191.66 486.672 1190.62 486.672C1189.58 486.672 1188.85 487.031 1188.4 487.736C1187.96 488.441 1187.73 489.445 1187.73 490.711V498.694C1187.73 499.972 1187.96 500.964 1188.4 501.681C1188.85 502.398 1189.59 502.757 1190.62 502.757C1191.64 502.757 1192.41 502.398 1192.84 501.693Z" fill="#FC00B6"/>
<path d="M1281.54 300.049C1280.94 299.153 1280.63 297.886 1280.63 296.249V288.637C1280.63 287.011 1280.94 285.757 1281.56 284.872C1282.18 283.988 1283.22 283.534 1284.67 283.534C1286.12 283.534 1287.18 283.976 1287.8 284.872C1288.42 285.757 1288.73 287.011 1288.73 288.637V296.249C1288.73 297.898 1288.43 299.165 1287.83 300.061C1287.23 300.945 1286.16 301.399 1284.66 301.399C1283.15 301.399 1282.12 300.945 1281.51 300.061L1281.54 300.049ZM1286.9 299.451C1287.35 298.746 1287.56 297.743 1287.56 296.452V288.469C1287.56 287.179 1287.35 286.187 1286.9 285.482C1286.46 284.777 1285.72 284.43 1284.68 284.43C1283.64 284.43 1282.91 284.789 1282.47 285.494C1282.03 286.199 1281.8 287.203 1281.8 288.469V296.452C1281.8 297.731 1282.03 298.723 1282.47 299.44C1282.91 300.157 1283.65 300.515 1284.68 300.515C1285.71 300.515 1286.47 300.156 1286.9 299.451Z" fill="#FC00B6"/>
<path d="M1293.73 300.049C1293.13 299.153 1292.82 297.886 1292.82 296.249V288.637C1292.82 287.011 1293.13 285.757 1293.75 284.872C1294.38 283.988 1295.42 283.534 1296.86 283.534C1298.31 283.534 1299.37 283.976 1299.99 284.872C1300.61 285.757 1300.93 287.011 1300.93 288.637V296.249C1300.93 297.898 1300.63 299.165 1300.02 300.061C1299.42 300.945 1298.36 301.399 1296.85 301.399C1295.34 301.399 1294.32 300.945 1293.71 300.061L1293.73 300.049ZM1299.1 299.451C1299.54 298.746 1299.75 297.743 1299.75 296.452V288.469C1299.75 287.179 1299.54 286.187 1299.1 285.482C1298.65 284.777 1297.91 284.43 1296.87 284.43C1295.83 284.43 1295.1 284.789 1294.66 285.494C1294.22 286.199 1293.99 287.203 1293.99 288.469V296.452C1293.99 297.731 1294.22 298.723 1294.66 299.44C1295.1 300.157 1295.85 300.515 1296.87 300.515C1297.9 300.515 1298.67 300.156 1299.1 299.451Z" fill="#FC00B6"/>
<path d="M1304.94 298.914H1306.21V301.148H1304.94V298.914Z" fill="#FC00B6"/>
<path d="M1311.98 285.303C1311.75 285.637 1311.37 285.924 1310.86 286.187C1310.33 286.45 1309.88 286.629 1309.5 286.749V285.757C1309.91 285.637 1310.38 285.398 1310.89 285.028C1311.41 284.657 1311.84 284.227 1312.16 283.737H1313.15V301.16H1311.99V285.303H1311.98Z" fill="#FC00B6"/>
<path d="M975.05 305.271C974.823 305.606 974.44 305.892 973.926 306.155C973.4 306.418 972.946 306.598 972.563 306.717V305.725C972.982 305.606 973.448 305.367 973.962 304.996C974.476 304.626 974.906 304.196 975.229 303.706H976.221V321.129H975.062V305.271H975.05Z" fill="#FC00B6"/>
<path d="M981.504 318.882H982.771V321.117H981.504V318.882Z" fill="#FC00B6"/>
<path d="M989.321 303.706H990.671L994.353 321.129H993.169L992.261 316.313H987.743L986.822 321.129H985.663L989.321 303.706ZM992.117 315.452L990.014 305.128L987.922 315.452H992.117Z" fill="#FC00B6"/>
<path d="M1000.46 303.706H1001.81L1005.49 321.129H1004.31L1003.4 316.313H998.884L997.963 321.129H996.804L1000.46 303.706ZM1003.26 315.452L1001.15 305.128L999.063 315.452H1003.26Z" fill="#FC00B6"/>
<path d="M577.327 247.458H581.762V248.402H577.327V247.458Z" fill="#FC00B6"/>
<path opacity="0.2" d="M2.39453 509.21C57.4363 509.21 57.4363 521.925 112.49 521.925C167.544 521.925 167.532 522.678 222.573 522.678C277.615 522.678 277.627 500.092 332.669 500.092C387.71 500.092 387.71 377.939 442.752 377.939C497.794 377.939 497.806 595.405 552.848 595.405C607.889 595.405 607.889 488.931 662.931 488.931C717.973 488.931 717.985 467.803 773.026 467.803C828.068 467.803 828.068 476.837 883.11 476.837C938.152 476.837 938.164 353.573 993.205 353.573C1048.25 353.573 1048.23 588.725 1103.28 588.725C1158.32 588.725 1158.31 314.796 1213.34 314.796C1268.37 314.796 1268.38 464.684 1323.42 464.684C1378.46 464.684 1378.46 423.098 1433.5 423.098C1488.54 423.098 1488.53 475.858 1543.56 475.858C1598.59 475.858 1598.6 522.128 1653.65 522.128C1708.69 522.128 1708.69 494.906 1763.72 494.894C1805.87 494.894 1826.17 538.249 1864.54 549.852C1929.07 569.366 2007.47 565.626 2073.89 558.54" stroke="#FD01BA" stroke-miterlimit="10"/>
<path d="M2007.62 272.875C1953.23 267.569 1894.56 283.797 1845.82 259.061C1818.65 245.27 1791.76 220.116 1761.53 238.507C1741.47 250.708 1730.43 275.898 1720.71 296.118C1704.11 330.665 1685.83 397.203 1637.67 397.203C1562.72 397.203 1562.72 324.845 1487.79 324.845C1412.86 324.845 1412.86 701.306 1337.93 701.306C1263 701.306 1263 708.691 1188.08 708.691C1113.15 708.691 1113.15 218.467 1038.23 218.467C963.3 218.467 963.3 265.669 888.357 265.669C813.415 265.669 813.427 423.086 738.496 423.086C680.131 423.086 663.254 534.831 644.728 574.122C631.245 602.707 609.635 638.784 575.713 644.675C523.038 653.817 499.109 602.097 461.494 581.053C440.434 569.271 414.497 579.667 392.002 588.439C259.842 639.943 112.682 628.841 -28.6699 616.963" stroke="#9883F3" stroke-width="5" stroke-miterlimit="10"/>
</g>
<defs>
<clipPath id="clip0_6006_10232">
<rect width="2103" height="956" fill="white" transform="translate(-28.9209 0.199829)"/>
</clipPath>
</defs>
</svg>
