<svg width="33" height="32" viewBox="0 0 33 32" fill="none" xmlns="http://www.w3.org/2000/svg">
<path d="M22.25 13C17.29 13 13.25 17.04 13.25 22C13.25 26.96 17.29 31 22.25 31C27.21 31 31.25 26.96 31.25 22C31.25 17.04 27.21 13 22.25 13ZM18.93 23.34C19.31 23.74 19.3 24.37 18.91 24.75C18.72 24.94 18.47 25.03 18.21 25.03C17.95 25.03 17.69 24.93 17.49 24.73L15.53 22.7C15.15 22.31 15.15 21.7 15.53 21.31L17.49 19.28C17.87 18.88 18.51 18.87 18.9 19.26C19.3 19.64 19.31 20.28 18.92 20.67L17.63 22.01L18.92 23.35L18.93 23.34ZM24 18.99L22.43 25.49C22.32 25.95 21.91 26.26 21.46 26.26C21.38 26.26 21.3 26.26 21.22 26.23C20.68 26.1 20.35 25.56 20.48 25.02L22.05 18.52C22.18 17.98 22.72 17.66 23.26 17.78C23.8 17.91 24.13 18.45 24 18.99ZM27 24.73C26.8 24.93 26.54 25.03 26.28 25.03C26.02 25.03 25.78 24.94 25.58 24.75C25.18 24.37 25.17 23.73 25.56 23.34L26.85 22L25.56 20.66C25.18 20.26 25.19 19.63 25.58 19.25C25.97 18.87 26.61 18.88 26.99 19.27L28.95 21.3C29.33 21.69 29.33 22.3 28.95 22.69L26.99 24.72L27 24.73Z" fill="url(#paint0_linear_6007_13915)"/>
<path d="M18.68 11.61L14.02 2.68C13.48 1.65 12.42 1 11.25 1C10.08 1 9.02 1.64 8.48 2.68L1.6 15.86C1.37 16.3 1.25 16.8 1.25 17.3V17.87C1.25 19.59 2.65 20.99 4.37 20.99H11.3C11.7 16.62 14.66 12.98 18.68 11.6V11.61ZM12.25 15.63C12.25 16.18 11.8 16.63 11.25 16.63C10.7 16.63 10.25 16.18 10.25 15.63V15.07C10.25 14.52 10.7 14.07 11.25 14.07C11.8 14.07 12.25 14.52 12.25 15.07V15.63ZM12.25 12.13C12.25 12.68 11.8 13.13 11.25 13.13C10.7 13.13 10.25 12.68 10.25 12.13V6.63C10.25 6.08 10.7 5.63 11.25 5.63C11.8 5.63 12.25 6.08 12.25 6.63V12.13Z" fill="url(#paint1_linear_6007_13915)"/>
<defs>
<linearGradient id="paint0_linear_6007_13915" x1="22.25" y1="13" x2="22.25" y2="31" gradientUnits="userSpaceOnUse">
<stop stop-color="#6346E4"/>
<stop offset="1" stop-color="#6C3E9D"/>
</linearGradient>
<linearGradient id="paint1_linear_6007_13915" x1="9.965" y1="1" x2="9.965" y2="20.99" gradientUnits="userSpaceOnUse">
<stop stop-color="#6346E4"/>
<stop offset="1" stop-color="#6C3E9D"/>
</linearGradient>
</defs>
</svg>
