<svg width="33" height="32" viewBox="0 0 33 32" fill="none" xmlns="http://www.w3.org/2000/svg">
<g clip-path="url(#clip0_6007_13919)">
<path d="M3.1543 12.1763C4.10279 8.79958 6.26197 5.91091 9.23413 4.04274C11.9868 2.31252 15.145 1.59572 18.3677 1.96974C20.7039 2.24074 22.9395 3.09694 24.8489 4.42922L23.3699 4.48024L23.4343 6.35378L28.3044 6.1863L28.1284 1.37624L26.2546 1.44484L26.3184 3.17848C24.0715 1.50637 21.3916 0.433368 18.5837 0.10744C16.8132 -0.0978818 15.0366 -0.00852641 13.3035 0.373554C11.5098 0.769061 9.80493 1.4695 8.23633 2.45534C4.86939 4.57155 2.42359 7.84401 1.34937 11.6694C0.282721 15.4673 0.648199 19.5012 2.37818 23.0281L4.06153 22.2024C2.53492 19.0903 2.21265 15.5296 3.1543 12.1763Z" fill="url(#paint0_linear_6007_13919)"/>
<path d="M30.6745 8.1272L29.0432 9.05103C30.8342 12.2144 31.332 15.9033 30.4451 19.4382C29.5552 22.9841 27.3599 26.0088 24.2634 27.9551C21.4045 29.7519 17.9944 30.4641 14.6616 29.9604C12.0684 29.5686 9.64624 28.4648 7.66479 26.7976L9.41235 26.7373L9.3479 24.8635L4.47754 25.0312L4.65381 29.8413L6.52734 29.7725L6.47119 28.2434C8.71313 30.1255 11.4514 31.3713 14.3816 31.8142C15.1728 31.9338 15.968 31.9929 16.7605 31.9929C19.75 31.9929 22.7009 31.1516 25.2612 29.5422C28.7688 27.3376 31.2554 23.9114 32.2634 19.8945C33.2683 15.8906 32.7041 11.7114 30.6745 8.1272Z" fill="url(#paint1_linear_6007_13919)"/>
<path d="M16.8264 12.7778C15.1716 12.7778 13.8252 14.124 13.8252 15.7791C13.8252 17.4338 15.1716 18.78 16.8264 18.78C18.4812 18.78 19.8274 17.4338 19.8274 15.7791C19.8274 14.124 18.4812 12.7778 16.8264 12.7778Z" fill="url(#paint2_linear_6007_13919)"/>
<path d="M26.6921 18.2424V13.3154L24.7927 12.9468C24.6914 12.6594 24.5745 12.3774 24.4426 12.1025L25.5271 10.4988L22.0469 7.01147L20.4412 8.09277C20.1611 7.95776 19.874 7.83838 19.5811 7.73511L19.2124 5.83569H14.2854L13.9167 7.73511C13.6294 7.83643 13.3474 7.95337 13.0725 8.0852L11.4687 7.00073L7.98144 10.481L9.06274 12.0867C8.92773 12.3667 8.80835 12.6538 8.70508 12.9465L6.80566 13.3154V18.2424L8.70508 18.6111C8.8064 18.8984 8.92334 19.1802 9.05518 19.4553L7.9707 21.0588L11.4509 24.5464L13.0569 23.4651C13.3367 23.6001 13.6238 23.7195 13.9167 23.8227L14.2854 25.7222H19.2124L19.5811 23.8227C19.8684 23.7214 20.1504 23.6045 20.4255 23.4727L22.029 24.5571L25.5166 21.0769L24.4353 19.4712C24.5701 19.1912 24.6897 18.904 24.793 18.6111L26.6921 18.2424ZM16.8269 20.6548C14.1382 20.6548 11.9509 18.4675 11.9509 15.7788C11.9509 13.0903 14.1382 10.9031 16.8269 10.9031C19.5154 10.9031 21.7026 13.0903 21.7026 15.7788C21.7026 18.4675 19.5154 20.6548 16.8269 20.6548Z" fill="url(#paint3_linear_6007_13919)"/>
</g>
<defs>
<linearGradient id="paint0_linear_6007_13919" x1="14.5272" y1="6.10352e-05" x2="14.5272" y2="23.0281" gradientUnits="userSpaceOnUse">
<stop stop-color="#6346E4"/>
<stop offset="1" stop-color="#6C3E9D"/>
</linearGradient>
<linearGradient id="paint1_linear_6007_13919" x1="18.6135" y1="8.1272" x2="18.6135" y2="31.9929" gradientUnits="userSpaceOnUse">
<stop stop-color="#6346E4"/>
<stop offset="1" stop-color="#6C3E9D"/>
</linearGradient>
<linearGradient id="paint2_linear_6007_13919" x1="16.8263" y1="12.7778" x2="16.8263" y2="18.78" gradientUnits="userSpaceOnUse">
<stop stop-color="#6346E4"/>
<stop offset="1" stop-color="#6C3E9D"/>
</linearGradient>
<linearGradient id="paint3_linear_6007_13919" x1="16.7489" y1="5.83569" x2="16.7489" y2="25.7222" gradientUnits="userSpaceOnUse">
<stop stop-color="#6346E4"/>
<stop offset="1" stop-color="#6C3E9D"/>
</linearGradient>
<clipPath id="clip0_6007_13919">
<rect width="32" height="32" fill="white" transform="translate(0.75)"/>
</clipPath>
</defs>
</svg>
