<svg width="33" height="32" viewBox="0 0 33 32" fill="none" xmlns="http://www.w3.org/2000/svg">
<path d="M4.25 22H28.25V25C28.25 27.21 26.46 29 24.25 29H8.25C6.03998 29 4.25 27.21 4.25 25V22ZM30.25 10V18C30.25 19.3 29.41 20.41 28.25 20.82C27.94 20.94 27.6 21 27.25 21H5.25C4.90002 21 4.56 20.94 4.25 20.82C3.09003 20.41 2.25 19.3 2.25 18V10C2.25 8.34998 3.59998 7 5.25 7H7.25V12C7.25 12.55 7.70001 13 8.25 13C8.79999 13 9.25 12.55 9.25 12V7H10.25V6C10.25 4.3457 11.5957 3 13.25 3H19.25C20.9043 3 22.25 4.3457 22.25 6V7H27.25C28.9 7 30.25 8.34998 30.25 10ZM12.25 7H20.25V6C20.25 5.44873 19.8013 5 19.25 5H13.25C12.6987 5 12.25 5.44873 12.25 6V7ZM7.25 17C7.25 17.55 7.70001 18 8.25 18C8.79999 18 9.25 17.55 9.25 17V16C9.25 15.45 8.79999 15 8.25 15C7.70001 15 7.25 15.45 7.25 16V17Z" fill="url(#paint0_linear_6007_13925)"/>
<defs>
<linearGradient id="paint0_linear_6007_13925" x1="16.25" y1="3" x2="16.25" y2="29" gradientUnits="userSpaceOnUse">
<stop stop-color="#6346E4"/>
<stop offset="1" stop-color="#6C3E9D"/>
</linearGradient>
</defs>
</svg>
