<svg width="33" height="32" viewBox="0 0 33 32" fill="none" xmlns="http://www.w3.org/2000/svg">
<path d="M11.4199 11.3H14.0799V16.92H11.4199V11.3Z" fill="url(#paint0_linear_6007_13910)"/>
<path d="M19.4199 9.29999H22.0799V14.92H19.4199V9.29999Z" fill="url(#paint1_linear_6007_13910)"/>
<path d="M26.75 2H6.75C4.53998 2 2.75 3.78998 2.75 6V20.22C2.75 22.43 4.53998 24.22 6.75 24.22H15.75V28H11.1221C10.5698 28 10.1221 28.4478 10.1221 29C10.1221 29.5522 10.5698 30 11.1221 30H22.3779C22.9302 30 23.3779 29.5522 23.3779 29C23.3779 28.4478 22.9302 28 22.3779 28H17.75V24.22H26.75C28.96 24.22 30.75 22.43 30.75 20.22V6C30.75 3.78998 28.96 2 26.75 2ZM13.75 18.92V19.61C13.75 20.16 13.3 20.61 12.75 20.61C12.2 20.61 11.75 20.16 11.75 19.61V18.92H10.42C9.87 18.92 9.41998 18.48 9.41998 17.92V10.3C9.41998 9.75 9.87 9.29999 10.42 9.29999H11.75V8.60999C11.75 8.06 12.2 7.60999 12.75 7.60999C13.3 7.60999 13.75 8.06 13.75 8.60999V9.29999H15.08C15.63 9.29999 16.08 9.75 16.08 10.3V17.92C16.08 18.48 15.63 18.92 15.08 18.92H13.75ZM24.08 15.92C24.08 16.48 23.63 16.92 23.08 16.92H21.75V17.61C21.75 18.16 21.3 18.61 20.75 18.61C20.2 18.61 19.75 18.16 19.75 17.61V16.92H18.42C17.87 16.92 17.42 16.48 17.42 15.92V8.29999C17.42 7.75 17.87 7.29999 18.42 7.29999H19.75V6.60999C19.75 6.06 20.2 5.60999 20.75 5.60999C21.3 5.60999 21.75 6.06 21.75 6.60999V7.29999H23.08C23.63 7.29999 24.08 7.75 24.08 8.29999V15.92Z" fill="url(#paint2_linear_6007_13910)"/>
<defs>
<linearGradient id="paint0_linear_6007_13910" x1="12.7499" y1="11.3" x2="12.7499" y2="16.92" gradientUnits="userSpaceOnUse">
<stop stop-color="#6346E4"/>
<stop offset="1" stop-color="#6C3E9D"/>
</linearGradient>
<linearGradient id="paint1_linear_6007_13910" x1="20.7499" y1="9.29999" x2="20.7499" y2="14.92" gradientUnits="userSpaceOnUse">
<stop stop-color="#6346E4"/>
<stop offset="1" stop-color="#6C3E9D"/>
</linearGradient>
<linearGradient id="paint2_linear_6007_13910" x1="16.75" y1="2" x2="16.75" y2="30" gradientUnits="userSpaceOnUse">
<stop stop-color="#6346E4"/>
<stop offset="1" stop-color="#6C3E9D"/>
</linearGradient>
</defs>
</svg>
