<svg width="31" height="30" viewBox="0 0 31 30" fill="none" xmlns="http://www.w3.org/2000/svg">
<path fill-rule="evenodd" clip-rule="evenodd" d="M0.892578 15C0.892578 23.2 7.54972 29.8571 15.7497 29.8571C23.9497 29.8571 30.6069 23.2 30.6069 15C30.6069 6.8 23.9497 0.142853 15.7497 0.142853C7.54972 0.142853 0.892578 6.8 0.892578 15ZM19.7897 15.6114C17.8983 15.6114 16.3612 17.1486 16.3612 19.04C16.3612 20.9326 17.8983 22.4686 19.7897 22.4686C21.6823 22.4686 23.2183 20.9326 23.2183 19.04C23.2183 17.1486 21.6823 15.6114 19.7897 15.6114ZM20.656 8.47771L9.22744 19.9063C8.78172 20.352 8.78172 21.0766 9.22744 21.5223C9.67315 21.968 10.3977 21.968 10.8434 21.5223L22.272 10.0937C22.7177 9.648 22.7177 8.92342 22.272 8.47771C21.8263 8.032 21.1017 8.032 20.656 8.47771ZM11.7097 7.53142C9.81715 7.53142 8.28115 9.06742 8.28115 10.96C8.28115 12.8514 9.81715 14.3886 11.7097 14.3886C13.6011 14.3886 15.1383 12.8514 15.1383 10.96C15.1383 9.06742 13.6011 7.53142 11.7097 7.53142Z" fill="url(#paint0_linear_6007_13930)"/>
<defs>
<linearGradient id="paint0_linear_6007_13930" x1="15.7497" y1="0.142853" x2="15.7497" y2="29.8571" gradientUnits="userSpaceOnUse">
<stop stop-color="#6346E4"/>
<stop offset="1" stop-color="#6C3E9D"/>
</linearGradient>
</defs>
</svg>
