<svg width="33" height="32" viewBox="0 0 33 32" fill="none" xmlns="http://www.w3.org/2000/svg">
<g clip-path="url(#clip0_6007_13933)">
<path d="M18.9167 14.6667V17.3333H22.73C22.13 19.6267 20.0633 21.3333 17.5833 21.3333C14.6367 21.3333 12.25 18.9467 12.25 16C12.25 13.0533 14.6367 10.6667 17.5833 10.6667C20.0633 10.6667 22.13 12.3733 22.73 14.6667H18.9167ZM32.25 29.3333H29.5833V32H26.9167V29.3333H5.58333V32H2.91667V29.3333H0.25V24H4.25V21.3333H0.25V12H4.25V9.33332H0.25V6.66666C0.25 4.46666 2.05 2.66666 4.25 2.66666H28.25C30.45 2.66666 32.25 4.46666 32.25 6.66666V29.3333ZM25.5833 16C25.5833 11.5867 21.9967 7.99999 17.5833 7.99999C13.17 7.99999 9.58333 11.5867 9.58333 16C9.58333 20.4133 13.17 24 17.5833 24C21.9967 24 25.5833 20.4133 25.5833 16Z" fill="url(#paint0_linear_6007_13933)"/>
</g>
<defs>
<linearGradient id="paint0_linear_6007_13933" x1="16.25" y1="2.66666" x2="16.25" y2="32" gradientUnits="userSpaceOnUse">
<stop stop-color="#6346E4"/>
<stop offset="1" stop-color="#6C3E9D"/>
</linearGradient>
<clipPath id="clip0_6007_13933">
<rect width="32" height="32" fill="white" transform="translate(0.25)"/>
</clipPath>
</defs>
</svg>
