<svg width="986" height="62" viewBox="0 0 986 62" fill="none" xmlns="http://www.w3.org/2000/svg">
<g opacity="0.5">
<rect opacity="0.7" y="46.1818" width="15.3936" height="15.3936" fill="#9883F3"/>
<rect opacity="0.7" x="492.609" y="46.1818" width="15.3936" height="15.3936" fill="#9883F3"/>
<rect opacity="0.7" x="246.305" y="46.1818" width="15.3936" height="15.3936" fill="#9883F3"/>
<rect opacity="0.7" x="738.914" y="46.1818" width="15.3936" height="15.3936" fill="#9883F3"/>
<rect opacity="0.7" width="15.3936" height="15.3936" transform="matrix(1 0 0 -1 123.153 15.3944)" fill="#9883F3"/>
<rect opacity="0.7" width="15.3936" height="15.3936" transform="matrix(1 0 0 -1 615.763 15.3944)" fill="#9883F3"/>
<rect opacity="0.7" width="15.3936" height="15.3936" transform="matrix(1 0 0 -1 369.458 15.3944)" fill="#9883F3"/>
<rect opacity="0.7" width="15.3936" height="15.3936" transform="matrix(1 0 0 -1 862.067 15.3944)" fill="#9883F3"/>
<rect opacity="0.7" x="76.9717" width="15.3936" height="15.3936" transform="rotate(90 76.9717 0)" fill="#9883F3"/>
<rect opacity="0.7" x="569.581" width="15.3936" height="15.3936" transform="rotate(90 569.581 0)" fill="#9883F3"/>
<rect opacity="0.7" x="323.276" width="15.3936" height="15.3936" transform="rotate(90 323.276 0)" fill="#9883F3"/>
<rect opacity="0.7" x="815.886" width="15.3936" height="15.3936" transform="rotate(90 815.886 0)" fill="#9883F3"/>
<rect opacity="0.7" width="15.3936" height="15.3936" transform="matrix(-4.37114e-08 -1 -1 4.37114e-08 200.125 61.5762)" fill="#9883F3"/>
<rect opacity="0.7" width="15.3936" height="15.3936" transform="matrix(-4.37114e-08 -1 -1 4.37114e-08 692.734 61.5762)" fill="#9883F3"/>
<rect opacity="0.7" width="15.3936" height="15.3936" transform="matrix(-4.37114e-08 -1 -1 4.37114e-08 446.43 61.5762)" fill="#9883F3"/>
<rect opacity="0.7" width="15.3936" height="15.3936" transform="matrix(-4.37114e-08 -1 -1 4.37114e-08 939.039 61.5762)" fill="#9883F3"/>
<rect opacity="0.7" x="61.5762" y="15.3947" width="15.3936" height="15.3936" transform="rotate(180 61.5762 15.3947)" fill="#9883F3"/>
<rect opacity="0.7" x="554.186" y="15.3947" width="15.3936" height="15.3936" transform="rotate(180 554.186 15.3947)" fill="#9883F3"/>
<rect opacity="0.7" x="307.881" y="15.3947" width="15.3936" height="15.3936" transform="rotate(180 307.881 15.3947)" fill="#9883F3"/>
<rect opacity="0.7" x="800.49" y="15.3947" width="15.3936" height="15.3936" transform="rotate(180 800.49 15.3947)" fill="#9883F3"/>
<rect opacity="0.7" width="15.3936" height="15.3936" transform="matrix(-1 0 0 1 184.729 46.1815)" fill="#9883F3"/>
<rect opacity="0.7" width="15.3936" height="15.3936" transform="matrix(-1 0 0 1 677.339 46.1815)" fill="#9883F3"/>
<rect opacity="0.7" width="15.3936" height="15.3936" transform="matrix(-1 0 0 1 431.034 46.1815)" fill="#9883F3"/>
<rect opacity="0.7" width="15.3936" height="15.3936" transform="matrix(-1 0 0 1 923.644 46.1815)" fill="#9883F3"/>
<rect opacity="0.7" x="107.759" y="61.5762" width="15.3936" height="15.3936" transform="rotate(-90 107.759 61.5762)" fill="#9883F3"/>
<rect opacity="0.7" x="600.368" y="61.5762" width="15.3936" height="15.3936" transform="rotate(-90 600.368 61.5762)" fill="#9883F3"/>
<rect opacity="0.7" x="354.063" y="61.5762" width="15.3936" height="15.3936" transform="rotate(-90 354.063 61.5762)" fill="#9883F3"/>
<rect opacity="0.7" x="846.673" y="61.5762" width="15.3936" height="15.3936" transform="rotate(-90 846.673 61.5762)" fill="#9883F3"/>
<rect opacity="0.7" width="15.3936" height="15.3936" transform="matrix(4.37114e-08 1 1 -4.37114e-08 230.912 0)" fill="#9883F3"/>
<rect opacity="0.7" width="15.3936" height="15.3936" transform="matrix(4.37114e-08 1 1 -4.37114e-08 723.521 0)" fill="#9883F3"/>
<rect opacity="0.7" width="15.3936" height="15.3936" transform="matrix(4.37114e-08 1 1 -4.37114e-08 477.217 0)" fill="#9883F3"/>
<rect opacity="0.7" width="15.3936" height="15.3936" transform="matrix(4.37114e-08 1 1 -4.37114e-08 969.826 0)" fill="#9883F3"/>
<rect opacity="0.3" y="23.0912" width="7.69678" height="7.69678" fill="#9883F3"/>
<rect opacity="0.3" x="492.609" y="23.0912" width="7.69678" height="7.69678" fill="#9883F3"/>
<rect opacity="0.3" x="246.305" y="23.0912" width="7.69678" height="7.69678" fill="#9883F3"/>
<rect opacity="0.3" x="738.914" y="23.0912" width="7.69678" height="7.69678" fill="#9883F3"/>
<rect opacity="0.3" width="7.69678" height="7.69678" transform="matrix(1 0 0 -1 123.153 38.485)" fill="#9883F3"/>
<rect opacity="0.3" width="7.69678" height="7.69678" transform="matrix(1 0 0 -1 615.763 38.485)" fill="#9883F3"/>
<rect opacity="0.3" width="7.69678" height="7.69678" transform="matrix(1 0 0 -1 369.458 38.485)" fill="#9883F3"/>
<rect opacity="0.3" width="7.69678" height="7.69678" transform="matrix(1 0 0 -1 862.067 38.485)" fill="#9883F3"/>
<rect opacity="0.3" x="100.062" width="7.69678" height="7.69678" transform="rotate(90 100.062 0)" fill="#9883F3"/>
<rect opacity="0.3" x="592.672" width="7.69678" height="7.69678" transform="rotate(90 592.672 0)" fill="#9883F3"/>
<rect opacity="0.3" x="346.367" width="7.69678" height="7.69678" transform="rotate(90 346.367 0)" fill="#9883F3"/>
<rect opacity="0.3" x="838.977" width="7.69678" height="7.69678" transform="rotate(90 838.977 0)" fill="#9883F3"/>
<rect opacity="0.3" width="7.69678" height="7.69678" transform="matrix(-4.37114e-08 -1 -1 4.37114e-08 223.216 61.5762)" fill="#9883F3"/>
<rect opacity="0.3" width="7.69678" height="7.69678" transform="matrix(-4.37114e-08 -1 -1 4.37114e-08 715.825 61.5762)" fill="#9883F3"/>
<rect opacity="0.3" width="7.69678" height="7.69678" transform="matrix(-4.37114e-08 -1 -1 4.37114e-08 469.521 61.5762)" fill="#9883F3"/>
<rect opacity="0.3" width="7.69678" height="7.69678" transform="matrix(-4.37114e-08 -1 -1 4.37114e-08 962.13 61.5762)" fill="#9883F3"/>
<rect opacity="0.3" x="61.5762" y="38.4852" width="7.69678" height="7.69678" transform="rotate(180 61.5762 38.4852)" fill="#9883F3"/>
<rect opacity="0.3" x="554.186" y="38.4852" width="7.69678" height="7.69678" transform="rotate(180 554.186 38.4852)" fill="#9883F3"/>
<rect opacity="0.3" x="307.881" y="38.4852" width="7.69678" height="7.69678" transform="rotate(180 307.881 38.4852)" fill="#9883F3"/>
<rect opacity="0.3" x="800.49" y="38.4852" width="7.69678" height="7.69678" transform="rotate(180 800.49 38.4852)" fill="#9883F3"/>
<rect opacity="0.3" width="7.69678" height="7.69678" transform="matrix(-1 0 0 1 184.729 23.0909)" fill="#9883F3"/>
<rect opacity="0.3" width="7.69678" height="7.69678" transform="matrix(-1 0 0 1 677.339 23.0909)" fill="#9883F3"/>
<rect opacity="0.3" width="7.69678" height="7.69678" transform="matrix(-1 0 0 1 431.034 23.0909)" fill="#9883F3"/>
<rect opacity="0.3" width="7.69678" height="7.69678" transform="matrix(-1 0 0 1 923.644 23.0909)" fill="#9883F3"/>
<rect opacity="0.3" x="84.668" y="61.5762" width="7.69678" height="7.69678" transform="rotate(-90 84.668 61.5762)" fill="#9883F3"/>
<rect opacity="0.3" x="577.277" y="61.5762" width="7.69678" height="7.69678" transform="rotate(-90 577.277 61.5762)" fill="#9883F3"/>
<rect opacity="0.3" x="330.973" y="61.5762" width="7.69678" height="7.69678" transform="rotate(-90 330.973 61.5762)" fill="#9883F3"/>
<rect opacity="0.3" x="823.582" y="61.5762" width="7.69678" height="7.69678" transform="rotate(-90 823.582 61.5762)" fill="#9883F3"/>
<rect opacity="0.3" width="7.69678" height="7.69678" transform="matrix(4.37114e-08 1 1 -4.37114e-08 207.821 0)" fill="#9883F3"/>
<rect opacity="0.3" width="7.69678" height="7.69678" transform="matrix(4.37114e-08 1 1 -4.37114e-08 700.431 0)" fill="#9883F3"/>
<rect opacity="0.3" width="7.69678" height="7.69678" transform="matrix(4.37114e-08 1 1 -4.37114e-08 454.126 0)" fill="#9883F3"/>
<rect opacity="0.3" width="7.69678" height="7.69678" transform="matrix(4.37114e-08 1 1 -4.37114e-08 946.735 0)" fill="#9883F3"/>
<rect x="15.3945" y="7.69739" width="7.69678" height="7.69678" fill="#9883F3"/>
<rect x="508.004" y="7.69739" width="7.69678" height="7.69678" fill="#9883F3"/>
<rect x="261.699" y="7.69739" width="7.69678" height="7.69678" fill="#9883F3"/>
<rect x="754.309" y="7.69739" width="7.69678" height="7.69678" fill="#9883F3"/>
<rect width="7.69678" height="7.69678" transform="matrix(1 0 0 -1 138.548 53.8788)" fill="#9883F3"/>
<rect width="7.69678" height="7.69678" transform="matrix(1 0 0 -1 631.157 53.8788)" fill="#9883F3"/>
<rect width="7.69678" height="7.69678" transform="matrix(1 0 0 -1 384.853 53.8788)" fill="#9883F3"/>
<rect width="7.69678" height="7.69678" transform="matrix(1 0 0 -1 877.462 53.8788)" fill="#9883F3"/>
<rect x="115.456" y="15.3945" width="7.69678" height="7.69678" transform="rotate(90 115.456 15.3945)" fill="#9883F3"/>
<rect x="608.065" y="15.3945" width="7.69678" height="7.69678" transform="rotate(90 608.065 15.3945)" fill="#9883F3"/>
<rect x="361.761" y="15.3945" width="7.69678" height="7.69678" transform="rotate(90 361.761 15.3945)" fill="#9883F3"/>
<rect x="854.37" y="15.3945" width="7.69678" height="7.69678" transform="rotate(90 854.37 15.3945)" fill="#9883F3"/>
<rect width="7.69678" height="7.69678" transform="matrix(-4.37114e-08 -1 -1 4.37114e-08 238.609 46.1816)" fill="#9883F3"/>
<rect width="7.69678" height="7.69678" transform="matrix(-4.37114e-08 -1 -1 4.37114e-08 731.219 46.1816)" fill="#9883F3"/>
<rect width="7.69678" height="7.69678" transform="matrix(-4.37114e-08 -1 -1 4.37114e-08 484.914 46.1816)" fill="#9883F3"/>
<rect width="7.69678" height="7.69678" transform="matrix(-4.37114e-08 -1 -1 4.37114e-08 977.523 46.1816)" fill="#9883F3"/>
<rect x="46.1816" y="53.879" width="7.69678" height="7.69678" transform="rotate(180 46.1816 53.879)" fill="#9883F3"/>
<rect x="538.791" y="53.879" width="7.69678" height="7.69678" transform="rotate(180 538.791 53.879)" fill="#9883F3"/>
<rect x="292.486" y="53.879" width="7.69678" height="7.69678" transform="rotate(180 292.486 53.879)" fill="#9883F3"/>
<rect x="785.096" y="53.879" width="7.69678" height="7.69678" transform="rotate(180 785.096 53.879)" fill="#9883F3"/>
<rect width="7.69678" height="7.69678" transform="matrix(-1 0 0 1 169.335 7.69714)" fill="#9883F3"/>
<rect width="7.69678" height="7.69678" transform="matrix(-1 0 0 1 661.944 7.69714)" fill="#9883F3"/>
<rect width="7.69678" height="7.69678" transform="matrix(-1 0 0 1 415.64 7.69714)" fill="#9883F3"/>
<rect width="7.69678" height="7.69678" transform="matrix(-1 0 0 1 908.249 7.69714)" fill="#9883F3"/>
<rect x="69.2744" y="46.1816" width="7.69678" height="7.69678" transform="rotate(-90 69.2744 46.1816)" fill="#9883F3"/>
<rect x="561.884" y="46.1816" width="7.69678" height="7.69678" transform="rotate(-90 561.884 46.1816)" fill="#9883F3"/>
<rect x="315.579" y="46.1816" width="7.69678" height="7.69678" transform="rotate(-90 315.579 46.1816)" fill="#9883F3"/>
<rect x="808.188" y="46.1816" width="7.69678" height="7.69678" transform="rotate(-90 808.188 46.1816)" fill="#9883F3"/>
<rect width="7.69678" height="7.69678" transform="matrix(4.37114e-08 1 1 -4.37114e-08 192.428 15.3945)" fill="#9883F3"/>
<rect width="7.69678" height="7.69678" transform="matrix(4.37114e-08 1 1 -4.37114e-08 685.037 15.3945)" fill="#9883F3"/>
<rect width="7.69678" height="7.69678" transform="matrix(4.37114e-08 1 1 -4.37114e-08 438.732 15.3945)" fill="#9883F3"/>
<rect width="7.69678" height="7.69678" transform="matrix(4.37114e-08 1 1 -4.37114e-08 931.342 15.3945)" fill="#9883F3"/>
<rect opacity="0.5" x="15.3945" y="15.3944" width="15.3933" height="15.3933" fill="#9883F3"/>
<rect opacity="0.5" x="508.004" y="15.3944" width="15.3933" height="15.3933" fill="#9883F3"/>
<rect opacity="0.5" x="261.699" y="15.3944" width="15.3933" height="15.3933" fill="#9883F3"/>
<rect opacity="0.5" x="754.309" y="15.3944" width="15.3933" height="15.3933" fill="#9883F3"/>
<rect opacity="0.5" width="15.3933" height="15.3933" transform="matrix(1 0 0 -1 138.548 46.1818)" fill="#9883F3"/>
<rect opacity="0.5" width="15.3933" height="15.3933" transform="matrix(1 0 0 -1 631.157 46.1818)" fill="#9883F3"/>
<rect opacity="0.5" width="15.3933" height="15.3933" transform="matrix(1 0 0 -1 384.853 46.1818)" fill="#9883F3"/>
<rect opacity="0.5" width="15.3933" height="15.3933" transform="matrix(1 0 0 -1 877.462 46.1818)" fill="#9883F3"/>
<rect opacity="0.5" x="107.759" y="15.3945" width="15.3933" height="15.3933" transform="rotate(90 107.759 15.3945)" fill="#9883F3"/>
<rect opacity="0.5" x="600.368" y="15.3945" width="15.3933" height="15.3933" transform="rotate(90 600.368 15.3945)" fill="#9883F3"/>
<rect opacity="0.5" x="354.063" y="15.3945" width="15.3933" height="15.3933" transform="rotate(90 354.063 15.3945)" fill="#9883F3"/>
<rect opacity="0.5" x="846.673" y="15.3945" width="15.3933" height="15.3933" transform="rotate(90 846.673 15.3945)" fill="#9883F3"/>
<rect opacity="0.5" width="15.3933" height="15.3933" transform="matrix(-4.37114e-08 -1 -1 4.37114e-08 230.912 46.1816)" fill="#9883F3"/>
<rect opacity="0.5" width="15.3933" height="15.3933" transform="matrix(-4.37114e-08 -1 -1 4.37114e-08 723.521 46.1816)" fill="#9883F3"/>
<rect opacity="0.5" width="15.3933" height="15.3933" transform="matrix(-4.37114e-08 -1 -1 4.37114e-08 477.217 46.1816)" fill="#9883F3"/>
<rect opacity="0.5" width="15.3933" height="15.3933" transform="matrix(-4.37114e-08 -1 -1 4.37114e-08 969.826 46.1816)" fill="#9883F3"/>
<rect opacity="0.5" x="46.1816" y="46.182" width="15.3933" height="15.3933" transform="rotate(180 46.1816 46.182)" fill="#9883F3"/>
<rect opacity="0.5" x="538.791" y="46.182" width="15.3933" height="15.3933" transform="rotate(180 538.791 46.182)" fill="#9883F3"/>
<rect opacity="0.5" x="292.486" y="46.182" width="15.3933" height="15.3933" transform="rotate(180 292.486 46.182)" fill="#9883F3"/>
<rect opacity="0.5" x="785.096" y="46.182" width="15.3933" height="15.3933" transform="rotate(180 785.096 46.182)" fill="#9883F3"/>
<rect opacity="0.5" width="15.3933" height="15.3933" transform="matrix(-1 0 0 1 169.335 15.3942)" fill="#9883F3"/>
<rect opacity="0.5" width="15.3933" height="15.3933" transform="matrix(-1 0 0 1 661.944 15.3942)" fill="#9883F3"/>
<rect opacity="0.5" width="15.3933" height="15.3933" transform="matrix(-1 0 0 1 415.64 15.3942)" fill="#9883F3"/>
<rect opacity="0.5" width="15.3933" height="15.3933" transform="matrix(-1 0 0 1 908.249 15.3942)" fill="#9883F3"/>
<rect opacity="0.5" x="76.9717" y="46.1816" width="15.3933" height="15.3933" transform="rotate(-90 76.9717 46.1816)" fill="#9883F3"/>
<rect opacity="0.5" x="569.581" y="46.1816" width="15.3933" height="15.3933" transform="rotate(-90 569.581 46.1816)" fill="#9883F3"/>
<rect opacity="0.5" x="323.276" y="46.1816" width="15.3933" height="15.3933" transform="rotate(-90 323.276 46.1816)" fill="#9883F3"/>
<rect opacity="0.5" x="815.886" y="46.1816" width="15.3933" height="15.3933" transform="rotate(-90 815.886 46.1816)" fill="#9883F3"/>
<rect opacity="0.5" width="15.3933" height="15.3933" transform="matrix(4.37114e-08 1 1 -4.37114e-08 200.125 15.3945)" fill="#9883F3"/>
<rect opacity="0.5" width="15.3933" height="15.3933" transform="matrix(4.37114e-08 1 1 -4.37114e-08 692.734 15.3945)" fill="#9883F3"/>
<rect opacity="0.5" width="15.3933" height="15.3933" transform="matrix(4.37114e-08 1 1 -4.37114e-08 446.43 15.3945)" fill="#9883F3"/>
<rect opacity="0.5" width="15.3933" height="15.3933" transform="matrix(4.37114e-08 1 1 -4.37114e-08 939.039 15.3945)" fill="#9883F3"/>
<rect opacity="0.2" x="0.000976562" y="0.00109863" width="15.3933" height="15.3933" fill="#9883F3"/>
<rect opacity="0.2" x="492.61" y="0.00109863" width="15.3933" height="15.3933" fill="#9883F3"/>
<rect opacity="0.2" x="246.306" y="0.00109863" width="15.3933" height="15.3933" fill="#9883F3"/>
<rect opacity="0.2" x="738.915" y="0.00109863" width="15.3933" height="15.3933" fill="#9883F3"/>
<rect opacity="0.2" width="15.3933" height="15.3933" transform="matrix(1 0 0 -1 123.154 61.5751)" fill="#9883F3"/>
<rect opacity="0.2" width="15.3933" height="15.3933" transform="matrix(1 0 0 -1 615.764 61.5751)" fill="#9883F3"/>
<rect opacity="0.2" width="15.3933" height="15.3933" transform="matrix(1 0 0 -1 369.459 61.5751)" fill="#9883F3"/>
<rect opacity="0.2" width="15.3933" height="15.3933" transform="matrix(1 0 0 -1 862.068 61.5751)" fill="#9883F3"/>
<rect opacity="0.2" x="123.152" y="0.000976562" width="15.3933" height="15.3933" transform="rotate(90 123.152 0.000976562)" fill="#9883F3"/>
<rect opacity="0.2" x="615.762" y="0.000976562" width="15.3933" height="15.3933" transform="rotate(90 615.762 0.000976562)" fill="#9883F3"/>
<rect opacity="0.2" x="369.457" y="0.000976562" width="15.3933" height="15.3933" transform="rotate(90 369.457 0.000976562)" fill="#9883F3"/>
<rect opacity="0.2" x="862.066" y="0.000976562" width="15.3933" height="15.3933" transform="rotate(90 862.066 0.000976562)" fill="#9883F3"/>
<rect opacity="0.2" width="15.3933" height="15.3933" transform="matrix(-4.37114e-08 -1 -1 4.37114e-08 246.306 61.5752)" fill="#9883F3"/>
<rect opacity="0.2" width="15.3933" height="15.3933" transform="matrix(-4.37114e-08 -1 -1 4.37114e-08 738.915 61.5752)" fill="#9883F3"/>
<rect opacity="0.2" width="15.3933" height="15.3933" transform="matrix(-4.37114e-08 -1 -1 4.37114e-08 492.61 61.5752)" fill="#9883F3"/>
<rect opacity="0.2" width="15.3933" height="15.3933" transform="matrix(-4.37114e-08 -1 -1 4.37114e-08 985.22 61.5752)" fill="#9883F3"/>
<rect opacity="0.2" x="61.5742" y="61.5753" width="15.3933" height="15.3933" transform="rotate(180 61.5742 61.5753)" fill="#9883F3"/>
<rect opacity="0.2" x="554.184" y="61.5753" width="15.3933" height="15.3933" transform="rotate(180 554.184 61.5753)" fill="#9883F3"/>
<rect opacity="0.2" x="307.879" y="61.5753" width="15.3933" height="15.3933" transform="rotate(180 307.879 61.5753)" fill="#9883F3"/>
<rect opacity="0.2" x="800.488" y="61.5753" width="15.3933" height="15.3933" transform="rotate(180 800.488 61.5753)" fill="#9883F3"/>
<rect opacity="0.2" width="15.3933" height="15.3933" transform="matrix(-1 0 0 1 184.728 0.000854492)" fill="#9883F3"/>
<rect opacity="0.2" width="15.3933" height="15.3933" transform="matrix(-1 0 0 1 677.337 0.000854492)" fill="#9883F3"/>
<rect opacity="0.2" width="15.3933" height="15.3933" transform="matrix(-1 0 0 1 431.032 0.000854492)" fill="#9883F3"/>
<rect opacity="0.2" width="15.3933" height="15.3933" transform="matrix(-1 0 0 1 923.642 0.000854492)" fill="#9883F3"/>
<rect opacity="0.2" x="61.5781" y="61.5742" width="15.3933" height="15.3933" transform="rotate(-90 61.5781 61.5742)" fill="#9883F3"/>
<rect opacity="0.2" x="554.188" y="61.5742" width="15.3933" height="15.3933" transform="rotate(-90 554.188 61.5742)" fill="#9883F3"/>
<rect opacity="0.2" x="307.883" y="61.5742" width="15.3933" height="15.3933" transform="rotate(-90 307.883 61.5742)" fill="#9883F3"/>
<rect opacity="0.2" x="800.492" y="61.5742" width="15.3933" height="15.3933" transform="rotate(-90 800.492 61.5742)" fill="#9883F3"/>
<rect opacity="0.2" width="15.3933" height="15.3933" transform="matrix(4.37114e-08 1 1 -4.37114e-08 184.731 0.00195312)" fill="#9883F3"/>
<rect opacity="0.2" width="15.3933" height="15.3933" transform="matrix(4.37114e-08 1 1 -4.37114e-08 677.341 0.00195312)" fill="#9883F3"/>
<rect opacity="0.2" width="15.3933" height="15.3933" transform="matrix(4.37114e-08 1 1 -4.37114e-08 431.036 0.00195312)" fill="#9883F3"/>
<rect opacity="0.2" width="15.3933" height="15.3933" transform="matrix(4.37114e-08 1 1 -4.37114e-08 923.646 0.00195312)" fill="#9883F3"/>
<rect x="15.3936" y="30.7882" width="15.3936" height="15.3936" fill="#9883F3"/>
<rect x="508.003" y="30.7882" width="15.3936" height="15.3936" fill="#9883F3"/>
<rect x="261.698" y="30.7882" width="15.3936" height="15.3936" fill="#9883F3"/>
<rect x="754.308" y="30.7882" width="15.3936" height="15.3936" fill="#9883F3"/>
<rect width="15.3936" height="15.3936" transform="matrix(1 0 0 -1 138.547 30.788)" fill="#9883F3"/>
<rect width="15.3936" height="15.3936" transform="matrix(1 0 0 -1 631.156 30.788)" fill="#9883F3"/>
<rect width="15.3936" height="15.3936" transform="matrix(1 0 0 -1 384.852 30.788)" fill="#9883F3"/>
<rect width="15.3936" height="15.3936" transform="matrix(1 0 0 -1 877.461 30.788)" fill="#9883F3"/>
<rect x="92.3652" y="15.3936" width="15.3936" height="15.3936" transform="rotate(90 92.3652 15.3936)" fill="#9883F3"/>
<rect x="584.975" y="15.3936" width="15.3936" height="15.3936" transform="rotate(90 584.975 15.3936)" fill="#9883F3"/>
<rect x="338.67" y="15.3936" width="15.3936" height="15.3936" transform="rotate(90 338.67 15.3936)" fill="#9883F3"/>
<rect x="831.279" y="15.3936" width="15.3936" height="15.3936" transform="rotate(90 831.279 15.3936)" fill="#9883F3"/>
<rect width="15.3936" height="15.3936" transform="matrix(-4.37114e-08 -1 -1 4.37114e-08 215.519 46.1826)" fill="#9883F3"/>
<rect width="15.3936" height="15.3936" transform="matrix(-4.37114e-08 -1 -1 4.37114e-08 708.128 46.1826)" fill="#9883F3"/>
<rect width="15.3936" height="15.3936" transform="matrix(-4.37114e-08 -1 -1 4.37114e-08 461.823 46.1826)" fill="#9883F3"/>
<rect width="15.3936" height="15.3936" transform="matrix(-4.37114e-08 -1 -1 4.37114e-08 954.433 46.1826)" fill="#9883F3"/>
<rect x="46.1816" y="30.7882" width="15.3936" height="15.3936" transform="rotate(180 46.1816 30.7882)" fill="#9883F3"/>
<rect x="538.791" y="30.7882" width="15.3936" height="15.3936" transform="rotate(180 538.791 30.7882)" fill="#9883F3"/>
<rect x="292.486" y="30.7882" width="15.3936" height="15.3936" transform="rotate(180 292.486 30.7882)" fill="#9883F3"/>
<rect x="785.096" y="30.7882" width="15.3936" height="15.3936" transform="rotate(180 785.096 30.7882)" fill="#9883F3"/>
<rect width="15.3936" height="15.3936" transform="matrix(-1 0 0 1 169.335 30.788)" fill="#9883F3"/>
<rect width="15.3936" height="15.3936" transform="matrix(-1 0 0 1 661.944 30.788)" fill="#9883F3"/>
<rect width="15.3936" height="15.3936" transform="matrix(-1 0 0 1 415.64 30.788)" fill="#9883F3"/>
<rect width="15.3936" height="15.3936" transform="matrix(-1 0 0 1 908.249 30.788)" fill="#9883F3"/>
<rect x="92.3652" y="46.1816" width="15.3936" height="15.3936" transform="rotate(-90 92.3652 46.1816)" fill="#9883F3"/>
<rect x="584.975" y="46.1816" width="15.3936" height="15.3936" transform="rotate(-90 584.975 46.1816)" fill="#9883F3"/>
<rect x="338.67" y="46.1816" width="15.3936" height="15.3936" transform="rotate(-90 338.67 46.1816)" fill="#9883F3"/>
<rect x="831.279" y="46.1816" width="15.3936" height="15.3936" transform="rotate(-90 831.279 46.1816)" fill="#9883F3"/>
<rect width="15.3936" height="15.3936" transform="matrix(4.37114e-08 1 1 -4.37114e-08 215.519 15.3945)" fill="#9883F3"/>
<rect width="15.3936" height="15.3936" transform="matrix(4.37114e-08 1 1 -4.37114e-08 708.128 15.3945)" fill="#9883F3"/>
<rect width="15.3936" height="15.3936" transform="matrix(4.37114e-08 1 1 -4.37114e-08 461.823 15.3945)" fill="#9883F3"/>
<rect width="15.3936" height="15.3936" transform="matrix(4.37114e-08 1 1 -4.37114e-08 954.433 15.3945)" fill="#9883F3"/>
<rect x="7.69727" y="15.3944" width="7.69678" height="7.69678" fill="#9883F3"/>
<rect x="500.307" y="15.3944" width="7.69678" height="7.69678" fill="#9883F3"/>
<rect x="254.002" y="15.3944" width="7.69678" height="7.69678" fill="#9883F3"/>
<rect x="746.611" y="15.3944" width="7.69678" height="7.69678" fill="#9883F3"/>
<rect width="7.69678" height="7.69678" transform="matrix(1 0 0 -1 130.851 46.1818)" fill="#9883F3"/>
<rect width="7.69678" height="7.69678" transform="matrix(1 0 0 -1 623.46 46.1818)" fill="#9883F3"/>
<rect width="7.69678" height="7.69678" transform="matrix(1 0 0 -1 377.155 46.1818)" fill="#9883F3"/>
<rect width="7.69678" height="7.69678" transform="matrix(1 0 0 -1 869.765 46.1818)" fill="#9883F3"/>
<rect x="107.759" y="7.69727" width="7.69678" height="7.69678" transform="rotate(90 107.759 7.69727)" fill="#9883F3"/>
<rect x="600.368" y="7.69727" width="7.69678" height="7.69678" transform="rotate(90 600.368 7.69727)" fill="#9883F3"/>
<rect x="354.063" y="7.69727" width="7.69678" height="7.69678" transform="rotate(90 354.063 7.69727)" fill="#9883F3"/>
<rect x="846.673" y="7.69727" width="7.69678" height="7.69678" transform="rotate(90 846.673 7.69727)" fill="#9883F3"/>
<rect width="7.69678" height="7.69678" transform="matrix(-4.37114e-08 -1 -1 4.37114e-08 230.912 53.8789)" fill="#9883F3"/>
<rect width="7.69678" height="7.69678" transform="matrix(-4.37114e-08 -1 -1 4.37114e-08 723.521 53.8789)" fill="#9883F3"/>
<rect width="7.69678" height="7.69678" transform="matrix(-4.37114e-08 -1 -1 4.37114e-08 477.217 53.8789)" fill="#9883F3"/>
<rect width="7.69678" height="7.69678" transform="matrix(-4.37114e-08 -1 -1 4.37114e-08 969.826 53.8789)" fill="#9883F3"/>
<rect x="53.8789" y="46.182" width="7.69678" height="7.69678" transform="rotate(180 53.8789 46.182)" fill="#9883F3"/>
<rect x="546.488" y="46.182" width="7.69678" height="7.69678" transform="rotate(180 546.488 46.182)" fill="#9883F3"/>
<rect x="300.184" y="46.182" width="7.69678" height="7.69678" transform="rotate(180 300.184 46.182)" fill="#9883F3"/>
<rect x="792.793" y="46.182" width="7.69678" height="7.69678" transform="rotate(180 792.793 46.182)" fill="#9883F3"/>
<rect width="7.69678" height="7.69678" transform="matrix(-1 0 0 1 177.032 15.3942)" fill="#9883F3"/>
<rect width="7.69678" height="7.69678" transform="matrix(-1 0 0 1 669.642 15.3942)" fill="#9883F3"/>
<rect width="7.69678" height="7.69678" transform="matrix(-1 0 0 1 423.337 15.3942)" fill="#9883F3"/>
<rect width="7.69678" height="7.69678" transform="matrix(-1 0 0 1 915.946 15.3942)" fill="#9883F3"/>
<rect x="76.9717" y="53.8789" width="7.69678" height="7.69678" transform="rotate(-90 76.9717 53.8789)" fill="#9883F3"/>
<rect x="569.581" y="53.8789" width="7.69678" height="7.69678" transform="rotate(-90 569.581 53.8789)" fill="#9883F3"/>
<rect x="323.276" y="53.8789" width="7.69678" height="7.69678" transform="rotate(-90 323.276 53.8789)" fill="#9883F3"/>
<rect x="815.886" y="53.8789" width="7.69678" height="7.69678" transform="rotate(-90 815.886 53.8789)" fill="#9883F3"/>
<rect width="7.69678" height="7.69678" transform="matrix(4.37114e-08 1 1 -4.37114e-08 200.125 7.69727)" fill="#9883F3"/>
<rect width="7.69678" height="7.69678" transform="matrix(4.37114e-08 1 1 -4.37114e-08 692.734 7.69727)" fill="#9883F3"/>
<rect width="7.69678" height="7.69678" transform="matrix(4.37114e-08 1 1 -4.37114e-08 446.43 7.69727)" fill="#9883F3"/>
<rect width="7.69678" height="7.69678" transform="matrix(4.37114e-08 1 1 -4.37114e-08 939.039 7.69727)" fill="#9883F3"/>
<rect opacity="0.5" x="23.0918" y="0.000610352" width="7.69678" height="7.69678" fill="#9883F3"/>
<rect opacity="0.5" x="515.701" y="0.000610352" width="7.69678" height="7.69678" fill="#9883F3"/>
<rect opacity="0.5" x="269.396" y="0.000610352" width="7.69678" height="7.69678" fill="#9883F3"/>
<rect opacity="0.5" x="762.006" y="0.000610352" width="7.69678" height="7.69678" fill="#9883F3"/>
<rect opacity="0.5" width="7.69678" height="7.69678" transform="matrix(1 0 0 -1 146.245 61.5756)" fill="#9883F3"/>
<rect opacity="0.5" width="7.69678" height="7.69678" transform="matrix(1 0 0 -1 638.854 61.5756)" fill="#9883F3"/>
<rect opacity="0.5" width="7.69678" height="7.69678" transform="matrix(1 0 0 -1 392.55 61.5756)" fill="#9883F3"/>
<rect opacity="0.5" width="7.69678" height="7.69678" transform="matrix(1 0 0 -1 885.159 61.5756)" fill="#9883F3"/>
<rect opacity="0.5" x="123.152" y="23.0918" width="7.69678" height="7.69678" transform="rotate(90 123.152 23.0918)" fill="#9883F3"/>
<rect opacity="0.5" x="615.762" y="23.0918" width="7.69678" height="7.69678" transform="rotate(90 615.762 23.0918)" fill="#9883F3"/>
<rect opacity="0.5" x="369.457" y="23.0918" width="7.69678" height="7.69678" transform="rotate(90 369.457 23.0918)" fill="#9883F3"/>
<rect opacity="0.5" x="862.066" y="23.0918" width="7.69678" height="7.69678" transform="rotate(90 862.066 23.0918)" fill="#9883F3"/>
<rect opacity="0.5" width="7.69678" height="7.69678" transform="matrix(-4.37114e-08 -1 -1 4.37114e-08 246.306 38.4844)" fill="#9883F3"/>
<rect opacity="0.5" width="7.69678" height="7.69678" transform="matrix(-4.37114e-08 -1 -1 4.37114e-08 738.915 38.4844)" fill="#9883F3"/>
<rect opacity="0.5" width="7.69678" height="7.69678" transform="matrix(-4.37114e-08 -1 -1 4.37114e-08 492.61 38.4844)" fill="#9883F3"/>
<rect opacity="0.5" width="7.69678" height="7.69678" transform="matrix(-4.37114e-08 -1 -1 4.37114e-08 985.22 38.4844)" fill="#9883F3"/>
<rect opacity="0.5" x="38.4844" y="61.5758" width="7.69678" height="7.69678" transform="rotate(180 38.4844 61.5758)" fill="#9883F3"/>
<rect opacity="0.5" x="531.094" y="61.5758" width="7.69678" height="7.69678" transform="rotate(180 531.094 61.5758)" fill="#9883F3"/>
<rect opacity="0.5" x="284.789" y="61.5758" width="7.69678" height="7.69678" transform="rotate(180 284.789 61.5758)" fill="#9883F3"/>
<rect opacity="0.5" x="777.398" y="61.5758" width="7.69678" height="7.69678" transform="rotate(180 777.398 61.5758)" fill="#9883F3"/>
<rect opacity="0.5" width="7.69678" height="7.69678" transform="matrix(-1 0 0 1 161.638 0.000366211)" fill="#9883F3"/>
<rect opacity="0.5" width="7.69678" height="7.69678" transform="matrix(-1 0 0 1 654.247 0.000366211)" fill="#9883F3"/>
<rect opacity="0.5" width="7.69678" height="7.69678" transform="matrix(-1 0 0 1 407.942 0.000366211)" fill="#9883F3"/>
<rect opacity="0.5" width="7.69678" height="7.69678" transform="matrix(-1 0 0 1 900.552 0.000366211)" fill="#9883F3"/>
<rect opacity="0.5" x="61.5771" y="38.4844" width="7.69678" height="7.69678" transform="rotate(-90 61.5771 38.4844)" fill="#9883F3"/>
<rect opacity="0.5" x="554.187" y="38.4844" width="7.69678" height="7.69678" transform="rotate(-90 554.187 38.4844)" fill="#9883F3"/>
<rect opacity="0.5" x="307.882" y="38.4844" width="7.69678" height="7.69678" transform="rotate(-90 307.882 38.4844)" fill="#9883F3"/>
<rect opacity="0.5" x="800.491" y="38.4844" width="7.69678" height="7.69678" transform="rotate(-90 800.491 38.4844)" fill="#9883F3"/>
<rect opacity="0.5" width="7.69678" height="7.69678" transform="matrix(4.37114e-08 1 1 -4.37114e-08 184.73 23.0918)" fill="#9883F3"/>
<rect opacity="0.5" width="7.69678" height="7.69678" transform="matrix(4.37114e-08 1 1 -4.37114e-08 677.34 23.0918)" fill="#9883F3"/>
<rect opacity="0.5" width="7.69678" height="7.69678" transform="matrix(4.37114e-08 1 1 -4.37114e-08 431.035 23.0918)" fill="#9883F3"/>
<rect opacity="0.5" width="7.69678" height="7.69678" transform="matrix(4.37114e-08 1 1 -4.37114e-08 923.645 23.0918)" fill="#9883F3"/>
<rect opacity="0.4" x="23.0898" y="53.8785" width="7.69727" height="7.69727" fill="#9883F3"/>
<rect opacity="0.4" x="515.699" y="53.8785" width="7.69727" height="7.69727" fill="#9883F3"/>
<rect opacity="0.4" x="269.395" y="53.8785" width="7.69727" height="7.69727" fill="#9883F3"/>
<rect opacity="0.4" x="762.004" y="53.8785" width="7.69727" height="7.69727" fill="#9883F3"/>
<rect opacity="0.4" width="7.69727" height="7.69727" transform="matrix(1 0 0 -1 146.243 7.69763)" fill="#9883F3"/>
<rect opacity="0.4" width="7.69727" height="7.69727" transform="matrix(1 0 0 -1 638.853 7.69763)" fill="#9883F3"/>
<rect opacity="0.4" width="7.69727" height="7.69727" transform="matrix(1 0 0 -1 392.548 7.69763)" fill="#9883F3"/>
<rect opacity="0.4" width="7.69727" height="7.69727" transform="matrix(1 0 0 -1 885.157 7.69763)" fill="#9883F3"/>
<rect opacity="0.4" x="69.2744" y="23.0898" width="7.69727" height="7.69727" transform="rotate(90 69.2744 23.0898)" fill="#9883F3"/>
<rect opacity="0.4" x="561.884" y="23.0898" width="7.69727" height="7.69727" transform="rotate(90 561.884 23.0898)" fill="#9883F3"/>
<rect opacity="0.4" x="315.579" y="23.0898" width="7.69727" height="7.69727" transform="rotate(90 315.579 23.0898)" fill="#9883F3"/>
<rect opacity="0.4" x="808.188" y="23.0898" width="7.69727" height="7.69727" transform="rotate(90 808.188 23.0898)" fill="#9883F3"/>
<rect opacity="0.4" width="7.69727" height="7.69727" transform="matrix(-4.37114e-08 -1 -1 4.37114e-08 192.428 38.4863)" fill="#9883F3"/>
<rect opacity="0.4" width="7.69727" height="7.69727" transform="matrix(-4.37114e-08 -1 -1 4.37114e-08 685.037 38.4863)" fill="#9883F3"/>
<rect opacity="0.4" width="7.69727" height="7.69727" transform="matrix(-4.37114e-08 -1 -1 4.37114e-08 438.732 38.4863)" fill="#9883F3"/>
<rect opacity="0.4" width="7.69727" height="7.69727" transform="matrix(-4.37114e-08 -1 -1 4.37114e-08 931.342 38.4863)" fill="#9883F3"/>
<rect opacity="0.4" x="38.4863" y="7.69788" width="7.69727" height="7.69727" transform="rotate(180 38.4863 7.69788)" fill="#9883F3"/>
<rect opacity="0.4" x="531.096" y="7.69788" width="7.69727" height="7.69727" transform="rotate(180 531.096 7.69788)" fill="#9883F3"/>
<rect opacity="0.4" x="284.791" y="7.69788" width="7.69727" height="7.69727" transform="rotate(180 284.791 7.69788)" fill="#9883F3"/>
<rect opacity="0.4" x="777.4" y="7.69788" width="7.69727" height="7.69727" transform="rotate(180 777.4 7.69788)" fill="#9883F3"/>
<rect opacity="0.4" width="7.69727" height="7.69727" transform="matrix(-1 0 0 1 161.64 53.8783)" fill="#9883F3"/>
<rect opacity="0.4" width="7.69727" height="7.69727" transform="matrix(-1 0 0 1 654.249 53.8783)" fill="#9883F3"/>
<rect opacity="0.4" width="7.69727" height="7.69727" transform="matrix(-1 0 0 1 407.944 53.8783)" fill="#9883F3"/>
<rect opacity="0.4" width="7.69727" height="7.69727" transform="matrix(-1 0 0 1 900.554 53.8783)" fill="#9883F3"/>
<rect opacity="0.4" x="115.455" y="38.4863" width="7.69727" height="7.69727" transform="rotate(-90 115.455 38.4863)" fill="#9883F3"/>
<rect opacity="0.4" x="608.064" y="38.4863" width="7.69727" height="7.69727" transform="rotate(-90 608.064 38.4863)" fill="#9883F3"/>
<rect opacity="0.4" x="361.76" y="38.4863" width="7.69727" height="7.69727" transform="rotate(-90 361.76 38.4863)" fill="#9883F3"/>
<rect opacity="0.4" x="854.369" y="38.4863" width="7.69727" height="7.69727" transform="rotate(-90 854.369 38.4863)" fill="#9883F3"/>
<rect opacity="0.4" width="7.69727" height="7.69727" transform="matrix(4.37114e-08 1 1 -4.37114e-08 238.608 23.0898)" fill="#9883F3"/>
<rect opacity="0.4" width="7.69727" height="7.69727" transform="matrix(4.37114e-08 1 1 -4.37114e-08 731.218 23.0898)" fill="#9883F3"/>
<rect opacity="0.4" width="7.69727" height="7.69727" transform="matrix(4.37114e-08 1 1 -4.37114e-08 484.913 23.0898)" fill="#9883F3"/>
<rect opacity="0.4" width="7.69727" height="7.69727" transform="matrix(4.37114e-08 1 1 -4.37114e-08 977.522 23.0898)" fill="#9883F3"/>
<rect x="11.5449" y="26.9396" width="3.84863" height="3.84863" fill="#9883F3"/>
<rect x="504.154" y="26.9396" width="3.84863" height="3.84863" fill="#9883F3"/>
<rect x="257.85" y="26.9396" width="3.84863" height="3.84863" fill="#9883F3"/>
<rect x="750.459" y="26.9396" width="3.84863" height="3.84863" fill="#9883F3"/>
<rect width="3.84863" height="3.84863" transform="matrix(1 0 0 -1 134.698 34.6366)" fill="#9883F3"/>
<rect width="3.84863" height="3.84863" transform="matrix(1 0 0 -1 627.308 34.6366)" fill="#9883F3"/>
<rect width="3.84863" height="3.84863" transform="matrix(1 0 0 -1 381.003 34.6366)" fill="#9883F3"/>
<rect width="3.84863" height="3.84863" transform="matrix(1 0 0 -1 873.612 34.6366)" fill="#9883F3"/>
<rect x="96.2139" y="11.5449" width="3.84863" height="3.84863" transform="rotate(90 96.2139 11.5449)" fill="#9883F3"/>
<rect x="588.823" y="11.5449" width="3.84863" height="3.84863" transform="rotate(90 588.823 11.5449)" fill="#9883F3"/>
<rect x="342.519" y="11.5449" width="3.84863" height="3.84863" transform="rotate(90 342.519 11.5449)" fill="#9883F3"/>
<rect x="835.128" y="11.5449" width="3.84863" height="3.84863" transform="rotate(90 835.128 11.5449)" fill="#9883F3"/>
<rect width="3.84863" height="3.84863" transform="matrix(-4.37114e-08 -1 -1 4.37114e-08 219.367 50.0312)" fill="#9883F3"/>
<rect width="3.84863" height="3.84863" transform="matrix(-4.37114e-08 -1 -1 4.37114e-08 711.977 50.0312)" fill="#9883F3"/>
<rect width="3.84863" height="3.84863" transform="matrix(-4.37114e-08 -1 -1 4.37114e-08 465.672 50.0312)" fill="#9883F3"/>
<rect width="3.84863" height="3.84863" transform="matrix(-4.37114e-08 -1 -1 4.37114e-08 958.281 50.0312)" fill="#9883F3"/>
<rect x="50.0312" y="34.6368" width="3.84863" height="3.84863" transform="rotate(180 50.0312 34.6368)" fill="#9883F3"/>
<rect x="542.641" y="34.6368" width="3.84863" height="3.84863" transform="rotate(180 542.641 34.6368)" fill="#9883F3"/>
<rect x="296.336" y="34.6368" width="3.84863" height="3.84863" transform="rotate(180 296.336 34.6368)" fill="#9883F3"/>
<rect x="788.945" y="34.6368" width="3.84863" height="3.84863" transform="rotate(180 788.945 34.6368)" fill="#9883F3"/>
<rect width="3.84863" height="3.84863" transform="matrix(-1 0 0 1 173.185 26.9393)" fill="#9883F3"/>
<rect width="3.84863" height="3.84863" transform="matrix(-1 0 0 1 665.794 26.9393)" fill="#9883F3"/>
<rect width="3.84863" height="3.84863" transform="matrix(-1 0 0 1 419.489 26.9393)" fill="#9883F3"/>
<rect width="3.84863" height="3.84863" transform="matrix(-1 0 0 1 912.099 26.9393)" fill="#9883F3"/>
<rect x="88.5166" y="50.0312" width="3.84863" height="3.84863" transform="rotate(-90 88.5166 50.0312)" fill="#9883F3"/>
<rect x="581.126" y="50.0312" width="3.84863" height="3.84863" transform="rotate(-90 581.126 50.0312)" fill="#9883F3"/>
<rect x="334.821" y="50.0312" width="3.84863" height="3.84863" transform="rotate(-90 334.821 50.0312)" fill="#9883F3"/>
<rect x="827.431" y="50.0312" width="3.84863" height="3.84863" transform="rotate(-90 827.431 50.0312)" fill="#9883F3"/>
<rect width="3.84863" height="3.84863" transform="matrix(4.37114e-08 1 1 -4.37114e-08 211.67 11.5449)" fill="#9883F3"/>
<rect width="3.84863" height="3.84863" transform="matrix(4.37114e-08 1 1 -4.37114e-08 704.279 11.5449)" fill="#9883F3"/>
<rect width="3.84863" height="3.84863" transform="matrix(4.37114e-08 1 1 -4.37114e-08 457.975 11.5449)" fill="#9883F3"/>
<rect width="3.84863" height="3.84863" transform="matrix(4.37114e-08 1 1 -4.37114e-08 950.584 11.5449)" fill="#9883F3"/>
<rect x="26.9395" y="11.5458" width="3.84863" height="3.84863" fill="#9883F3"/>
<rect x="519.549" y="11.5458" width="3.84863" height="3.84863" fill="#9883F3"/>
<rect x="273.244" y="11.5458" width="3.84863" height="3.84863" fill="#9883F3"/>
<rect x="765.854" y="11.5458" width="3.84863" height="3.84863" fill="#9883F3"/>
<rect width="3.84863" height="3.84863" transform="matrix(1 0 0 -1 150.093 50.0304)" fill="#9883F3"/>
<rect width="3.84863" height="3.84863" transform="matrix(1 0 0 -1 642.702 50.0304)" fill="#9883F3"/>
<rect width="3.84863" height="3.84863" transform="matrix(1 0 0 -1 396.397 50.0304)" fill="#9883F3"/>
<rect width="3.84863" height="3.84863" transform="matrix(1 0 0 -1 889.007 50.0304)" fill="#9883F3"/>
<rect x="111.607" y="26.9395" width="3.84863" height="3.84863" transform="rotate(90 111.607 26.9395)" fill="#9883F3"/>
<rect x="604.217" y="26.9395" width="3.84863" height="3.84863" transform="rotate(90 604.217 26.9395)" fill="#9883F3"/>
<rect x="357.912" y="26.9395" width="3.84863" height="3.84863" transform="rotate(90 357.912 26.9395)" fill="#9883F3"/>
<rect x="850.521" y="26.9395" width="3.84863" height="3.84863" transform="rotate(90 850.521 26.9395)" fill="#9883F3"/>
<rect width="3.84863" height="3.84863" transform="matrix(-4.37114e-08 -1 -1 4.37114e-08 234.761 34.6367)" fill="#9883F3"/>
<rect width="3.84863" height="3.84863" transform="matrix(-4.37114e-08 -1 -1 4.37114e-08 727.37 34.6367)" fill="#9883F3"/>
<rect width="3.84863" height="3.84863" transform="matrix(-4.37114e-08 -1 -1 4.37114e-08 481.065 34.6367)" fill="#9883F3"/>
<rect width="3.84863" height="3.84863" transform="matrix(-4.37114e-08 -1 -1 4.37114e-08 973.675 34.6367)" fill="#9883F3"/>
<rect x="34.6367" y="50.0306" width="3.84863" height="3.84863" transform="rotate(180 34.6367 50.0306)" fill="#9883F3"/>
<rect x="527.246" y="50.0306" width="3.84863" height="3.84863" transform="rotate(180 527.246 50.0306)" fill="#9883F3"/>
<rect x="280.941" y="50.0306" width="3.84863" height="3.84863" transform="rotate(180 280.941 50.0306)" fill="#9883F3"/>
<rect x="773.551" y="50.0306" width="3.84863" height="3.84863" transform="rotate(180 773.551 50.0306)" fill="#9883F3"/>
<rect width="3.84863" height="3.84863" transform="matrix(-1 0 0 1 157.79 11.5455)" fill="#9883F3"/>
<rect width="3.84863" height="3.84863" transform="matrix(-1 0 0 1 650.399 11.5455)" fill="#9883F3"/>
<rect width="3.84863" height="3.84863" transform="matrix(-1 0 0 1 404.095 11.5455)" fill="#9883F3"/>
<rect width="3.84863" height="3.84863" transform="matrix(-1 0 0 1 896.704 11.5455)" fill="#9883F3"/>
<rect x="73.123" y="34.6367" width="3.84863" height="3.84863" transform="rotate(-90 73.123 34.6367)" fill="#9883F3"/>
<rect x="565.732" y="34.6367" width="3.84863" height="3.84863" transform="rotate(-90 565.732 34.6367)" fill="#9883F3"/>
<rect x="319.428" y="34.6367" width="3.84863" height="3.84863" transform="rotate(-90 319.428 34.6367)" fill="#9883F3"/>
<rect x="812.037" y="34.6367" width="3.84863" height="3.84863" transform="rotate(-90 812.037 34.6367)" fill="#9883F3"/>
<rect width="3.84863" height="3.84863" transform="matrix(4.37114e-08 1 1 -4.37114e-08 196.276 26.9395)" fill="#9883F3"/>
<rect width="3.84863" height="3.84863" transform="matrix(4.37114e-08 1 1 -4.37114e-08 688.886 26.9395)" fill="#9883F3"/>
<rect width="3.84863" height="3.84863" transform="matrix(4.37114e-08 1 1 -4.37114e-08 442.581 26.9395)" fill="#9883F3"/>
<rect width="3.84863" height="3.84863" transform="matrix(4.37114e-08 1 1 -4.37114e-08 935.19 26.9395)" fill="#9883F3"/>
<rect y="30.7877" width="7.69727" height="7.69727" fill="#9883F3"/>
<rect x="492.609" y="30.7877" width="7.69727" height="7.69727" fill="#9883F3"/>
<rect x="246.305" y="30.7877" width="7.69727" height="7.69727" fill="#9883F3"/>
<rect x="738.914" y="30.7877" width="7.69727" height="7.69727" fill="#9883F3"/>
<rect width="7.69727" height="7.69727" transform="matrix(1 0 0 -1 123.153 30.7885)" fill="#9883F3"/>
<rect width="7.69727" height="7.69727" transform="matrix(1 0 0 -1 615.763 30.7885)" fill="#9883F3"/>
<rect width="7.69727" height="7.69727" transform="matrix(1 0 0 -1 369.458 30.7885)" fill="#9883F3"/>
<rect width="7.69727" height="7.69727" transform="matrix(1 0 0 -1 862.067 30.7885)" fill="#9883F3"/>
<rect x="92.3652" width="7.69727" height="7.69727" transform="rotate(90 92.3652 0)" fill="#9883F3"/>
<rect x="584.975" width="7.69727" height="7.69727" transform="rotate(90 584.975 0)" fill="#9883F3"/>
<rect x="338.67" width="7.69727" height="7.69727" transform="rotate(90 338.67 0)" fill="#9883F3"/>
<rect x="831.279" width="7.69727" height="7.69727" transform="rotate(90 831.279 0)" fill="#9883F3"/>
<rect width="7.69727" height="7.69727" transform="matrix(-4.37114e-08 -1 -1 4.37114e-08 215.519 61.5762)" fill="#9883F3"/>
<rect width="7.69727" height="7.69727" transform="matrix(-4.37114e-08 -1 -1 4.37114e-08 708.128 61.5762)" fill="#9883F3"/>
<rect width="7.69727" height="7.69727" transform="matrix(-4.37114e-08 -1 -1 4.37114e-08 461.823 61.5762)" fill="#9883F3"/>
<rect width="7.69727" height="7.69727" transform="matrix(-4.37114e-08 -1 -1 4.37114e-08 954.433 61.5762)" fill="#9883F3"/>
<rect x="61.5762" y="30.7887" width="7.69727" height="7.69727" transform="rotate(180 61.5762 30.7887)" fill="#9883F3"/>
<rect x="554.186" y="30.7887" width="7.69727" height="7.69727" transform="rotate(180 554.186 30.7887)" fill="#9883F3"/>
<rect x="307.881" y="30.7887" width="7.69727" height="7.69727" transform="rotate(180 307.881 30.7887)" fill="#9883F3"/>
<rect x="800.49" y="30.7887" width="7.69727" height="7.69727" transform="rotate(180 800.49 30.7887)" fill="#9883F3"/>
<rect width="7.69727" height="7.69727" transform="matrix(-1 0 0 1 184.729 30.7875)" fill="#9883F3"/>
<rect width="7.69727" height="7.69727" transform="matrix(-1 0 0 1 677.339 30.7875)" fill="#9883F3"/>
<rect width="7.69727" height="7.69727" transform="matrix(-1 0 0 1 431.034 30.7875)" fill="#9883F3"/>
<rect width="7.69727" height="7.69727" transform="matrix(-1 0 0 1 923.644 30.7875)" fill="#9883F3"/>
<rect x="92.3643" y="61.5762" width="7.69727" height="7.69727" transform="rotate(-90 92.3643 61.5762)" fill="#9883F3"/>
<rect x="584.974" y="61.5762" width="7.69727" height="7.69727" transform="rotate(-90 584.974 61.5762)" fill="#9883F3"/>
<rect x="338.669" y="61.5762" width="7.69727" height="7.69727" transform="rotate(-90 338.669 61.5762)" fill="#9883F3"/>
<rect x="831.278" y="61.5762" width="7.69727" height="7.69727" transform="rotate(-90 831.278 61.5762)" fill="#9883F3"/>
<rect width="7.69727" height="7.69727" transform="matrix(4.37114e-08 1 1 -4.37114e-08 215.518 0)" fill="#9883F3"/>
<rect width="7.69727" height="7.69727" transform="matrix(4.37114e-08 1 1 -4.37114e-08 708.127 0)" fill="#9883F3"/>
<rect width="7.69727" height="7.69727" transform="matrix(4.37114e-08 1 1 -4.37114e-08 461.822 0)" fill="#9883F3"/>
<rect width="7.69727" height="7.69727" transform="matrix(4.37114e-08 1 1 -4.37114e-08 954.432 0)" fill="#9883F3"/>
<rect y="15.3942" width="3.84863" height="3.84863" fill="#9883F3"/>
<rect x="492.609" y="15.3942" width="3.84863" height="3.84863" fill="#9883F3"/>
<rect x="246.305" y="15.3942" width="3.84863" height="3.84863" fill="#9883F3"/>
<rect x="738.914" y="15.3942" width="3.84863" height="3.84863" fill="#9883F3"/>
<rect width="3.84863" height="3.84863" transform="matrix(1 0 0 -1 123.153 46.182)" fill="#9883F3"/>
<rect width="3.84863" height="3.84863" transform="matrix(1 0 0 -1 615.763 46.182)" fill="#9883F3"/>
<rect width="3.84863" height="3.84863" transform="matrix(1 0 0 -1 369.458 46.182)" fill="#9883F3"/>
<rect width="3.84863" height="3.84863" transform="matrix(1 0 0 -1 862.067 46.182)" fill="#9883F3"/>
<rect x="61.5762" y="46.1823" width="3.84863" height="3.84863" transform="rotate(180 61.5762 46.1823)" fill="#9883F3"/>
<rect x="554.186" y="46.1823" width="3.84863" height="3.84863" transform="rotate(180 554.186 46.1823)" fill="#9883F3"/>
<rect x="307.881" y="46.1823" width="3.84863" height="3.84863" transform="rotate(180 307.881 46.1823)" fill="#9883F3"/>
<rect x="800.49" y="46.1823" width="3.84863" height="3.84863" transform="rotate(180 800.49 46.1823)" fill="#9883F3"/>
<rect width="3.84863" height="3.84863" transform="matrix(-1 0 0 1 184.729 15.3939)" fill="#9883F3"/>
<rect width="3.84863" height="3.84863" transform="matrix(-1 0 0 1 677.339 15.3939)" fill="#9883F3"/>
<rect width="3.84863" height="3.84863" transform="matrix(-1 0 0 1 431.034 15.3939)" fill="#9883F3"/>
<rect width="3.84863" height="3.84863" transform="matrix(-1 0 0 1 923.644 15.3939)" fill="#9883F3"/>
<rect x="76.9707" y="61.5762" width="3.84863" height="3.84863" transform="rotate(-90 76.9707 61.5762)" fill="#9883F3"/>
<rect x="569.58" y="61.5762" width="3.84863" height="3.84863" transform="rotate(-90 569.58 61.5762)" fill="#9883F3"/>
<rect x="323.275" y="61.5762" width="3.84863" height="3.84863" transform="rotate(-90 323.275 61.5762)" fill="#9883F3"/>
<rect x="815.885" y="61.5762" width="3.84863" height="3.84863" transform="rotate(-90 815.885 61.5762)" fill="#9883F3"/>
<rect width="3.84863" height="3.84863" transform="matrix(4.37114e-08 1 1 -4.37114e-08 200.124 0)" fill="#9883F3"/>
<rect width="3.84863" height="3.84863" transform="matrix(4.37114e-08 1 1 -4.37114e-08 692.733 0)" fill="#9883F3"/>
<rect width="3.84863" height="3.84863" transform="matrix(4.37114e-08 1 1 -4.37114e-08 446.429 0)" fill="#9883F3"/>
<rect width="3.84863" height="3.84863" transform="matrix(4.37114e-08 1 1 -4.37114e-08 939.038 0)" fill="#9883F3"/>
<rect x="15.3945" y="0.000366211" width="3.84863" height="3.84863" fill="#9883F3"/>
<rect x="508.004" y="0.000366211" width="3.84863" height="3.84863" fill="#9883F3"/>
<rect x="261.699" y="0.000366211" width="3.84863" height="3.84863" fill="#9883F3"/>
<rect x="754.309" y="0.000366211" width="3.84863" height="3.84863" fill="#9883F3"/>
<rect width="3.84863" height="3.84863" transform="matrix(1 0 0 -1 138.548 61.5758)" fill="#9883F3"/>
<rect width="3.84863" height="3.84863" transform="matrix(1 0 0 -1 631.157 61.5758)" fill="#9883F3"/>
<rect width="3.84863" height="3.84863" transform="matrix(1 0 0 -1 384.853 61.5758)" fill="#9883F3"/>
<rect width="3.84863" height="3.84863" transform="matrix(1 0 0 -1 877.462 61.5758)" fill="#9883F3"/>
<rect x="123.153" y="15.3945" width="3.84863" height="3.84863" transform="rotate(90 123.153 15.3945)" fill="#9883F3"/>
<rect x="615.763" y="15.3945" width="3.84863" height="3.84863" transform="rotate(90 615.763 15.3945)" fill="#9883F3"/>
<rect x="369.458" y="15.3945" width="3.84863" height="3.84863" transform="rotate(90 369.458 15.3945)" fill="#9883F3"/>
<rect x="862.067" y="15.3945" width="3.84863" height="3.84863" transform="rotate(90 862.067 15.3945)" fill="#9883F3"/>
<rect width="3.84863" height="3.84863" transform="matrix(-4.37114e-08 -1 -1 4.37114e-08 246.307 46.1816)" fill="#9883F3"/>
<rect width="3.84863" height="3.84863" transform="matrix(-4.37114e-08 -1 -1 4.37114e-08 738.916 46.1816)" fill="#9883F3"/>
<rect width="3.84863" height="3.84863" transform="matrix(-4.37114e-08 -1 -1 4.37114e-08 492.611 46.1816)" fill="#9883F3"/>
<rect width="3.84863" height="3.84863" transform="matrix(-4.37114e-08 -1 -1 4.37114e-08 985.221 46.1816)" fill="#9883F3"/>
</g>
</svg>
