<svg width="41" height="41" viewBox="0 0 41 41" fill="none" xmlns="http://www.w3.org/2000/svg">
<g clip-path="url(#clip0_6007_13719)">
<path d="M15.8125 28.6973H14.25C12.7421 28.6973 11.5156 29.9238 11.5156 31.4316V37.6816C11.5156 39.1895 12.7421 40.416 14.25 40.416H15.8125C17.3204 40.416 18.5469 39.1895 18.5469 37.6816V31.4316C18.5469 29.9238 17.3204 28.6973 15.8125 28.6973ZM16.2031 37.6816C16.2031 37.8971 16.028 38.0723 15.8125 38.0723H14.25C14.0345 38.0723 13.8594 37.8971 13.8594 37.6816V31.4316C13.8594 31.2162 14.0345 31.041 14.25 31.041H15.8125C16.028 31.041 16.2031 31.2162 16.2031 31.4316V37.6816Z" fill="url(#paint0_linear_6007_13719)"/>
<path d="M6.4375 38.0723H5.26562V29.8691C5.26562 29.2219 4.74103 28.6973 4.09375 28.6973H1.75C1.10272 28.6973 0.578125 29.2219 0.578125 29.8691C0.578125 30.5164 1.10272 31.041 1.75 31.041H2.92188V38.0723H1.75C1.10272 38.0723 0.578125 38.5969 0.578125 39.2441C0.578125 39.8914 1.10272 40.416 1.75 40.416H6.4375C7.08478 40.416 7.60938 39.8914 7.60938 39.2441C7.60938 38.5969 7.08478 38.0723 6.4375 38.0723Z" fill="url(#paint1_linear_6007_13719)"/>
<path d="M37.6875 28.6973H36.125C34.6171 28.6973 33.3906 29.9238 33.3906 31.4316V37.6816C33.3906 39.1895 34.6171 40.416 36.125 40.416H37.6875C39.1954 40.416 40.4219 39.1895 40.4219 37.6816V31.4316C40.4219 29.9238 39.1954 28.6973 37.6875 28.6973ZM38.0781 37.6816C38.0781 37.8971 37.903 38.0723 37.6875 38.0723H36.125C35.9095 38.0723 35.7344 37.8971 35.7344 37.6816V31.4316C35.7344 31.2162 35.9095 31.041 36.125 31.041H37.6875C37.903 31.041 38.0781 31.2162 38.0781 31.4316V37.6816Z" fill="url(#paint2_linear_6007_13719)"/>
<path d="M28.3125 38.0723H27.1406V29.8691C27.1406 29.2219 26.616 28.6973 25.9688 28.6973H23.625C22.9777 28.6973 22.4531 29.2219 22.4531 29.8691C22.4531 30.5164 22.9777 31.041 23.625 31.041H24.7969V38.0723H23.625C22.9777 38.0723 22.4531 38.5969 22.4531 39.2441C22.4531 39.8914 22.9777 40.416 23.625 40.416H28.3125C28.9598 40.416 29.4844 39.8914 29.4844 39.2441C29.4844 38.5969 28.9598 38.0723 28.3125 38.0723Z" fill="url(#paint3_linear_6007_13719)"/>
<path d="M15.8125 14.5566H14.25C12.7421 14.5566 11.5156 15.7831 11.5156 17.291V23.541C11.5156 25.0489 12.7421 26.2754 14.25 26.2754H15.8125C17.3204 26.2754 18.5469 25.0489 18.5469 23.541V17.291C18.5469 15.7831 17.3204 14.5566 15.8125 14.5566ZM16.2031 23.541C16.2031 23.7565 16.028 23.9316 15.8125 23.9316H14.25C14.0345 23.9316 13.8594 23.7565 13.8594 23.541V17.291C13.8594 17.0756 14.0345 16.9004 14.25 16.9004H15.8125C16.028 16.9004 16.2031 17.0756 16.2031 17.291V23.541Z" fill="url(#paint4_linear_6007_13719)"/>
<path d="M6.4375 23.9316H5.26562V15.7285C5.26562 15.0812 4.74103 14.5566 4.09375 14.5566H1.75C1.10272 14.5566 0.578125 15.0812 0.578125 15.7285C0.578125 16.3758 1.10272 16.9004 1.75 16.9004H2.92188V23.9316H1.75C1.10272 23.9316 0.578125 24.4562 0.578125 25.1035C0.578125 25.7508 1.10272 26.2754 1.75 26.2754H6.4375C7.08478 26.2754 7.60938 25.7508 7.60938 25.1035C7.60938 24.4562 7.08478 23.9316 6.4375 23.9316Z" fill="url(#paint5_linear_6007_13719)"/>
<path d="M26.75 14.5566H25.1875C23.6796 14.5566 22.4531 15.7831 22.4531 17.291V23.541C22.4531 25.0489 23.6796 26.2754 25.1875 26.2754H26.75C28.2579 26.2754 29.4844 25.0489 29.4844 23.541V17.291C29.4844 15.7831 28.2579 14.5566 26.75 14.5566ZM27.1406 23.541C27.1406 23.7565 26.9655 23.9316 26.75 23.9316H25.1875C24.972 23.9316 24.7969 23.7565 24.7969 23.541V17.291C24.7969 17.0756 24.972 16.9004 25.1875 16.9004H26.75C26.9655 16.9004 27.1406 17.0756 27.1406 17.291V23.541Z" fill="url(#paint6_linear_6007_13719)"/>
<path d="M39.25 23.9316H38.0781V15.7285C38.0781 15.0812 37.5535 14.5566 36.9062 14.5566H34.5625C33.9152 14.5566 33.3906 15.0812 33.3906 15.7285C33.3906 16.3758 33.9152 16.9004 34.5625 16.9004H35.7344V23.9316H34.5625C33.9152 23.9316 33.3906 24.4562 33.3906 25.1035C33.3906 25.7508 33.9152 26.2754 34.5625 26.2754H39.25C39.8973 26.2754 40.4219 25.7508 40.4219 25.1035C40.4219 24.4562 39.8973 23.9316 39.25 23.9316Z" fill="url(#paint7_linear_6007_13719)"/>
<path d="M4.875 0.416016H3.3125C1.80463 0.416016 0.578125 1.64252 0.578125 3.15039V9.40039C0.578125 10.9083 1.80463 12.1348 3.3125 12.1348H4.875C6.38287 12.1348 7.60938 10.9083 7.60938 9.40039V3.15039C7.60938 1.64252 6.38287 0.416016 4.875 0.416016ZM5.26562 9.40039C5.26562 9.61584 5.09045 9.79102 4.875 9.79102H3.3125C3.09705 9.79102 2.92188 9.61584 2.92188 9.40039V3.15039C2.92188 2.93494 3.09705 2.75977 3.3125 2.75977H4.875C5.09045 2.75977 5.26562 2.93494 5.26562 3.15039V9.40039Z" fill="url(#paint8_linear_6007_13719)"/>
<path d="M17.375 9.79102H16.2031V1.58789C16.2031 0.940613 15.6785 0.416016 15.0312 0.416016H12.6875C12.0402 0.416016 11.5156 0.940613 11.5156 1.58789C11.5156 2.23517 12.0402 2.75977 12.6875 2.75977H13.8594V9.79102H12.6875C12.0402 9.79102 11.5156 10.3156 11.5156 10.9629C11.5156 11.6102 12.0402 12.1348 12.6875 12.1348H17.375C18.0223 12.1348 18.5469 11.6102 18.5469 10.9629C18.5469 10.3156 18.0223 9.79102 17.375 9.79102Z" fill="url(#paint9_linear_6007_13719)"/>
<path d="M37.6875 0.416016H36.125C34.6171 0.416016 33.3906 1.64252 33.3906 3.15039V9.40039C33.3906 10.9083 34.6171 12.1348 36.125 12.1348H37.6875C39.1954 12.1348 40.4219 10.9083 40.4219 9.40039V3.15039C40.4219 1.64252 39.1954 0.416016 37.6875 0.416016ZM38.0781 9.40039C38.0781 9.61584 37.903 9.79102 37.6875 9.79102H36.125C35.9095 9.79102 35.7344 9.61584 35.7344 9.40039V3.15039C35.7344 2.93494 35.9095 2.75977 36.125 2.75977H37.6875C37.903 2.75977 38.0781 2.93494 38.0781 3.15039V9.40039Z" fill="url(#paint10_linear_6007_13719)"/>
<path d="M28.3125 9.79102H27.1406V1.58789C27.1406 0.940613 26.616 0.416016 25.9688 0.416016H23.625C22.9777 0.416016 22.4531 0.940613 22.4531 1.58789C22.4531 2.23517 22.9777 2.75977 23.625 2.75977H24.7969V9.79102H23.625C22.9777 9.79102 22.4531 10.3156 22.4531 10.9629C22.4531 11.6102 22.9777 12.1348 23.625 12.1348H28.3125C28.9598 12.1348 29.4844 11.6102 29.4844 10.9629C29.4844 10.3156 28.9598 9.79102 28.3125 9.79102Z" fill="url(#paint11_linear_6007_13719)"/>
</g>
<defs>
<linearGradient id="paint0_linear_6007_13719" x1="15.0312" y1="28.6973" x2="15.0312" y2="40.416" gradientUnits="userSpaceOnUse">
<stop stop-color="#6346E4"/>
<stop offset="1" stop-color="#6C3E9D"/>
</linearGradient>
<linearGradient id="paint1_linear_6007_13719" x1="4.09375" y1="28.6973" x2="4.09375" y2="40.416" gradientUnits="userSpaceOnUse">
<stop stop-color="#6346E4"/>
<stop offset="1" stop-color="#6C3E9D"/>
</linearGradient>
<linearGradient id="paint2_linear_6007_13719" x1="36.9062" y1="28.6973" x2="36.9062" y2="40.416" gradientUnits="userSpaceOnUse">
<stop stop-color="#6346E4"/>
<stop offset="1" stop-color="#6C3E9D"/>
</linearGradient>
<linearGradient id="paint3_linear_6007_13719" x1="25.9688" y1="28.6973" x2="25.9688" y2="40.416" gradientUnits="userSpaceOnUse">
<stop stop-color="#6346E4"/>
<stop offset="1" stop-color="#6C3E9D"/>
</linearGradient>
<linearGradient id="paint4_linear_6007_13719" x1="15.0312" y1="14.5566" x2="15.0312" y2="26.2754" gradientUnits="userSpaceOnUse">
<stop stop-color="#6346E4"/>
<stop offset="1" stop-color="#6C3E9D"/>
</linearGradient>
<linearGradient id="paint5_linear_6007_13719" x1="4.09375" y1="14.5566" x2="4.09375" y2="26.2754" gradientUnits="userSpaceOnUse">
<stop stop-color="#6346E4"/>
<stop offset="1" stop-color="#6C3E9D"/>
</linearGradient>
<linearGradient id="paint6_linear_6007_13719" x1="25.9688" y1="14.5566" x2="25.9688" y2="26.2754" gradientUnits="userSpaceOnUse">
<stop stop-color="#6346E4"/>
<stop offset="1" stop-color="#6C3E9D"/>
</linearGradient>
<linearGradient id="paint7_linear_6007_13719" x1="36.9062" y1="14.5566" x2="36.9062" y2="26.2754" gradientUnits="userSpaceOnUse">
<stop stop-color="#6346E4"/>
<stop offset="1" stop-color="#6C3E9D"/>
</linearGradient>
<linearGradient id="paint8_linear_6007_13719" x1="4.09375" y1="0.416016" x2="4.09375" y2="12.1348" gradientUnits="userSpaceOnUse">
<stop stop-color="#6346E4"/>
<stop offset="1" stop-color="#6C3E9D"/>
</linearGradient>
<linearGradient id="paint9_linear_6007_13719" x1="15.0312" y1="0.416016" x2="15.0313" y2="12.1348" gradientUnits="userSpaceOnUse">
<stop stop-color="#6346E4"/>
<stop offset="1" stop-color="#6C3E9D"/>
</linearGradient>
<linearGradient id="paint10_linear_6007_13719" x1="36.9062" y1="0.416016" x2="36.9062" y2="12.1348" gradientUnits="userSpaceOnUse">
<stop stop-color="#6346E4"/>
<stop offset="1" stop-color="#6C3E9D"/>
</linearGradient>
<linearGradient id="paint11_linear_6007_13719" x1="25.9688" y1="0.416016" x2="25.9688" y2="12.1348" gradientUnits="userSpaceOnUse">
<stop stop-color="#6346E4"/>
<stop offset="1" stop-color="#6C3E9D"/>
</linearGradient>
<clipPath id="clip0_6007_13719">
<rect width="40" height="40" fill="white" transform="translate(0.5 0.416016)"/>
</clipPath>
</defs>
</svg>
