<svg width="41" height="41" viewBox="0 0 41 41" fill="none" xmlns="http://www.w3.org/2000/svg">
<g clip-path="url(#clip0_6007_13713)">
<path d="M35.409 5.71536L23.2905 0.317894C21.512 -0.467944 18.8237 -0.467944 17.0452 0.317894L4.92672 5.71536C1.86609 7.08023 1.41113 8.94143 1.41113 9.93406C1.41113 10.9267 1.86609 12.7879 4.92672 14.1528L17.0452 19.5503C17.9344 19.9432 19.0511 20.15 20.1679 20.15C21.2846 20.15 22.4013 19.9432 23.2905 19.5503L35.409 14.1528C38.4696 12.7879 38.9246 10.9267 38.9246 9.93406C38.9246 8.94143 38.4903 7.08023 35.409 5.71536Z" fill="url(#paint0_linear_6007_13713)"/>
<path d="M20.1695 30.8386C19.3837 30.8386 18.5978 30.6731 17.874 30.3629L3.93579 24.1589C1.80576 23.2077 0.151367 20.664 0.151367 18.3272C0.151367 17.4793 0.833804 16.7969 1.68168 16.7969C2.52956 16.7969 3.212 17.4793 3.212 18.3272C3.212 19.4439 4.14259 20.8915 5.17659 21.3465L19.1148 27.5504C19.7766 27.84 20.5418 27.84 21.2035 27.5504L35.1418 21.3465C36.1758 20.8915 37.1064 19.4646 37.1064 18.3272C37.1064 17.4793 37.7888 16.7969 38.6367 16.7969C39.4846 16.7969 40.167 17.4793 40.167 18.3272C40.167 20.6433 38.5126 23.2077 36.3826 24.1589L22.4443 30.3629C21.7412 30.6731 20.9554 30.8386 20.1695 30.8386Z" fill="url(#paint1_linear_6007_13713)"/>
<path d="M20.1695 41.0983C19.3837 41.0983 18.5978 40.9329 17.874 40.6227L3.93579 34.4187C1.64032 33.4054 0.151367 31.1099 0.151367 28.587C0.151367 27.7391 0.833804 27.0566 1.68168 27.0566C2.52956 27.0566 3.212 27.7391 3.212 28.587C3.212 29.8898 3.97715 31.0685 5.17659 31.6062L19.1148 37.8102C19.7766 38.0997 20.5418 38.0997 21.2035 37.8102L35.1418 31.6062C36.3205 31.0892 37.1064 29.8898 37.1064 28.587C37.1064 27.7391 37.7888 27.0566 38.6367 27.0566C39.4846 27.0566 40.167 27.7391 40.167 28.587C40.167 31.1099 38.6781 33.3847 36.3826 34.4187L22.4443 40.6227C21.7412 40.9329 20.9554 41.0983 20.1695 41.0983Z" fill="url(#paint2_linear_6007_13713)"/>
</g>
<defs>
<linearGradient id="paint0_linear_6007_13713" x1="20.1678" y1="-0.271484" x2="20.1678" y2="20.15" gradientUnits="userSpaceOnUse">
<stop stop-color="#6346E4"/>
<stop offset="1" stop-color="#6C3E9D"/>
</linearGradient>
<linearGradient id="paint1_linear_6007_13713" x1="20.1592" y1="16.7969" x2="20.1592" y2="30.8386" gradientUnits="userSpaceOnUse">
<stop stop-color="#6346E4"/>
<stop offset="1" stop-color="#6C3E9D"/>
</linearGradient>
<linearGradient id="paint2_linear_6007_13713" x1="20.1592" y1="27.0566" x2="20.1592" y2="41.0983" gradientUnits="userSpaceOnUse">
<stop stop-color="#6346E4"/>
<stop offset="1" stop-color="#6C3E9D"/>
</linearGradient>
<clipPath id="clip0_6007_13713">
<rect width="40" height="40" fill="white" transform="translate(0.166992 0.416016)"/>
</clipPath>
</defs>
</svg>
