<svg width="41" height="41" viewBox="0 0 41 41" fill="none" xmlns="http://www.w3.org/2000/svg">
<g clip-path="url(#clip0_6007_13747)">
<path d="M34.8965 2.91602H22.0059V1.58789C22.0059 0.940703 21.4812 0.416016 20.834 0.416016C20.1868 0.416016 19.6621 0.940703 19.6621 1.58789V2.91602H6.77148C4.40219 2.91602 2.47461 4.84359 2.47461 7.21289V24.791C2.47461 27.1603 4.40219 29.0879 6.77148 29.0879H34.8965C37.2658 29.0879 39.1934 27.1603 39.1934 24.791V7.21289C39.1934 4.84359 37.2658 2.91602 34.8965 2.91602ZM16.0991 9.01805C15.6415 8.56039 15.6415 7.81844 16.0991 7.36078C16.5568 6.90312 17.2987 6.90312 17.7564 7.36078L18.4902 8.09469L19.2241 7.36078C19.6818 6.90312 20.4237 6.90312 20.8814 7.36078C21.3391 7.81844 21.3391 8.56039 20.8814 9.01805L20.1475 9.75195L20.8814 10.4859C21.3391 10.9435 21.3391 11.6855 20.8814 12.1431C20.4237 12.6008 19.6818 12.6008 19.2241 12.1431L18.4902 11.4092L17.7563 12.1431C17.2987 12.6008 16.5567 12.6008 16.0991 12.1431C15.6414 11.6855 15.6414 10.9435 16.0991 10.4859L16.833 9.75195L16.0991 9.01805ZM12.2876 22.9859C12.7452 23.4435 12.7452 24.1855 12.2876 24.6431C11.8299 25.1008 11.088 25.1008 10.6303 24.6431L9.89648 23.9092L9.16258 24.6431C8.70492 25.1008 7.96297 25.1008 7.50531 24.6431C7.04766 24.1855 7.04766 23.4435 7.50531 22.9859L8.23922 22.252L7.50531 21.518C7.04766 21.0604 7.04766 20.3184 7.50531 19.8608C7.96297 19.4031 8.70492 19.4031 9.16258 19.8608L9.89648 20.5947L10.6304 19.8608C11.088 19.4031 11.83 19.4031 12.2877 19.8608C12.7453 20.3184 12.7453 21.0604 12.2877 21.518L11.5538 22.252L12.2876 22.9859ZM34.1626 22.9859C34.6202 23.4435 34.6202 24.1855 34.1626 24.6431C33.7049 25.1008 32.963 25.1008 32.5053 24.6431L31.7715 23.9092L31.0376 24.6431C30.5799 25.1008 29.838 25.1008 29.3803 24.6431C28.9227 24.1855 28.9227 23.4435 29.3803 22.9859L30.1142 22.252L29.3803 21.518C28.9227 21.0604 28.9227 20.3184 29.3803 19.8608C29.838 19.4031 30.5799 19.4031 31.0376 19.8608L31.7715 20.5947L32.5054 19.8608C32.963 19.4031 33.705 19.4031 34.1627 19.8608C34.6203 20.3184 34.6203 21.0604 34.1627 21.518L33.4288 22.252L34.1626 22.9859ZM34.1626 13.3149L31.4282 16.0493C30.9705 16.507 30.2286 16.507 29.7709 16.0493C29.3133 15.5916 29.3133 14.8497 29.7709 14.392L30.5048 13.6581H27.084C26.007 13.6581 25.1309 14.5343 25.1309 15.6112V20.6894C25.1309 23.0587 23.2033 24.9862 20.834 24.9862C18.4647 24.9862 16.5371 23.0587 16.5371 20.6894V19.1269C16.5371 18.0499 15.6609 17.1737 14.584 17.1737H8.33398C7.6868 17.1737 7.16211 16.6491 7.16211 16.0019C7.16211 15.3547 7.6868 14.83 8.33398 14.83H14.584C16.9533 14.83 18.8809 16.7576 18.8809 19.1269V20.6894C18.8809 21.7663 19.757 22.6425 20.834 22.6425C21.9109 22.6425 22.7871 21.7663 22.7871 20.6894V15.6112C22.7871 13.242 24.7147 11.3144 27.084 11.3144H30.5048L29.7709 10.5805C29.3133 10.1228 29.3133 9.38086 29.7709 8.9232C30.2286 8.46555 30.9705 8.46555 31.4282 8.9232L34.1626 11.6576C34.6202 12.1153 34.6202 12.8573 34.1626 13.3149Z" fill="url(#paint0_linear_6007_13747)"/>
<path d="M29.0316 31.4316H26.5794L27.4207 34.166H14.2477L15.0891 31.4316H12.6369L10.3392 38.8991C10.1489 39.5177 10.4961 40.1735 11.1147 40.3638C11.7333 40.5541 12.3891 40.207 12.5794 39.5884L13.5266 36.5098H28.1419L29.0891 39.5884C29.2795 40.207 29.9352 40.5542 30.5538 40.3639C31.1724 40.1736 31.5196 39.5178 31.3293 38.8992L29.0316 31.4316Z" fill="url(#paint1_linear_6007_13747)"/>
</g>
<defs>
<linearGradient id="paint0_linear_6007_13747" x1="20.834" y1="0.416016" x2="20.834" y2="29.0879" gradientUnits="userSpaceOnUse">
<stop stop-color="#6346E4"/>
<stop offset="1" stop-color="#6C3E9D"/>
</linearGradient>
<linearGradient id="paint1_linear_6007_13747" x1="20.8343" y1="31.4316" x2="20.8343" y2="40.416" gradientUnits="userSpaceOnUse">
<stop stop-color="#6346E4"/>
<stop offset="1" stop-color="#6C3E9D"/>
</linearGradient>
<clipPath id="clip0_6007_13747">
<rect width="40" height="40" fill="white" transform="translate(0.833984 0.416016)"/>
</clipPath>
</defs>
</svg>
