<svg width="182" height="46" viewBox="0 0 182 46" fill="none" xmlns="http://www.w3.org/2000/svg">
<path opacity="0.2" d="M62.9419 13.5264C63.1704 13.3713 63.2299 13.0604 63.0748 12.8319L60.5477 9.10852C60.3926 8.88004 60.0817 8.82053 59.8532 8.97561C59.6247 9.13068 59.5652 9.44162 59.7203 9.67011L61.9666 12.9798L58.657 15.2261C58.4285 15.3812 58.369 15.6921 58.524 15.9206C58.6791 16.1491 58.9901 16.2086 59.2185 16.0535L62.9419 13.5264ZM37.4515 25.7737C37.5094 25.4797 37.5836 25.1707 37.6751 24.8496L36.7135 24.5753C36.6146 24.922 36.5338 25.2581 36.4704 25.5806L37.4515 25.7737ZM38.3332 23.0442C38.5808 22.4852 38.8759 21.9113 39.2223 21.3347L38.365 20.8198C37.9971 21.4324 37.6829 22.043 37.4189 22.6392L38.3332 23.0442ZM40.314 19.7419C40.6968 19.2491 41.1202 18.7626 41.5864 18.2902L40.8746 17.5878C40.3799 18.0891 39.9306 18.6053 39.5242 19.1285L40.314 19.7419ZM43.0226 16.9966C43.5118 16.6053 44.0368 16.2309 44.5995 15.8786L44.0688 15.031C43.4731 15.404 42.9168 15.8007 42.398 16.2156L43.0226 16.9966ZM46.2939 14.9452C46.8585 14.6735 47.4544 14.4232 48.0828 14.1983L47.7458 13.2568C47.0846 13.4934 46.4565 13.7572 45.8603 14.0441L46.2939 14.9452ZM49.9381 13.6353C50.5463 13.482 51.181 13.3511 51.8429 13.2454L51.6851 12.2579C50.9946 12.3682 50.331 12.505 49.6937 12.6656L49.9381 13.6353ZM53.7858 13.0158C54.4126 12.9667 55.0611 12.9389 55.7319 12.9343L55.7251 11.9343C55.031 11.9391 54.3587 11.9678 53.7076 12.0189L53.7858 13.0158ZM57.694 12.985C58.327 13.0213 58.9781 13.0773 59.6475 13.1542L59.7617 12.1607C59.0738 12.0817 58.4038 12.024 57.7512 11.9866L57.694 12.985ZM61.5897 13.4286C61.9116 13.4823 62.2374 13.5407 62.5671 13.6038L62.7551 12.6216C62.4177 12.557 62.0841 12.4973 61.7543 12.4422L61.5897 13.4286Z" fill="#F0F0F0"/>
<path opacity="0.2" d="M37.3062 20.5596C37.5347 20.4045 37.5942 20.0936 37.4391 19.8651L34.912 16.1417C34.7569 15.9132 34.4459 15.8537 34.2175 16.0088C33.989 16.1639 33.9295 16.4748 34.0845 16.7033L36.3309 20.013L33.0212 22.2593C32.7927 22.4144 32.7332 22.7253 32.8883 22.9538C33.0434 23.1823 33.3543 23.2418 33.5828 23.0867L37.3062 20.5596ZM11.8158 32.8069C11.8737 32.5129 11.9478 32.2039 12.0394 31.8828L11.0778 31.6085C10.9789 31.9552 10.8981 32.2913 10.8346 32.6138L11.8158 32.8069ZM12.6975 30.0774C12.9451 29.5184 13.2402 28.9445 13.5865 28.3679L12.7293 27.853C12.3613 28.4656 12.0472 29.0762 11.7831 29.6724L12.6975 30.0774ZM14.6782 26.7751C15.0611 26.2823 15.4845 25.7958 15.9506 25.3234L15.2388 24.621C14.7442 25.1223 14.2949 25.6385 13.8885 26.1617L14.6782 26.7751ZM17.3869 24.0298C17.876 23.6385 18.4011 23.2641 18.9638 22.9118L18.4331 22.0642C17.8374 22.4372 17.281 22.8339 16.7623 23.2488L17.3869 24.0298ZM20.6582 21.9784C21.2228 21.7067 21.8187 21.4564 22.4471 21.2315L22.1101 20.29C21.4489 20.5267 20.8207 20.7904 20.2245 21.0773L20.6582 21.9784ZM24.3023 20.6685C24.9106 20.5152 25.5453 20.3843 26.2071 20.2786L26.0494 19.2911C25.3589 19.4014 24.6953 19.5382 24.0579 19.6988L24.3023 20.6685ZM28.15 20.049C28.7768 19.9999 29.4254 19.9721 30.0962 19.9675L30.0893 18.9675C29.3953 18.9723 28.723 19.001 28.0719 19.0521L28.15 20.049ZM32.0582 20.0182C32.6913 20.0545 33.3423 20.1105 34.0118 20.1874L34.1259 19.1939C33.4381 19.1149 32.768 19.0573 32.1155 19.0198L32.0582 20.0182ZM35.9539 20.4618C36.2758 20.5155 36.6016 20.5739 36.9314 20.637L37.1194 19.6548C36.7819 19.5902 36.4484 19.5305 36.1186 19.4754L35.9539 20.4618Z" fill="#F0F0F0"/>
<rect opacity="0.2" x="0.761719" y="38.9277" width="21.127" height="6.48763" fill="url(#paint0_linear_6006_4621)"/>
<rect opacity="0.2" x="160.383" y="0.00195312" width="21.127" height="45.4134" fill="#442F9B"/>
<rect x="53.9688" y="25.9531" width="21.127" height="19.4629" fill="url(#paint1_linear_6006_4621)"/>
<rect opacity="0.2" x="107.176" y="12.9785" width="21.127" height="32.4382" fill="#442F9B"/>
<rect opacity="0.2" x="27.3652" y="32.4414" width="21.127" height="12.9753" fill="url(#paint2_linear_6006_4621)"/>
<rect opacity="0.2" x="80.5723" y="19.4648" width="21.127" height="25.9505" fill="#442F9B"/>
<rect opacity="0.2" x="133.779" y="6.49023" width="21.127" height="38.9258" fill="#442F9B"/>
<circle cx="63.6289" cy="12.4902" r="6" fill="url(#paint3_linear_6006_4621)"/>
<defs>
<linearGradient id="paint0_linear_6006_4621" x1="11.3252" y1="38.9277" x2="11.3252" y2="45.4154" gradientUnits="userSpaceOnUse">
<stop stop-color="#6346E4"/>
<stop offset="1" stop-color="#6C3E9D"/>
</linearGradient>
<linearGradient id="paint1_linear_6006_4621" x1="64.5322" y1="25.9531" x2="64.5322" y2="45.416" gradientUnits="userSpaceOnUse">
<stop stop-color="#6346E4"/>
<stop offset="1" stop-color="#6C3E9D"/>
</linearGradient>
<linearGradient id="paint2_linear_6006_4621" x1="37.9287" y1="32.4414" x2="37.9287" y2="45.4167" gradientUnits="userSpaceOnUse">
<stop stop-color="#6346E4"/>
<stop offset="1" stop-color="#6C3E9D"/>
</linearGradient>
<linearGradient id="paint3_linear_6006_4621" x1="63.6289" y1="6.49023" x2="63.6289" y2="18.4902" gradientUnits="userSpaceOnUse">
<stop stop-color="#6346E4"/>
<stop offset="1" stop-color="#6C3E9D"/>
</linearGradient>
</defs>
</svg>
