<svg width="181" height="46" viewBox="0 0 181 46" fill="none" xmlns="http://www.w3.org/2000/svg">
<path opacity="0.2" d="M36.48 20.9893C36.7085 20.8342 36.768 20.5233 36.6129 20.2948L34.0858 16.5714C33.9307 16.3429 33.6198 16.2834 33.3913 16.4385C33.1628 16.5936 33.1033 16.9045 33.2584 17.133L35.5047 20.4427L32.195 22.689C31.9666 22.8441 31.907 23.155 32.0621 23.3835C32.2172 23.612 32.5281 23.6715 32.7566 23.5164L36.48 20.9893ZM10.9896 33.2366C11.0475 32.9426 11.1217 32.6335 11.2132 32.3125L10.2516 32.0382C10.1527 32.3849 10.0719 32.721 10.0084 33.0435L10.9896 33.2366ZM11.8713 30.5071C12.1189 29.948 12.414 29.3742 12.7604 28.7976L11.9031 28.2827C11.5352 28.8953 11.221 29.5059 10.957 30.1021L11.8713 30.5071ZM13.852 27.2048C14.2349 26.712 14.6583 26.2255 15.1244 25.7531L14.4126 25.0507C13.918 25.552 13.4687 26.0682 13.0623 26.5913L13.852 27.2048ZM16.5607 24.4594C17.0499 24.0682 17.5749 23.6938 18.1376 23.3415L17.6069 22.4939C17.0112 22.8669 16.4548 23.2636 15.9361 23.6785L16.5607 24.4594ZM19.832 22.4081C20.3966 22.1364 20.9925 21.8861 21.6209 21.6611L21.2839 20.7196C20.6227 20.9563 19.9946 21.2201 19.3984 21.507L19.832 22.4081ZM23.4762 21.0982C24.0844 20.9449 24.7191 20.814 25.381 20.7083L25.2232 19.7208C24.5327 19.8311 23.8691 19.9679 23.2318 20.1285L23.4762 21.0982ZM27.3239 20.4787C27.9507 20.4296 28.5992 20.4018 29.27 20.3972L29.2631 19.3972C28.5691 19.4019 27.8968 19.4307 27.2457 19.4818L27.3239 20.4787ZM31.232 20.4479C31.8651 20.4842 32.5162 20.5401 33.1856 20.6171L33.2998 19.6236C32.6119 19.5446 31.9419 19.4869 31.2893 19.4495L31.232 20.4479ZM35.1278 20.8915C35.4496 20.9452 35.7755 21.0036 36.1052 21.0667L36.2932 20.0845C35.9558 20.0199 35.6222 19.9602 35.2924 19.9051L35.1278 20.8915Z" fill="#F0F0F0"/>
<rect opacity="0.2" y="38.9277" width="21.127" height="6.48763" fill="url(#paint0_linear_6006_4596)"/>
<rect opacity="0.2" x="159.621" y="0.00195312" width="21.127" height="45.4134" fill="#442F9B"/>
<rect opacity="0.2" x="53.207" y="25.9531" width="21.127" height="19.4629" fill="#442F9B"/>
<rect opacity="0.2" x="106.414" y="12.9785" width="21.127" height="32.4382" fill="#442F9B"/>
<rect x="26.6035" y="32.4414" width="21.127" height="12.9753" fill="url(#paint1_linear_6006_4596)"/>
<rect opacity="0.2" x="79.8105" y="19.4648" width="21.127" height="25.9505" fill="#442F9B"/>
<rect opacity="0.2" x="133.018" y="6.49023" width="21.127" height="38.9258" fill="#442F9B"/>
<circle cx="37.167" cy="19.9531" r="6" fill="url(#paint2_linear_6006_4596)"/>
<defs>
<linearGradient id="paint0_linear_6006_4596" x1="10.5635" y1="38.9277" x2="10.5635" y2="45.4154" gradientUnits="userSpaceOnUse">
<stop stop-color="#6346E4"/>
<stop offset="1" stop-color="#6C3E9D"/>
</linearGradient>
<linearGradient id="paint1_linear_6006_4596" x1="37.167" y1="32.4414" x2="37.167" y2="45.4167" gradientUnits="userSpaceOnUse">
<stop stop-color="#6346E4"/>
<stop offset="1" stop-color="#6C3E9D"/>
</linearGradient>
<linearGradient id="paint2_linear_6006_4596" x1="37.167" y1="13.9531" x2="37.167" y2="25.9531" gradientUnits="userSpaceOnUse">
<stop stop-color="#6346E4"/>
<stop offset="1" stop-color="#6C3E9D"/>
</linearGradient>
</defs>
</svg>
