<svg width="181" height="53" viewBox="0 0 181 53" fill="none" xmlns="http://www.w3.org/2000/svg">
<path opacity="0.2" d="M116.061 7.5518C116.29 7.39672 116.349 7.08578 116.194 6.8573L113.667 3.13391C113.512 2.90543 113.201 2.84592 112.972 3.001C112.744 3.15607 112.684 3.46701 112.839 3.6955L115.086 7.00517L111.776 9.25152C111.548 9.40659 111.488 9.71753 111.643 9.94602C111.798 10.1745 112.109 10.234 112.338 10.0789L116.061 7.5518ZM90.5707 19.7991C90.6285 19.5051 90.7027 19.196 90.7943 18.875L89.8326 18.6007C89.7338 18.9474 89.653 19.2835 89.5895 19.606L90.5707 19.7991ZM91.4524 17.0696C91.6999 16.5105 91.9951 15.9367 92.3414 15.3601L91.4842 14.8452C91.1162 15.4578 90.8021 16.0684 90.538 16.6646L91.4524 17.0696ZM93.4331 13.7673C93.816 13.2745 94.2393 12.788 94.7055 12.3156L93.9937 11.6132C93.4991 12.1145 93.0498 12.6307 92.6434 13.1538L93.4331 13.7673ZM96.1418 11.0219C96.6309 10.6307 97.156 10.2563 97.7186 9.90397L97.1879 9.0564C96.5923 9.42938 96.0359 9.82614 95.5172 10.241L96.1418 11.0219ZM99.413 8.97058C99.9777 8.69888 100.574 8.4486 101.202 8.22365L100.865 7.28215C100.204 7.51884 99.5756 7.78259 98.9794 8.06948L99.413 8.97058ZM103.057 7.66068C103.665 7.50738 104.3 7.3765 104.962 7.27077L104.804 6.28329C104.114 6.3936 103.45 6.53037 102.813 6.691L103.057 7.66068ZM106.905 7.04122C107.532 6.99207 108.18 6.96427 108.851 6.95967L108.844 5.95969C108.15 5.96445 107.478 5.99323 106.827 6.04428L106.905 7.04122ZM110.813 7.01037C111.446 7.04668 112.097 7.10264 112.767 7.17956L112.881 6.1861C112.193 6.10707 111.523 6.04944 110.87 6.01201L110.813 7.01037ZM114.709 7.45398C115.031 7.50771 115.357 7.56607 115.686 7.62918L115.874 6.647C115.537 6.58243 115.203 6.52267 114.873 6.46763L114.709 7.45398Z" fill="#F0F0F0"/>
<path opacity="0.2" d="M89.7515 15.4248C89.98 15.2698 90.0395 14.9588 89.8844 14.7303L87.3573 11.007C87.2022 10.7785 86.8913 10.719 86.6628 10.874C86.4343 11.0291 86.3748 11.3401 86.5299 11.5685L88.7762 14.8782L85.4665 17.1246C85.238 17.2796 85.1785 17.5906 85.3336 17.8191C85.4887 18.0476 85.7996 18.1071 86.0281 17.952L89.7515 15.4248ZM64.2611 27.6722C64.319 27.3781 64.3931 27.0691 64.4847 26.7481L63.5231 26.4738C63.4242 26.8204 63.3434 27.1566 63.2799 27.479L64.2611 27.6722ZM65.1428 24.9426C65.3904 24.3836 65.6855 23.8097 66.0319 23.2331L65.1746 22.7182C64.8066 23.3308 64.4925 23.9414 64.2284 24.5377L65.1428 24.9426ZM67.1235 21.6404C67.5064 21.1475 67.9298 20.661 68.3959 20.1886L67.6841 19.4862C67.1895 19.9875 66.7402 20.5038 66.3338 21.0269L67.1235 21.6404ZM69.8322 18.895C70.3214 18.5038 70.8464 18.1293 71.4091 17.777L70.8784 16.9294C70.2827 17.3024 69.7263 17.6992 69.2076 18.114L69.8322 18.895ZM73.1035 16.8436C73.6681 16.5719 74.264 16.3216 74.8924 16.0967L74.5554 15.1552C73.8942 15.3919 73.266 15.6556 72.6699 15.9425L73.1035 16.8436ZM76.7476 15.5337C77.3559 15.3804 77.9906 15.2496 78.6525 15.1438L78.4947 14.1563C77.8042 14.2666 77.1406 14.4034 76.5033 14.564L76.7476 15.5337ZM80.5953 14.9143C81.2221 14.8651 81.8707 14.8373 82.5415 14.8327L82.5346 13.8327C81.8406 13.8375 81.1683 13.8663 80.5172 13.9173L80.5953 14.9143ZM84.5035 14.8834C85.1366 14.9197 85.7876 14.9757 86.4571 15.0526L86.5713 14.0591C85.8834 13.9801 85.2134 13.9225 84.5608 13.8851L84.5035 14.8834ZM88.3992 15.327C88.7211 15.3808 89.0469 15.4391 89.3767 15.5022L89.5647 14.5201C89.2273 14.4555 88.8937 14.3957 88.5639 14.3407L88.3992 15.327Z" fill="#F0F0F0"/>
<path opacity="0.2" d="M63.148 22.0459C63.3765 21.8909 63.436 21.5799 63.2809 21.3514L60.7538 17.6281C60.5987 17.3996 60.2877 17.3401 60.0593 17.4951C59.8308 17.6502 59.7713 17.9612 59.9263 18.1896L62.1727 21.4993L58.863 23.7457C58.6345 23.9007 58.575 24.2117 58.7301 24.4402C58.8852 24.6686 59.1961 24.7282 59.4246 24.5731L63.148 22.0459ZM37.6576 34.2932C37.7155 33.9992 37.7896 33.6902 37.8812 33.3692L36.9196 33.0949C36.8207 33.4415 36.7399 33.7777 36.6764 34.1001L37.6576 34.2932ZM38.5393 31.5637C38.7869 31.0047 39.082 30.4308 39.4283 29.8542L38.5711 29.3393C38.2031 29.9519 37.889 30.5625 37.6249 31.1588L38.5393 31.5637ZM40.52 28.2615C40.9029 27.7686 41.3262 27.2821 41.7924 26.8097L41.0806 26.1073C40.586 26.6086 40.1367 27.1248 39.7303 27.648L40.52 28.2615ZM43.2287 25.5161C43.7178 25.1249 44.2429 24.7504 44.8056 24.3981L44.2749 23.5505C43.6792 23.9235 43.1228 24.3203 42.6041 24.7351L43.2287 25.5161ZM46.5 23.4647C47.0646 23.193 47.6605 22.9427 48.2889 22.7178L47.9519 21.7763C47.2907 22.013 46.6625 22.2767 46.0663 22.5636L46.5 23.4647ZM50.1441 22.1548C50.7524 22.0015 51.3871 21.8706 52.0489 21.7649L51.8912 20.7774C51.2007 20.8877 50.5371 21.0245 49.8997 21.1851L50.1441 22.1548ZM53.9918 21.5354C54.6186 21.4862 55.2671 21.4584 55.938 21.4538L55.9311 20.4538C55.2371 20.4586 54.5648 20.4874 53.9137 20.5384L53.9918 21.5354ZM57.9 21.5045C58.5331 21.5408 59.1841 21.5968 59.8536 21.6737L59.9677 20.6802C59.2799 20.6012 58.6098 20.5436 57.9573 20.5062L57.9 21.5045ZM61.7957 21.9481C62.1176 22.0018 62.4434 22.0602 62.7732 22.1233L62.9612 21.1411C62.6237 21.0766 62.2901 21.0168 61.9604 20.9618L61.7957 21.9481Z" fill="#F0F0F0"/>
<path opacity="0.2" d="M36.5445 28.669C36.773 28.5139 36.8325 28.203 36.6774 27.9745L34.1502 24.2511C33.9952 24.0226 33.6842 23.9631 33.4557 24.1182C33.2273 24.2733 33.1678 24.5842 33.3228 24.8127L35.5692 28.1224L32.2595 30.3687C32.031 30.5238 31.9715 30.8347 32.1266 31.0632C32.2817 31.2917 32.5926 31.3512 32.8211 31.1961L36.5445 28.669ZM11.0541 40.9163C11.1119 40.6223 11.1861 40.3132 11.2777 39.9922L10.316 39.7179C10.2172 40.0646 10.1364 40.4007 10.0729 40.7232L11.0541 40.9163ZM11.9358 38.1868C12.1833 37.6277 12.4785 37.0539 12.8248 36.4773L11.9676 35.9623C11.5996 36.575 11.2855 37.1856 11.0214 37.7818L11.9358 38.1868ZM13.9165 34.8845C14.2994 34.3916 14.7227 33.9052 15.1889 33.4328L14.4771 32.7304C13.9825 33.2316 13.5332 33.7479 13.1268 34.271L13.9165 34.8845ZM16.6251 32.1391C17.1143 31.7479 17.6394 31.3734 18.202 31.0212L17.6713 30.1736C17.0757 30.5466 16.5193 30.9433 16.0006 31.3582L16.6251 32.1391ZM19.8964 30.0878C20.4611 29.8161 21.057 29.5658 21.6854 29.3408L21.3484 28.3993C20.6872 28.636 20.059 28.8998 19.4628 29.1867L19.8964 30.0878ZM23.5406 28.7779C24.1489 28.6246 24.7835 28.4937 25.4454 28.388L25.2877 27.4005C24.5972 27.5108 23.9336 27.6476 23.2962 27.8082L23.5406 28.7779ZM27.3883 28.1584C28.0151 28.1093 28.6636 28.0815 29.3345 28.0769L29.3276 27.0769C28.6336 27.0816 27.9612 27.1104 27.3101 27.1615L27.3883 28.1584ZM31.2965 28.1276C31.9296 28.1639 32.5806 28.2198 33.2501 28.2968L33.3642 27.3033C32.6764 27.2243 32.0063 27.1666 31.3538 27.1292L31.2965 28.1276ZM35.1922 28.5712C35.5141 28.6249 35.8399 28.6833 36.1697 28.7464L36.3577 27.7642C36.0202 27.6996 35.6866 27.6399 35.3568 27.5848L35.1922 28.5712Z" fill="#F0F0F0"/>
<rect opacity="0.2" y="45.9277" width="21.127" height="6.48763" fill="url(#paint0_linear_6006_4648)"/>
<rect opacity="0.2" x="159.621" y="7.00195" width="21.127" height="45.4134" fill="#442F9B"/>
<rect opacity="0.2" x="53.207" y="32.9531" width="21.127" height="19.4629" fill="url(#paint1_linear_6006_4648)"/>
<rect x="106.414" y="19.9785" width="21.127" height="32.4382" fill="url(#paint2_linear_6006_4648)"/>
<rect opacity="0.2" x="26.6035" y="39.4414" width="21.127" height="12.9753" fill="url(#paint3_linear_6006_4648)"/>
<rect opacity="0.2" x="79.8105" y="26.4648" width="21.127" height="25.9505" fill="url(#paint4_linear_6006_4648)"/>
<rect opacity="0.2" x="133.018" y="13.4902" width="21.127" height="38.9258" fill="#442F9B"/>
<circle cx="116.748" cy="6.51562" r="6" fill="url(#paint5_linear_6006_4648)"/>
<defs>
<linearGradient id="paint0_linear_6006_4648" x1="10.5635" y1="45.9277" x2="10.5635" y2="52.4154" gradientUnits="userSpaceOnUse">
<stop stop-color="#6346E4"/>
<stop offset="1" stop-color="#6C3E9D"/>
</linearGradient>
<linearGradient id="paint1_linear_6006_4648" x1="63.7705" y1="32.9531" x2="63.7705" y2="52.416" gradientUnits="userSpaceOnUse">
<stop stop-color="#6346E4"/>
<stop offset="1" stop-color="#6C3E9D"/>
</linearGradient>
<linearGradient id="paint2_linear_6006_4648" x1="116.978" y1="19.9785" x2="116.978" y2="52.4167" gradientUnits="userSpaceOnUse">
<stop stop-color="#6346E4"/>
<stop offset="1" stop-color="#6C3E9D"/>
</linearGradient>
<linearGradient id="paint3_linear_6006_4648" x1="37.167" y1="39.4414" x2="37.167" y2="52.4167" gradientUnits="userSpaceOnUse">
<stop stop-color="#6346E4"/>
<stop offset="1" stop-color="#6C3E9D"/>
</linearGradient>
<linearGradient id="paint4_linear_6006_4648" x1="90.374" y1="26.4648" x2="90.374" y2="52.4154" gradientUnits="userSpaceOnUse">
<stop stop-color="#6346E4"/>
<stop offset="1" stop-color="#6C3E9D"/>
</linearGradient>
<linearGradient id="paint5_linear_6006_4648" x1="116.748" y1="0.515625" x2="116.748" y2="12.5156" gradientUnits="userSpaceOnUse">
<stop stop-color="#6346E4"/>
<stop offset="1" stop-color="#6C3E9D"/>
</linearGradient>
</defs>
</svg>
