<svg width="181" height="66" viewBox="0 0 181 66" fill="none" xmlns="http://www.w3.org/2000/svg">
<path opacity="0.2" d="M167.461 7.87211C167.69 7.71704 167.749 7.4061 167.594 7.17761L165.067 3.45423C164.912 3.22574 164.601 3.16623 164.373 3.32131C164.144 3.47639 164.085 3.78733 164.24 4.01581L166.486 7.32549L163.176 9.57183C162.948 9.72691 162.888 10.0378 163.044 10.2663C163.199 10.4948 163.51 10.5543 163.738 10.3992L167.461 7.87211ZM141.971 20.1194C142.029 19.8254 142.103 19.5164 142.195 19.1953L141.233 18.921C141.134 19.2677 141.053 19.6038 140.99 19.9263L141.971 20.1194ZM142.853 17.3899C143.1 16.8309 143.395 16.257 143.742 15.6804L142.885 15.1655C142.517 15.7781 142.202 16.3887 141.938 16.9849L142.853 17.3899ZM144.833 14.0876C145.216 13.5948 145.64 13.1083 146.106 12.6359L145.394 11.9335C144.899 12.4348 144.45 12.951 144.044 13.4742L144.833 14.0876ZM147.542 11.3423C148.031 10.951 148.556 10.5766 149.119 10.2243L148.588 9.37671C147.993 9.74969 147.436 10.1464 146.918 10.5613L147.542 11.3423ZM150.813 9.29089C151.378 9.01919 151.974 8.76891 152.602 8.54396L152.265 7.60246C151.604 7.83915 150.976 8.1029 150.38 8.38979L150.813 9.29089ZM154.458 7.98099C155.066 7.8277 155.701 7.69682 156.362 7.59108L156.205 6.6036C155.514 6.71391 154.851 6.85069 154.213 7.01132L154.458 7.98099ZM158.305 7.36153C158.932 7.31238 159.581 7.28458 160.251 7.27998L160.245 6.28C159.551 6.28476 158.878 6.31354 158.227 6.36459L158.305 7.36153ZM162.213 7.33068C162.847 7.36699 163.498 7.42296 164.167 7.49988L164.281 6.50641C163.593 6.42738 162.923 6.36975 162.271 6.33232L162.213 7.33068ZM166.109 7.7743C166.431 7.82802 166.757 7.88638 167.087 7.94949L167.275 6.96732C166.937 6.90274 166.604 6.84298 166.274 6.78794L166.109 7.7743Z" fill="#F0F0F0"/>
<path opacity="0.2" d="M142.729 14.6299C142.958 14.4748 143.017 14.1639 142.862 13.9354L140.335 10.212C140.18 9.98355 139.869 9.92404 139.64 10.0791C139.412 10.2342 139.352 10.5451 139.507 10.7736L141.754 14.0833L138.444 16.3296C138.216 16.4847 138.156 16.7957 138.311 17.0241C138.466 17.2526 138.777 17.3121 139.006 17.1571L142.729 14.6299ZM117.239 26.8772C117.297 26.5832 117.371 26.2742 117.462 25.9532L116.501 25.6788C116.402 26.0255 116.321 26.3616 116.257 26.6841L117.239 26.8772ZM118.12 24.1477C118.368 23.5887 118.663 23.0148 119.009 22.4382L118.152 21.9233C117.784 22.5359 117.47 23.1465 117.206 23.7428L118.12 24.1477ZM120.101 20.8454C120.484 20.3526 120.907 19.8661 121.373 19.3937L120.662 18.6913C120.167 19.1926 119.718 19.7088 119.311 20.232L120.101 20.8454ZM122.81 18.1001C123.299 17.7089 123.824 17.3344 124.387 16.9821L123.856 16.1345C123.26 16.5075 122.704 16.9043 122.185 17.3191L122.81 18.1001ZM126.081 16.0487C126.646 15.777 127.242 15.5267 127.87 15.3018L127.533 14.3603C126.872 14.597 126.244 14.8607 125.647 15.1476L126.081 16.0487ZM129.725 14.7388C130.333 14.5855 130.968 14.4546 131.63 14.3489L131.472 13.3614C130.782 13.4717 130.118 13.6085 129.481 13.7691L129.725 14.7388ZM133.573 14.1193C134.2 14.0702 134.848 14.0424 135.519 14.0378L135.512 13.0378C134.818 13.0426 134.146 13.0714 133.495 13.1224L133.573 14.1193ZM137.481 14.0885C138.114 14.1248 138.765 14.1808 139.435 14.2577L139.549 13.2642C138.861 13.1852 138.191 13.1276 137.538 13.0901L137.481 14.0885ZM141.377 14.5321C141.699 14.5858 142.024 14.6442 142.354 14.7073L142.542 13.7251C142.205 13.6606 141.871 13.6008 141.541 13.5458L141.377 14.5321Z" fill="#F0F0F0"/>
<path opacity="0.2" d="M115.452 21.251C115.68 21.0959 115.74 20.785 115.585 20.5565L113.057 16.8331C112.902 16.6046 112.591 16.5451 112.363 16.7002C112.134 16.8553 112.075 17.1662 112.23 17.3947L114.476 20.7044L111.167 22.9507C110.938 23.1058 110.879 23.4168 111.034 23.6452C111.189 23.8737 111.5 23.9332 111.728 23.7782L115.452 21.251ZM89.9613 33.4983C90.0192 33.2043 90.0933 32.8953 90.1849 32.5743L89.2233 32.2999C89.1244 32.6466 89.0436 32.9827 88.9801 33.3052L89.9613 33.4983ZM90.843 30.7688C91.0906 30.2098 91.3857 29.6359 91.732 29.0593L90.8748 28.5444C90.5068 29.157 90.1927 29.7676 89.9286 30.3638L90.843 30.7688ZM92.8237 27.4665C93.2066 26.9737 93.63 26.4872 94.0961 26.0148L93.3843 25.3124C92.8897 25.8137 92.4404 26.3299 92.034 26.8531L92.8237 27.4665ZM95.5324 24.7212C96.0216 24.3299 96.5466 23.9555 97.1093 23.6032L96.5786 22.7556C95.9829 23.1286 95.4265 23.5254 94.9078 23.9402L95.5324 24.7212ZM98.8037 22.6698C99.3683 22.3981 99.9642 22.1478 100.593 21.9229L100.256 20.9814C99.5944 21.2181 98.9662 21.4818 98.3701 21.7687L98.8037 22.6698ZM102.448 21.3599C103.056 21.2066 103.691 21.0757 104.353 20.97L104.195 19.9825C103.504 20.0928 102.841 20.2296 102.203 20.3902L102.448 21.3599ZM106.296 20.7404C106.922 20.6913 107.571 20.6635 108.242 20.6589L108.235 19.6589C107.541 19.6637 106.868 19.6924 106.217 19.7435L106.296 20.7404ZM110.204 20.7096C110.837 20.7459 111.488 20.8019 112.157 20.8788L112.271 19.8853C111.584 19.8063 110.914 19.7487 110.261 19.7112L110.204 20.7096ZM114.099 21.1532C114.421 21.2069 114.747 21.2653 115.077 21.3284L115.265 20.3462C114.927 20.2816 114.594 20.2219 114.264 20.1668L114.099 21.1532Z" fill="#F0F0F0"/>
<path opacity="0.2" d="M90.3609 27.8741C90.5894 27.719 90.6489 27.408 90.4938 27.1796L87.9667 23.4562C87.8116 23.2277 87.5006 23.1682 87.2722 23.3233C87.0437 23.4783 86.9842 23.7893 87.1392 24.0178L89.3856 27.3274L86.0759 29.5738C85.8474 29.7289 85.7879 30.0398 85.943 30.2683C86.0981 30.4968 86.409 30.5563 86.6375 30.4012L90.3609 27.8741ZM64.8705 40.1214C64.9283 39.8273 65.0025 39.5183 65.0941 39.1973L64.1325 38.923C64.0336 39.2697 63.9528 39.6058 63.8893 39.9282L64.8705 40.1214ZM65.7522 37.3918C65.9997 36.8328 66.2949 36.259 66.6412 35.6823L65.784 35.1674C65.416 35.78 65.1019 36.3907 64.8378 36.9869L65.7522 37.3918ZM67.7329 34.0896C68.1158 33.5967 68.5391 33.1103 69.0053 32.6378L68.2935 31.9355C67.7989 32.4367 67.3496 32.953 66.9432 33.4761L67.7329 34.0896ZM70.4416 31.3442C70.9307 30.953 71.4558 30.5785 72.0184 30.2262L71.4878 29.3787C70.8921 29.7516 70.3357 30.1484 69.817 30.5632L70.4416 31.3442ZM73.7129 29.2928C74.2775 29.0211 74.8734 28.7709 75.5018 28.5459L75.1648 27.6044C74.5036 27.8411 73.8754 28.1049 73.2792 28.3917L73.7129 29.2928ZM77.357 27.9829C77.9653 27.8296 78.5999 27.6988 79.2618 27.593L79.1041 26.6056C78.4136 26.7159 77.75 26.8526 77.1126 27.0133L77.357 27.9829ZM81.2047 27.3635C81.8315 27.3143 82.48 27.2865 83.1509 27.2819L83.144 26.282C82.45 26.2867 81.7776 26.3155 81.1266 26.3665L81.2047 27.3635ZM85.1129 27.3326C85.746 27.3689 86.397 27.4249 87.0665 27.5018L87.1806 26.5084C86.4928 26.4293 85.8227 26.3717 85.1702 26.3343L85.1129 27.3326ZM89.0086 27.7762C89.3305 27.83 89.6563 27.8883 89.9861 27.9514L90.1741 26.9693C89.8366 26.9047 89.503 26.8449 89.1732 26.7899L89.0086 27.7762Z" fill="#F0F0F0"/>
<path opacity="0.2" d="M64.0513 34.4952C64.2798 34.3401 64.3393 34.0291 64.1842 33.8007L61.6571 30.0773C61.502 29.8488 61.1911 29.7893 60.9626 29.9444C60.7341 30.0994 60.6746 30.4104 60.8297 30.6389L63.076 33.9485L59.7663 36.1949C59.5378 36.35 59.4783 36.6609 59.6334 36.8894C59.7885 37.1179 60.0994 37.1774 60.3279 37.0223L64.0513 34.4952ZM38.5609 46.7425C38.6188 46.4484 38.693 46.1394 38.7845 45.8184L37.8229 45.5441C37.724 45.8908 37.6432 46.2269 37.5797 46.5493L38.5609 46.7425ZM39.4426 44.0129C39.6902 43.4539 39.9853 42.88 40.3317 42.3034L39.4744 41.7885C39.1064 42.4011 38.7923 43.0118 38.5283 43.608L39.4426 44.0129ZM41.4233 40.7107C41.8062 40.2178 42.2296 39.7314 42.6957 39.2589L41.9839 38.5566C41.4893 39.0578 41.04 39.5741 40.6336 40.0972L41.4233 40.7107ZM44.132 37.9653C44.6212 37.5741 45.1462 37.1996 45.7089 36.8473L45.1782 35.9998C44.5825 36.3727 44.0261 36.7695 43.5074 37.1843L44.132 37.9653ZM47.4033 35.9139C47.9679 35.6422 48.5638 35.392 49.1922 35.167L48.8552 34.2255C48.194 34.4622 47.5658 34.7259 46.9697 35.0128L47.4033 35.9139ZM51.0474 34.604C51.6557 34.4507 52.2904 34.3199 52.9523 34.2141L52.7945 33.2266C52.104 33.337 51.4404 33.4737 50.8031 33.6344L51.0474 34.604ZM54.8952 33.9846C55.522 33.9354 56.1705 33.9076 56.8413 33.903L56.8344 32.903C56.1404 32.9078 55.4681 32.9366 54.817 32.9876L54.8952 33.9846ZM58.8033 33.9537C59.4364 33.99 60.0874 34.046 60.7569 34.1229L60.8711 33.1295C60.1832 33.0504 59.5132 32.9928 58.8606 32.9554L58.8033 33.9537ZM62.699 34.3973C63.0209 34.4511 63.3468 34.5094 63.6765 34.5725L63.8645 33.5904C63.5271 33.5258 63.1935 33.466 62.8637 33.411L62.699 34.3973Z" fill="#F0F0F0"/>
<path opacity="0.2" d="M36.5445 43.5323C36.773 43.3772 36.8325 43.0663 36.6774 42.8378L34.1502 39.1144C33.9952 38.8859 33.6842 38.8264 33.4557 38.9815C33.2273 39.1365 33.1678 39.4475 33.3228 39.676L35.5692 42.9856L32.2595 45.232C32.031 45.3871 31.9715 45.698 32.1266 45.9265C32.2817 46.155 32.5926 46.2145 32.8211 46.0594L36.5445 43.5323ZM11.0541 55.7796C11.1119 55.4855 11.1861 55.1765 11.2777 54.8555L10.316 54.5812C10.2172 54.9279 10.1364 55.264 10.0729 55.5865L11.0541 55.7796ZM11.9358 53.05C12.1833 52.491 12.4785 51.9172 12.8248 51.3405L11.9676 50.8256C11.5996 51.4382 11.2855 52.0489 11.0214 52.6451L11.9358 53.05ZM13.9165 49.7478C14.2994 49.2549 14.7227 48.7685 15.1889 48.296L14.4771 47.5937C13.9825 48.0949 13.5332 48.6112 13.1268 49.1343L13.9165 49.7478ZM16.6251 47.0024C17.1143 46.6112 17.6394 46.2367 18.202 45.8844L17.6713 45.0369C17.0757 45.4098 16.5193 45.8066 16.0006 46.2214L16.6251 47.0024ZM19.8964 44.951C20.4611 44.6793 21.057 44.4291 21.6854 44.2041L21.3484 43.2626C20.6872 43.4993 20.059 43.7631 19.4628 44.0499L19.8964 44.951ZM23.5406 43.6412C24.1489 43.4879 24.7835 43.357 25.4454 43.2512L25.2877 42.2638C24.5972 42.3741 23.9336 42.5108 23.2962 42.6715L23.5406 43.6412ZM27.3883 43.0217C28.0151 42.9725 28.6636 42.9447 29.3345 42.9401L29.3276 41.9402C28.6336 41.9449 27.9612 41.9737 27.3101 42.0247L27.3883 43.0217ZM31.2965 42.9908C31.9296 43.0271 32.5806 43.0831 33.2501 43.16L33.3642 42.1666C32.6764 42.0875 32.0063 42.0299 31.3538 41.9925L31.2965 42.9908ZM35.1922 43.4345C35.5141 43.4882 35.8399 43.5465 36.1697 43.6096L36.3577 42.6275C36.0202 42.5629 35.6866 42.5031 35.3568 42.4481L35.1922 43.4345Z" fill="#F0F0F0"/>
<rect opacity="0.2" y="58.9258" width="21.127" height="6.48763" fill="url(#paint0_linear_6006_4679)"/>
<rect x="159.621" y="20" width="21.127" height="45.4134" fill="url(#paint1_linear_6006_4679)"/>
<rect opacity="0.2" x="53.207" y="45.9512" width="21.127" height="19.4629" fill="url(#paint2_linear_6006_4679)"/>
<rect opacity="0.2" x="106.414" y="32.9766" width="21.127" height="32.4382" fill="url(#paint3_linear_6006_4679)"/>
<rect opacity="0.2" x="26.6035" y="52.4395" width="21.127" height="12.9753" fill="url(#paint4_linear_6006_4679)"/>
<rect opacity="0.2" x="79.8105" y="39.4629" width="21.127" height="25.9505" fill="url(#paint5_linear_6006_4679)"/>
<rect opacity="0.2" x="133.018" y="26.4883" width="21.127" height="38.9258" fill="url(#paint6_linear_6006_4679)"/>
<circle cx="168.148" cy="6.83594" r="6" fill="url(#paint7_linear_6006_4679)"/>
<defs>
<linearGradient id="paint0_linear_6006_4679" x1="10.5635" y1="58.9258" x2="10.5635" y2="65.4134" gradientUnits="userSpaceOnUse">
<stop stop-color="#6346E4"/>
<stop offset="1" stop-color="#6C3E9D"/>
</linearGradient>
<linearGradient id="paint1_linear_6006_4679" x1="170.185" y1="20" x2="170.185" y2="65.4134" gradientUnits="userSpaceOnUse">
<stop stop-color="#6346E4"/>
<stop offset="1" stop-color="#6C3E9D"/>
</linearGradient>
<linearGradient id="paint2_linear_6006_4679" x1="63.7705" y1="45.9512" x2="63.7705" y2="65.4141" gradientUnits="userSpaceOnUse">
<stop stop-color="#6346E4"/>
<stop offset="1" stop-color="#6C3E9D"/>
</linearGradient>
<linearGradient id="paint3_linear_6006_4679" x1="116.978" y1="32.9766" x2="116.978" y2="65.4147" gradientUnits="userSpaceOnUse">
<stop stop-color="#6346E4"/>
<stop offset="1" stop-color="#6C3E9D"/>
</linearGradient>
<linearGradient id="paint4_linear_6006_4679" x1="37.167" y1="52.4395" x2="37.167" y2="65.4147" gradientUnits="userSpaceOnUse">
<stop stop-color="#6346E4"/>
<stop offset="1" stop-color="#6C3E9D"/>
</linearGradient>
<linearGradient id="paint5_linear_6006_4679" x1="90.374" y1="39.4629" x2="90.374" y2="65.4134" gradientUnits="userSpaceOnUse">
<stop stop-color="#6346E4"/>
<stop offset="1" stop-color="#6C3E9D"/>
</linearGradient>
<linearGradient id="paint6_linear_6006_4679" x1="143.581" y1="26.4883" x2="143.581" y2="65.4141" gradientUnits="userSpaceOnUse">
<stop stop-color="#6346E4"/>
<stop offset="1" stop-color="#6C3E9D"/>
</linearGradient>
<linearGradient id="paint7_linear_6006_4679" x1="168.148" y1="0.835937" x2="168.148" y2="12.8359" gradientUnits="userSpaceOnUse">
<stop stop-color="#6346E4"/>
<stop offset="1" stop-color="#6C3E9D"/>
</linearGradient>
</defs>
</svg>
