<svg width="181" height="46" viewBox="0 0 181 46" fill="none" xmlns="http://www.w3.org/2000/svg">
<path opacity="0.2" d="M89.7515 7.03813C89.98 6.88305 90.0395 6.57211 89.8844 6.34363L87.3573 2.62024C87.2022 2.39176 86.8913 2.33225 86.6628 2.48733C86.4343 2.6424 86.3748 2.95334 86.5299 3.18183L88.7762 6.4915L85.4665 8.73784C85.238 8.89292 85.1785 9.20386 85.3336 9.43235C85.4887 9.66083 85.7996 9.72034 86.0281 9.56526L89.7515 7.03813ZM64.2611 19.2854C64.319 18.9914 64.3931 18.6824 64.4847 18.3614L63.5231 18.087C63.4242 18.4337 63.3434 18.7699 63.2799 19.0923L64.2611 19.2854ZM65.1428 16.5559C65.3904 15.9969 65.6855 15.423 66.0319 14.8464L65.1746 14.3315C64.8066 14.9441 64.4925 15.5547 64.2284 16.151L65.1428 16.5559ZM67.1235 13.2537C67.5064 12.7608 67.9298 12.2743 68.3959 11.8019L67.6841 11.0995C67.1895 11.6008 66.7402 12.117 66.3338 12.6402L67.1235 13.2537ZM69.8322 10.5083C70.3214 10.1171 70.8464 9.74259 71.4091 9.3903L70.8784 8.54273C70.2827 8.9157 69.7263 9.31246 69.2076 9.72731L69.8322 10.5083ZM73.1035 8.4569C73.6681 8.1852 74.264 7.93493 74.8924 7.70997L74.5554 6.76848C73.8942 7.00517 73.266 7.26892 72.6699 7.55581L73.1035 8.4569ZM76.7476 7.14701C77.3559 6.99371 77.9906 6.86283 78.6525 6.7571L78.4947 5.76962C77.8042 5.87993 77.1406 6.0167 76.5033 6.17733L76.7476 7.14701ZM80.5953 6.52755C81.2221 6.4784 81.8707 6.45059 82.5415 6.44599L82.5346 5.44602C81.8406 5.45078 81.1683 5.47955 80.5172 5.53061L80.5953 6.52755ZM84.5035 6.4967C85.1366 6.53301 85.7876 6.58897 86.4571 6.66589L86.5713 5.67243C85.8834 5.59339 85.2134 5.53577 84.5608 5.49834L84.5035 6.4967ZM88.3992 6.94031C88.7211 6.99404 89.0469 7.05239 89.3767 7.11551L89.5647 6.13333C89.2273 6.06875 88.8937 6.009 88.5639 5.95396L88.3992 6.94031Z" fill="#F0F0F0"/>
<path opacity="0.2" d="M63.148 14.0713C63.3765 13.9163 63.436 13.6053 63.2809 13.3768L60.7538 9.65345C60.5987 9.42496 60.2877 9.36545 60.0593 9.52053C59.8308 9.67561 59.7713 9.98655 59.9263 10.215L62.1727 13.5247L58.863 15.771C58.6345 15.9261 58.575 16.2371 58.7301 16.4655C58.8852 16.694 59.1961 16.7535 59.4246 16.5985L63.148 14.0713ZM37.6576 26.3186C37.7155 26.0246 37.7896 25.7156 37.8812 25.3946L36.9196 25.1202C36.8207 25.4669 36.7399 25.8031 36.6764 26.1255L37.6576 26.3186ZM38.5393 23.5891C38.7869 23.0301 39.082 22.4562 39.4283 21.8796L38.5711 21.3647C38.2031 21.9773 37.889 22.5879 37.6249 23.1842L38.5393 23.5891ZM40.52 20.2869C40.9029 19.794 41.3262 19.3075 41.7924 18.8351L41.0806 18.1327C40.586 18.634 40.1367 19.1502 39.7303 19.6734L40.52 20.2869ZM43.2287 17.5415C43.7178 17.1503 44.2429 16.7758 44.8056 16.4235L44.2749 15.5759C43.6792 15.9489 43.1228 16.3457 42.6041 16.7605L43.2287 17.5415ZM46.5 15.4901C47.0646 15.2184 47.6605 14.9681 48.2889 14.7432L47.9519 13.8017C47.2907 14.0384 46.6625 14.3021 46.0663 14.589L46.5 15.4901ZM50.1441 14.1802C50.7524 14.0269 51.3871 13.896 52.0489 13.7903L51.8912 12.8028C51.2007 12.9131 50.5371 13.0499 49.8997 13.2105L50.1441 14.1802ZM53.9918 13.5607C54.6186 13.5116 55.2671 13.4838 55.938 13.4792L55.9311 12.4792C55.2371 12.484 54.5648 12.5128 53.9137 12.5638L53.9918 13.5607ZM57.9 13.5299C58.5331 13.5662 59.1841 13.6222 59.8536 13.6991L59.9677 12.7056C59.2799 12.6266 58.6098 12.569 57.9573 12.5315L57.9 13.5299ZM61.7957 13.9735C62.1176 14.0272 62.4434 14.0856 62.7732 14.1487L62.9612 13.1665C62.6237 13.102 62.2901 13.0422 61.9604 12.9872L61.7957 13.9735Z" fill="#F0F0F0"/>
<path opacity="0.2" d="M36.5445 20.6924C36.773 20.5373 36.8325 20.2264 36.6774 19.9979L34.1502 16.2745C33.9952 16.0461 33.6842 15.9865 33.4557 16.1416C33.2273 16.2967 33.1678 16.6076 33.3228 16.8361L35.5692 20.1458L32.2595 22.3921C32.031 22.5472 31.9715 22.8582 32.1266 23.0866C32.2817 23.3151 32.5926 23.3746 32.8211 23.2196L36.5445 20.6924ZM11.0541 32.9397C11.1119 32.6457 11.1861 32.3367 11.2777 32.0157L10.316 31.7413C10.2172 32.088 10.1364 32.4241 10.0729 32.7466L11.0541 32.9397ZM11.9358 30.2102C12.1833 29.6512 12.4785 29.0773 12.8248 28.5007L11.9676 27.9858C11.5996 28.5984 11.2855 29.209 11.0214 29.8053L11.9358 30.2102ZM13.9165 26.9079C14.2994 26.4151 14.7227 25.9286 15.1889 25.4562L14.4771 24.7538C13.9825 25.2551 13.5332 25.7713 13.1268 26.2945L13.9165 26.9079ZM16.6251 24.1626C17.1143 23.7714 17.6394 23.3969 18.202 23.0446L17.6713 22.197C17.0757 22.57 16.5193 22.9668 16.0006 23.3816L16.6251 24.1626ZM19.8964 22.1112C20.4611 21.8395 21.057 21.5892 21.6854 21.3643L21.3484 20.4228C20.6872 20.6595 20.059 20.9232 19.4628 21.2101L19.8964 22.1112ZM23.5406 20.8013C24.1489 20.648 24.7835 20.5171 25.4454 20.4114L25.2877 19.4239C24.5972 19.5342 23.9336 19.671 23.2962 19.8316L23.5406 20.8013ZM27.3883 20.1818C28.0151 20.1327 28.6636 20.1049 29.3345 20.1003L29.3276 19.1003C28.6336 19.1051 27.9612 19.1339 27.3101 19.1849L27.3883 20.1818ZM31.2965 20.151C31.9296 20.1873 32.5806 20.2433 33.2501 20.3202L33.3642 19.3267C32.6764 19.2477 32.0063 19.1901 31.3538 19.1526L31.2965 20.151ZM35.1922 20.5946C35.5141 20.6483 35.8399 20.7067 36.1697 20.7698L36.3577 19.7876C36.0202 19.7231 35.6866 19.6633 35.3568 19.6083L35.1922 20.5946Z" fill="#F0F0F0"/>
<rect opacity="0.2" y="38.9277" width="21.127" height="6.48763" fill="url(#paint0_linear_6006_4634)"/>
<rect opacity="0.2" x="159.621" y="0.00195312" width="21.127" height="45.4134" fill="#442F9B"/>
<rect opacity="0.2" x="53.207" y="25.9531" width="21.127" height="19.4629" fill="url(#paint1_linear_6006_4634)"/>
<rect opacity="0.2" x="106.414" y="12.9785" width="21.127" height="32.4382" fill="#442F9B"/>
<rect opacity="0.2" x="26.6035" y="32.4414" width="21.127" height="12.9753" fill="url(#paint2_linear_6006_4634)"/>
<rect x="79.8105" y="19.4648" width="21.127" height="25.9505" fill="url(#paint3_linear_6006_4634)"/>
<rect opacity="0.2" x="133.018" y="6.49023" width="21.127" height="38.9258" fill="#442F9B"/>
<circle cx="90.4385" cy="6.00195" r="6" fill="url(#paint4_linear_6006_4634)"/>
<defs>
<linearGradient id="paint0_linear_6006_4634" x1="10.5635" y1="38.9277" x2="10.5635" y2="45.4154" gradientUnits="userSpaceOnUse">
<stop stop-color="#6346E4"/>
<stop offset="1" stop-color="#6C3E9D"/>
</linearGradient>
<linearGradient id="paint1_linear_6006_4634" x1="63.7705" y1="25.9531" x2="63.7705" y2="45.416" gradientUnits="userSpaceOnUse">
<stop stop-color="#6346E4"/>
<stop offset="1" stop-color="#6C3E9D"/>
</linearGradient>
<linearGradient id="paint2_linear_6006_4634" x1="37.167" y1="32.4414" x2="37.167" y2="45.4167" gradientUnits="userSpaceOnUse">
<stop stop-color="#6346E4"/>
<stop offset="1" stop-color="#6C3E9D"/>
</linearGradient>
<linearGradient id="paint3_linear_6006_4634" x1="90.374" y1="19.4648" x2="90.374" y2="45.4154" gradientUnits="userSpaceOnUse">
<stop stop-color="#6346E4"/>
<stop offset="1" stop-color="#6C3E9D"/>
</linearGradient>
<linearGradient id="paint4_linear_6006_4634" x1="90.4385" y1="0.00195312" x2="90.4385" y2="12.002" gradientUnits="userSpaceOnUse">
<stop stop-color="#6346E4"/>
<stop offset="1" stop-color="#6C3E9D"/>
</linearGradient>
</defs>
</svg>
