<svg width="181" height="59" viewBox="0 0 181 59" fill="none" xmlns="http://www.w3.org/2000/svg">
<path opacity="0.2" d="M141.761 7.07329C141.99 6.91821 142.049 6.60727 141.894 6.37878L139.367 2.6554C139.212 2.42691 138.901 2.3674 138.673 2.52248C138.444 2.67756 138.385 2.9885 138.54 3.21698L140.786 6.52666L137.476 8.773C137.248 8.92808 137.188 9.23902 137.343 9.4675C137.498 9.69599 137.809 9.7555 138.038 9.60042L141.761 7.07329ZM116.271 19.3206C116.329 19.0266 116.403 18.7175 116.494 18.3965L115.533 18.1222C115.434 18.4689 115.353 18.805 115.29 19.1275L116.271 19.3206ZM117.153 16.5911C117.4 16.032 117.695 15.4582 118.042 14.8815L117.184 14.3666C116.816 14.9792 116.502 15.5899 116.238 16.1861L117.153 16.5911ZM119.133 13.2888C119.516 12.7959 119.94 12.3095 120.406 11.8371L119.694 11.1347C119.199 11.6359 118.75 12.1522 118.344 12.6753L119.133 13.2888ZM121.842 10.5434C122.331 10.1522 122.856 9.77775 123.419 9.42545L122.888 8.57788C122.292 8.95086 121.736 9.34762 121.217 9.76246L121.842 10.5434ZM125.113 8.49206C125.678 8.22036 126.274 7.97009 126.902 7.74513L126.565 6.80363C125.904 7.04032 125.276 7.30407 124.68 7.59096L125.113 8.49206ZM128.757 7.18217C129.366 7.02887 130 6.89799 130.662 6.79225L130.504 5.80477C129.814 5.91508 129.15 6.05186 128.513 6.21249L128.757 7.18217ZM132.605 6.5627C133.232 6.51355 133.88 6.48575 134.551 6.48115L134.544 5.48117C133.85 5.48593 133.178 5.51471 132.527 5.56576L132.605 6.5627ZM136.513 6.53185C137.146 6.56816 137.797 6.62413 138.467 6.70105L138.581 5.70759C137.893 5.62855 137.223 5.57092 136.571 5.53349L136.513 6.53185ZM140.409 6.97547C140.731 7.02919 141.057 7.08755 141.386 7.15066L141.574 6.16849C141.237 6.10391 140.903 6.04416 140.574 5.98911L140.409 6.97547Z" fill="#F0F0F0"/>
<path opacity="0.2" d="M115.452 13.3487C115.68 13.1936 115.74 12.8827 115.585 12.6542L113.057 8.93079C112.902 8.7023 112.591 8.64279 112.363 8.79787C112.134 8.95295 112.075 9.26389 112.23 9.49237L114.476 12.802L111.167 15.0484C110.938 15.2035 110.879 15.5144 111.034 15.7429C111.189 15.9714 111.5 16.0309 111.728 15.8758L115.452 13.3487ZM89.9613 25.596C90.0192 25.302 90.0933 24.9929 90.1849 24.6719L89.2233 24.3976C89.1244 24.7443 89.0436 25.0804 88.9801 25.4029L89.9613 25.596ZM90.843 22.8664C91.0906 22.3074 91.3857 21.7336 91.732 21.1569L90.8748 20.642C90.5068 21.2546 90.1927 21.8653 89.9286 22.4615L90.843 22.8664ZM92.8237 19.5642C93.2066 19.0713 93.63 18.5849 94.0961 18.1125L93.3843 17.4101C92.8897 17.9113 92.4404 18.4276 92.034 18.9507L92.8237 19.5642ZM95.5324 16.8188C96.0216 16.4276 96.5466 16.0531 97.1093 15.7008L96.5786 14.8533C95.9829 15.2263 95.4265 15.623 94.9078 16.0379L95.5324 16.8188ZM98.8037 14.7675C99.3683 14.4958 99.9642 14.2455 100.593 14.0205L100.256 13.079C99.5944 13.3157 98.9662 13.5795 98.3701 13.8664L98.8037 14.7675ZM102.448 13.4576C103.056 13.3043 103.691 13.1734 104.353 13.0676L104.195 12.0802C103.504 12.1905 102.841 12.3272 102.203 12.4879L102.448 13.4576ZM106.296 12.8381C106.922 12.7889 107.571 12.7611 108.242 12.7565L108.235 11.7566C107.541 11.7613 106.868 11.7901 106.217 11.8412L106.296 12.8381ZM110.204 12.8072C110.837 12.8436 111.488 12.8995 112.157 12.9764L112.271 11.983C111.584 11.9039 110.914 11.8463 110.261 11.8089L110.204 12.8072ZM114.099 13.2509C114.421 13.3046 114.747 13.3629 115.077 13.4261L115.265 12.4439C114.927 12.3793 114.594 12.3195 114.264 12.2645L114.099 13.2509Z" fill="#F0F0F0"/>
<path opacity="0.2" d="M89.7515 20.5928C89.98 20.4377 90.0395 20.1268 89.8844 19.8983L87.3573 16.1749C87.2022 15.9464 86.8913 15.8869 86.6628 16.042C86.4343 16.1971 86.3748 16.508 86.5299 16.7365L88.7762 20.0462L85.4665 22.2925C85.238 22.4476 85.1785 22.7585 85.3336 22.987C85.4887 23.2155 85.7996 23.275 86.0281 23.12L89.7515 20.5928ZM64.2611 32.8401C64.319 32.5461 64.3931 32.2371 64.4847 31.916L63.5231 31.6417C63.4242 31.9884 63.3434 32.3245 63.2799 32.647L64.2611 32.8401ZM65.1428 30.1106C65.3904 29.5516 65.6855 28.9777 66.0319 28.4011L65.1746 27.8862C64.8066 28.4988 64.4925 29.1094 64.2284 29.7056L65.1428 30.1106ZM67.1235 26.8083C67.5064 26.3155 67.9298 25.829 68.3959 25.3566L67.6841 24.6542C67.1895 25.1555 66.7402 25.6717 66.3338 26.1949L67.1235 26.8083ZM69.8322 24.063C70.3214 23.6717 70.8464 23.2973 71.4091 22.945L70.8784 22.0974C70.2827 22.4704 69.7263 22.8672 69.2076 23.282L69.8322 24.063ZM73.1035 22.0116C73.6681 21.7399 74.264 21.4896 74.8924 21.2647L74.5554 20.3232C73.8942 20.5599 73.266 20.8236 72.6699 21.1105L73.1035 22.0116ZM76.7476 20.7017C77.3559 20.5484 77.9906 20.4175 78.6525 20.3118L78.4947 19.3243C77.8042 19.4346 77.1406 19.5714 76.5033 19.732L76.7476 20.7017ZM80.5953 20.0822C81.2221 20.0331 81.8707 20.0053 82.5415 20.0007L82.5346 19.0007C81.8406 19.0055 81.1683 19.0342 80.5172 19.0853L80.5953 20.0822ZM84.5035 20.0514C85.1366 20.0877 85.7876 20.1437 86.4571 20.2206L86.5713 19.2271C85.8834 19.1481 85.2134 19.0905 84.5608 19.053L84.5035 20.0514ZM88.3992 20.495C88.7211 20.5487 89.0469 20.6071 89.3767 20.6702L89.5647 19.688C89.2273 19.6234 88.8937 19.5637 88.5639 19.5086L88.3992 20.495Z" fill="#F0F0F0"/>
<path opacity="0.2" d="M63.148 27.2139C63.3765 27.0588 63.436 26.7479 63.2809 26.5194L60.7538 22.796C60.5987 22.5675 60.2877 22.508 60.0593 22.6631C59.8308 22.8182 59.7713 23.1291 59.9263 23.3576L62.1727 26.6673L58.863 28.9136C58.6345 29.0687 58.575 29.3796 58.7301 29.6081C58.8852 29.8366 59.1961 29.8961 59.4246 29.741L63.148 27.2139ZM37.6576 39.4612C37.7155 39.1672 37.7896 38.8582 37.8812 38.5371L36.9196 38.2628C36.8207 38.6095 36.7399 38.9456 36.6764 39.2681L37.6576 39.4612ZM38.5393 36.7317C38.7869 36.1727 39.082 35.5988 39.4283 35.0222L38.5711 34.5073C38.2031 35.1199 37.889 35.7305 37.6249 36.3267L38.5393 36.7317ZM40.52 33.4294C40.9029 32.9366 41.3262 32.4501 41.7924 31.9777L41.0806 31.2753C40.586 31.7766 40.1367 32.2928 39.7303 32.816L40.52 33.4294ZM43.2287 30.6841C43.7178 30.2928 44.2429 29.9184 44.8056 29.5661L44.2749 28.7185C43.6792 29.0915 43.1228 29.4882 42.6041 29.9031L43.2287 30.6841ZM46.5 28.6327C47.0646 28.361 47.6605 28.1107 48.2889 27.8858L47.9519 26.9443C47.2907 27.1809 46.6625 27.4447 46.0663 27.7316L46.5 28.6327ZM50.1441 27.3228C50.7524 27.1695 51.3871 27.0386 52.0489 26.9329L51.8912 25.9454C51.2007 26.0557 50.5371 26.1925 49.8997 26.3531L50.1441 27.3228ZM53.9918 26.7033C54.6186 26.6542 55.2671 26.6264 55.938 26.6218L55.9311 25.6218C55.2371 25.6266 54.5648 25.6553 53.9137 25.7064L53.9918 26.7033ZM57.9 26.6725C58.5331 26.7088 59.1841 26.7648 59.8536 26.8417L59.9677 25.8482C59.2799 25.7692 58.6098 25.7115 57.9573 25.6741L57.9 26.6725ZM61.7957 27.1161C62.1176 27.1698 62.4434 27.2282 62.7732 27.2913L62.9612 26.3091C62.6237 26.2445 62.2901 26.1848 61.9604 26.1297L61.7957 27.1161Z" fill="#F0F0F0"/>
<path opacity="0.2" d="M36.5445 33.5694C36.773 33.4143 36.8325 33.1034 36.6774 32.8749L34.1502 29.1515C33.9952 28.923 33.6842 28.8635 33.4557 29.0186C33.2273 29.1737 33.1678 29.4846 33.3228 29.7131L35.5692 33.0228L32.2595 35.2691C32.031 35.4242 31.9715 35.7351 32.1266 35.9636C32.2817 36.1921 32.5926 36.2516 32.8211 36.0965L36.5445 33.5694ZM11.0541 45.8167C11.1119 45.5227 11.1861 45.2136 11.2777 44.8926L10.316 44.6183C10.2172 44.965 10.1364 45.3011 10.0729 45.6236L11.0541 45.8167ZM11.9358 43.0872C12.1833 42.5281 12.4785 41.9543 12.8248 41.3776L11.9676 40.8627C11.5996 41.4753 11.2855 42.086 11.0214 42.6822L11.9358 43.0872ZM13.9165 39.7849C14.2994 39.292 14.7227 38.8056 15.1889 38.3332L14.4771 37.6308C13.9825 38.132 13.5332 38.6483 13.1268 39.1714L13.9165 39.7849ZM16.6251 37.0395C17.1143 36.6483 17.6394 36.2738 18.202 35.9215L17.6713 35.074C17.0757 35.447 16.5193 35.8437 16.0006 36.2586L16.6251 37.0395ZM19.8964 34.9882C20.4611 34.7165 21.057 34.4662 21.6854 34.2412L21.3484 33.2997C20.6872 33.5364 20.059 33.8002 19.4628 34.0871L19.8964 34.9882ZM23.5406 33.6783C24.1489 33.525 24.7835 33.3941 25.4454 33.2883L25.2877 32.3009C24.5972 32.4112 23.9336 32.548 23.2962 32.7086L23.5406 33.6783ZM27.3883 33.0588C28.0151 33.0096 28.6636 32.9818 29.3345 32.9772L29.3276 31.9773C28.6336 31.982 27.9612 32.0108 27.3101 32.0619L27.3883 33.0588ZM31.2965 33.0279C31.9296 33.0643 32.5806 33.1202 33.2501 33.1971L33.3642 32.2037C32.6764 32.1246 32.0063 32.067 31.3538 32.0296L31.2965 33.0279ZM35.1922 33.4716C35.5141 33.5253 35.8399 33.5836 36.1697 33.6468L36.3577 32.6646C36.0202 32.6 35.6866 32.5403 35.3568 32.4852L35.1922 33.4716Z" fill="#F0F0F0"/>
<rect opacity="0.2" y="51.9277" width="21.127" height="6.48763" fill="url(#paint0_linear_6006_4663)"/>
<rect opacity="0.2" x="159.621" y="13.002" width="21.127" height="45.4134" fill="#442F9B"/>
<rect opacity="0.2" x="53.207" y="38.9531" width="21.127" height="19.4629" fill="url(#paint1_linear_6006_4663)"/>
<rect opacity="0.2" x="106.414" y="25.9785" width="21.127" height="32.4382" fill="url(#paint2_linear_6006_4663)"/>
<rect opacity="0.2" x="26.6035" y="45.4414" width="21.127" height="12.9753" fill="url(#paint3_linear_6006_4663)"/>
<rect opacity="0.2" x="79.8105" y="32.4648" width="21.127" height="25.9505" fill="url(#paint4_linear_6006_4663)"/>
<rect x="133.018" y="19.4902" width="21.127" height="38.9258" fill="url(#paint5_linear_6006_4663)"/>
<circle cx="142.448" cy="6.03711" r="6" fill="url(#paint6_linear_6006_4663)"/>
<defs>
<linearGradient id="paint0_linear_6006_4663" x1="10.5635" y1="51.9277" x2="10.5635" y2="58.4154" gradientUnits="userSpaceOnUse">
<stop stop-color="#6346E4"/>
<stop offset="1" stop-color="#6C3E9D"/>
</linearGradient>
<linearGradient id="paint1_linear_6006_4663" x1="63.7705" y1="38.9531" x2="63.7705" y2="58.416" gradientUnits="userSpaceOnUse">
<stop stop-color="#6346E4"/>
<stop offset="1" stop-color="#6C3E9D"/>
</linearGradient>
<linearGradient id="paint2_linear_6006_4663" x1="116.978" y1="25.9785" x2="116.978" y2="58.4167" gradientUnits="userSpaceOnUse">
<stop stop-color="#6346E4"/>
<stop offset="1" stop-color="#6C3E9D"/>
</linearGradient>
<linearGradient id="paint3_linear_6006_4663" x1="37.167" y1="45.4414" x2="37.167" y2="58.4167" gradientUnits="userSpaceOnUse">
<stop stop-color="#6346E4"/>
<stop offset="1" stop-color="#6C3E9D"/>
</linearGradient>
<linearGradient id="paint4_linear_6006_4663" x1="90.374" y1="32.4648" x2="90.374" y2="58.4154" gradientUnits="userSpaceOnUse">
<stop stop-color="#6346E4"/>
<stop offset="1" stop-color="#6C3E9D"/>
</linearGradient>
<linearGradient id="paint5_linear_6006_4663" x1="143.581" y1="19.4902" x2="143.581" y2="58.416" gradientUnits="userSpaceOnUse">
<stop stop-color="#6346E4"/>
<stop offset="1" stop-color="#6C3E9D"/>
</linearGradient>
<linearGradient id="paint6_linear_6006_4663" x1="142.448" y1="0.0371094" x2="142.448" y2="12.0371" gradientUnits="userSpaceOnUse">
<stop stop-color="#6346E4"/>
<stop offset="1" stop-color="#6C3E9D"/>
</linearGradient>
</defs>
</svg>
