<svg width="41" height="41" viewBox="0 0 41 41" fill="none" xmlns="http://www.w3.org/2000/svg">
<g clip-path="url(#clip0_6007_13787)">
<path d="M40.315 34.7525L34.8329 25.5808C34.5977 25.1868 34.1722 24.9456 33.7137 24.9456H30.5642L29.4763 23.8577C29.0606 23.8391 28.6459 23.8079 28.2349 23.75L23.2676 28.7166L25.0303 30.4795V33.6282C25.0303 34.0869 25.2714 34.5123 25.6655 34.7476L34.838 40.2305C35.3495 40.5374 36.0058 40.457 36.4293 40.0334L40.118 36.3438C40.5408 35.921 40.6223 35.2655 40.315 34.7525Z" fill="url(#paint0_linear_6007_13787)"/>
<path d="M39.8965 7.34394C39.5777 6.45042 38.4282 6.1773 37.7457 6.85995L32.4105 12.196L29.3357 11.5812L28.721 8.50644L34.0561 3.17128C34.7312 2.498 34.4748 1.34261 33.5722 1.02042C29.7932 -0.325671 25.5254 0.634719 22.6943 3.46581C20.0611 6.09816 19.0464 9.9737 19.9982 13.5401L8.75473 24.7846C4.71176 24.4056 0.500977 27.8329 0.500977 32.59C0.500977 36.9054 4.01137 40.4158 8.32676 40.4158C13.0732 40.4158 16.5121 36.2144 16.1321 32.1621L27.3765 20.9185C30.943 21.872 34.8176 20.8556 37.45 18.2233C40.282 15.3914 41.2424 11.1209 39.8965 7.34394ZM8.32676 35.1985C6.88832 35.1985 5.71816 34.0284 5.71816 32.59C5.71816 31.1515 6.88832 29.9814 8.32676 29.9814C9.7652 29.9814 10.9354 31.1515 10.9354 32.59C10.9354 34.0284 9.76528 35.1985 8.32676 35.1985Z" fill="url(#paint1_linear_6007_13787)"/>
<path d="M17.3512 8.04416L10.867 1.55994C9.33953 0.032442 6.85516 0.0369733 5.33398 1.55994L1.64445 5.24861C0.118516 6.77455 0.118516 9.25658 1.64445 10.7826L10.356 19.4942L14.0448 15.8048L6.10078 7.86057C5.59133 7.35111 5.59133 6.52564 6.10078 6.01619C6.61023 5.50674 7.4357 5.50674 7.94516 6.01619L15.8891 13.9602L17.167 12.682C16.9467 11.1247 17.0195 9.55455 17.3512 8.04416Z" fill="url(#paint2_linear_6007_13787)"/>
</g>
<defs>
<linearGradient id="paint0_linear_6007_13787" x1="31.8839" y1="23.75" x2="31.8839" y2="40.4157" gradientUnits="userSpaceOnUse">
<stop stop-color="#6346E4"/>
<stop offset="1" stop-color="#6C3E9D"/>
</linearGradient>
<linearGradient id="paint1_linear_6007_13787" x1="20.4989" y1="0.419922" x2="20.4989" y2="40.4158" gradientUnits="userSpaceOnUse">
<stop stop-color="#6346E4"/>
<stop offset="1" stop-color="#6C3E9D"/>
</linearGradient>
<linearGradient id="paint2_linear_6007_13787" x1="8.92562" y1="0.416016" x2="8.92562" y2="19.4942" gradientUnits="userSpaceOnUse">
<stop stop-color="#6346E4"/>
<stop offset="1" stop-color="#6C3E9D"/>
</linearGradient>
<clipPath id="clip0_6007_13787">
<rect width="40" height="40" fill="white" transform="translate(0.5 0.416016)"/>
</clipPath>
</defs>
</svg>
