<svg width="49" height="49" viewBox="0 0 49 49" fill="none" xmlns="http://www.w3.org/2000/svg">
<path d="M7.58594 8.92823L31.1499 19.9162L29.0369 24.4482L41.4809 21.4232L35.7979 9.94723L33.6849 14.4782L10.1209 3.49023L7.58594 8.92823Z" fill="url(#paint0_linear_6007_13798)"/>
<path d="M10.167 24.416C13.4807 24.416 16.167 23.5206 16.167 22.416C16.167 21.3114 13.4807 20.416 10.167 20.416C6.85328 20.416 4.16699 21.3114 4.16699 22.416C4.16699 23.5206 6.85328 24.416 10.167 24.416Z" fill="url(#paint1_linear_6007_13798)"/>
<path d="M16.167 24.6758V29.6458C15.4971 30.0958 13.5071 30.7658 10.167 30.7658C6.82715 30.7658 4.83691 30.0958 4.16699 29.6558V24.6758C6.03482 25.5756 8.09551 26.0014 10.167 25.9158C12.2385 26.0014 14.2992 25.5756 16.167 24.6758Z" fill="url(#paint2_linear_6007_13798)"/>
<path d="M16.167 31.3359V37.0459C15.4971 37.4959 13.5071 38.1659 10.167 38.1659C6.82715 38.1659 4.83691 37.4959 4.16699 37.0559V31.3359C6.09758 31.9929 8.1281 32.3077 10.167 32.2659C12.2059 32.3077 14.2364 31.9929 16.167 31.3359Z" fill="url(#paint3_linear_6007_13798)"/>
<path d="M10.167 39.6663C12.2059 39.7081 14.2364 39.3933 16.167 38.7363V44.3163C12.3014 45.783 8.03255 45.783 4.16699 44.3163V38.7363C6.09758 39.3933 8.1281 39.7081 10.167 39.6663Z" fill="url(#paint4_linear_6007_13798)"/>
<path d="M24.167 32.416C27.4807 32.416 30.167 31.5206 30.167 30.416C30.167 29.3114 27.4807 28.416 24.167 28.416C20.8533 28.416 18.167 29.3114 18.167 30.416C18.167 31.5206 20.8533 32.416 24.167 32.416Z" fill="url(#paint5_linear_6007_13798)"/>
<path d="M30.167 32.6758V36.8458C29.4971 37.2958 27.5071 37.9658 24.167 37.9658C20.8272 37.9658 18.8369 37.2958 18.167 36.8558V32.6758C20.0348 33.5756 22.0955 34.0014 24.167 33.9158C26.2385 34.0014 28.2992 33.5756 30.167 32.6758Z" fill="url(#paint6_linear_6007_13798)"/>
<path d="M24.167 39.4661C26.2059 39.5079 28.2364 39.1931 30.167 38.5361V44.2761C26.3114 45.7961 22.0226 45.7961 18.167 44.2761V38.5361C20.0976 39.1931 22.1281 39.5079 24.167 39.4661Z" fill="url(#paint7_linear_6007_13798)"/>
<path d="M38.167 38.916C41.4807 38.916 44.167 38.0206 44.167 36.916C44.167 35.8114 41.4807 34.916 38.167 34.916C34.8533 34.916 32.167 35.8114 32.167 36.916C32.167 38.0206 34.8533 38.916 38.167 38.916Z" fill="url(#paint8_linear_6007_13798)"/>
<path d="M44.167 39.1758V44.3458C43.4971 44.7958 41.5071 45.4158 38.167 45.4158C34.8272 45.4158 32.8369 44.7958 32.167 44.3558V39.1758C34.0348 40.0756 36.0955 40.5014 38.167 40.4158C40.2385 40.5014 42.2992 40.0756 44.167 39.1758Z" fill="url(#paint9_linear_6007_13798)"/>
<defs>
<linearGradient id="paint0_linear_6007_13798" x1="24.5334" y1="3.49023" x2="24.5334" y2="24.4482" gradientUnits="userSpaceOnUse">
<stop stop-color="#6346E4"/>
<stop offset="1" stop-color="#6C3E9D"/>
</linearGradient>
<linearGradient id="paint1_linear_6007_13798" x1="10.167" y1="20.416" x2="10.167" y2="24.416" gradientUnits="userSpaceOnUse">
<stop stop-color="#6346E4"/>
<stop offset="1" stop-color="#6C3E9D"/>
</linearGradient>
<linearGradient id="paint2_linear_6007_13798" x1="10.167" y1="24.6758" x2="10.167" y2="30.7658" gradientUnits="userSpaceOnUse">
<stop stop-color="#6346E4"/>
<stop offset="1" stop-color="#6C3E9D"/>
</linearGradient>
<linearGradient id="paint3_linear_6007_13798" x1="10.167" y1="31.3359" x2="10.167" y2="38.1659" gradientUnits="userSpaceOnUse">
<stop stop-color="#6346E4"/>
<stop offset="1" stop-color="#6C3E9D"/>
</linearGradient>
<linearGradient id="paint4_linear_6007_13798" x1="10.167" y1="38.7363" x2="10.167" y2="45.4163" gradientUnits="userSpaceOnUse">
<stop stop-color="#6346E4"/>
<stop offset="1" stop-color="#6C3E9D"/>
</linearGradient>
<linearGradient id="paint5_linear_6007_13798" x1="24.167" y1="28.416" x2="24.167" y2="32.416" gradientUnits="userSpaceOnUse">
<stop stop-color="#6346E4"/>
<stop offset="1" stop-color="#6C3E9D"/>
</linearGradient>
<linearGradient id="paint6_linear_6007_13798" x1="24.167" y1="32.6758" x2="24.167" y2="37.9658" gradientUnits="userSpaceOnUse">
<stop stop-color="#6346E4"/>
<stop offset="1" stop-color="#6C3E9D"/>
</linearGradient>
<linearGradient id="paint7_linear_6007_13798" x1="24.167" y1="38.5361" x2="24.167" y2="45.4161" gradientUnits="userSpaceOnUse">
<stop stop-color="#6346E4"/>
<stop offset="1" stop-color="#6C3E9D"/>
</linearGradient>
<linearGradient id="paint8_linear_6007_13798" x1="38.167" y1="34.916" x2="38.167" y2="38.916" gradientUnits="userSpaceOnUse">
<stop stop-color="#6346E4"/>
<stop offset="1" stop-color="#6C3E9D"/>
</linearGradient>
<linearGradient id="paint9_linear_6007_13798" x1="38.167" y1="39.1758" x2="38.167" y2="45.4158" gradientUnits="userSpaceOnUse">
<stop stop-color="#6346E4"/>
<stop offset="1" stop-color="#6C3E9D"/>
</linearGradient>
</defs>
</svg>
