<svg width="41" height="41" viewBox="0 0 41 41" fill="none" xmlns="http://www.w3.org/2000/svg">
<g clip-path="url(#clip0_6007_13784)">
<path d="M38.334 17.083H37.5006V15.4163C37.5006 10.8213 33.7623 7.08301 29.1673 7.08301H22.5007V3.74967C22.5007 2.82801 21.754 2.08301 20.834 2.08301C19.914 2.08301 19.1673 2.82801 19.1673 3.74967V7.08301H12.5007C7.90565 7.08301 4.16732 10.8213 4.16732 15.4163V17.083H3.33398C1.95565 17.083 0.833984 18.2047 0.833984 19.583V24.583C0.833984 25.9613 1.95565 27.083 3.33398 27.083H4.16732V28.7497C4.16732 33.3447 7.90565 37.083 12.5007 37.083H29.1673C33.7623 37.083 37.5006 33.3447 37.5006 28.7497V27.083H38.334C39.7123 27.083 40.834 25.9613 40.834 24.583V19.583C40.834 18.2047 39.7123 17.083 38.334 17.083ZM12.5007 30.4163H10.834C9.91398 30.4163 9.16732 29.6713 9.16732 28.7497C9.16732 27.828 9.91398 27.083 10.834 27.083H12.5007C13.4207 27.083 14.1673 27.828 14.1673 28.7497C14.1673 29.6713 13.4207 30.4163 12.5007 30.4163ZM13.334 20.4163C11.954 20.4163 10.834 19.2963 10.834 17.9163C10.834 16.5363 11.954 15.4163 13.334 15.4163C14.714 15.4163 15.834 16.5363 15.834 17.9163C15.834 19.2963 14.714 20.4163 13.334 20.4163ZM22.5007 30.4163H19.1673C18.2473 30.4163 17.5007 29.6713 17.5007 28.7497C17.5007 27.828 18.2473 27.083 19.1673 27.083H22.5007C23.4223 27.083 24.1673 27.828 24.1673 28.7497C24.1673 29.6713 23.4223 30.4163 22.5007 30.4163ZM25.834 17.9163C25.834 16.5363 26.954 15.4163 28.334 15.4163C29.714 15.4163 30.834 16.5363 30.834 17.9163C30.834 19.2963 29.714 20.4163 28.334 20.4163C26.954 20.4163 25.834 19.2963 25.834 17.9163ZM30.834 30.4163H29.1673C28.2457 30.4163 27.5007 29.6713 27.5007 28.7497C27.5007 27.828 28.2457 27.083 29.1673 27.083H30.834C31.7556 27.083 32.5007 27.828 32.5007 28.7497C32.5007 29.6713 31.7556 30.4163 30.834 30.4163Z" fill="url(#paint0_linear_6007_13784)"/>
</g>
<defs>
<linearGradient id="paint0_linear_6007_13784" x1="20.834" y1="2.08301" x2="20.834" y2="37.083" gradientUnits="userSpaceOnUse">
<stop stop-color="#6346E4"/>
<stop offset="1" stop-color="#6C3E9D"/>
</linearGradient>
<clipPath id="clip0_6007_13784">
<rect width="40" height="40" fill="white" transform="translate(0.833984 0.416016)"/>
</clipPath>
</defs>
</svg>
